%TF.GenerationSoftware,KiCad,Pcbnew,(5.1.9)-1*%
%TF.CreationDate,2021-02-04T07:59:36-05:00*%
%TF.ProjectId,NerdConsole_BreadBoard_VertMonitor8,4e657264-436f-46e7-936f-6c655f427265,rev?*%
%TF.SameCoordinates,Original*%
%TF.FileFunction,Legend,Bot*%
%TF.FilePolarity,Positive*%
%FSLAX46Y46*%
G04 Gerber Fmt 4.6, Leading zero omitted, Abs format (unit mm)*
G04 Created by KiCad (PCBNEW (5.1.9)-1) date 2021-02-04 07:59:36*
%MOMM*%
%LPD*%
G01*
G04 APERTURE LIST*
%ADD10C,0.150000*%
G04 APERTURE END LIST*
D10*
X152369047Y-76127380D02*
X152369047Y-75127380D01*
X151797619Y-76127380D01*
X151797619Y-75127380D01*
X150940476Y-76079761D02*
X151035714Y-76127380D01*
X151226190Y-76127380D01*
X151321428Y-76079761D01*
X151369047Y-75984523D01*
X151369047Y-75603571D01*
X151321428Y-75508333D01*
X151226190Y-75460714D01*
X151035714Y-75460714D01*
X150940476Y-75508333D01*
X150892857Y-75603571D01*
X150892857Y-75698809D01*
X151369047Y-75794047D01*
X150464285Y-76127380D02*
X150464285Y-75460714D01*
X150464285Y-75651190D02*
X150416666Y-75555952D01*
X150369047Y-75508333D01*
X150273809Y-75460714D01*
X150178571Y-75460714D01*
X149416666Y-76127380D02*
X149416666Y-75127380D01*
X149416666Y-76079761D02*
X149511904Y-76127380D01*
X149702380Y-76127380D01*
X149797619Y-76079761D01*
X149845238Y-76032142D01*
X149892857Y-75936904D01*
X149892857Y-75651190D01*
X149845238Y-75555952D01*
X149797619Y-75508333D01*
X149702380Y-75460714D01*
X149511904Y-75460714D01*
X149416666Y-75508333D01*
X148369047Y-76032142D02*
X148416666Y-76079761D01*
X148559523Y-76127380D01*
X148654761Y-76127380D01*
X148797619Y-76079761D01*
X148892857Y-75984523D01*
X148940476Y-75889285D01*
X148988095Y-75698809D01*
X148988095Y-75555952D01*
X148940476Y-75365476D01*
X148892857Y-75270238D01*
X148797619Y-75175000D01*
X148654761Y-75127380D01*
X148559523Y-75127380D01*
X148416666Y-75175000D01*
X148369047Y-75222619D01*
X147797619Y-76127380D02*
X147892857Y-76079761D01*
X147940476Y-76032142D01*
X147988095Y-75936904D01*
X147988095Y-75651190D01*
X147940476Y-75555952D01*
X147892857Y-75508333D01*
X147797619Y-75460714D01*
X147654761Y-75460714D01*
X147559523Y-75508333D01*
X147511904Y-75555952D01*
X147464285Y-75651190D01*
X147464285Y-75936904D01*
X147511904Y-76032142D01*
X147559523Y-76079761D01*
X147654761Y-76127380D01*
X147797619Y-76127380D01*
X147035714Y-75460714D02*
X147035714Y-76127380D01*
X147035714Y-75555952D02*
X146988095Y-75508333D01*
X146892857Y-75460714D01*
X146750000Y-75460714D01*
X146654761Y-75508333D01*
X146607142Y-75603571D01*
X146607142Y-76127380D01*
X146178571Y-76079761D02*
X146083333Y-76127380D01*
X145892857Y-76127380D01*
X145797619Y-76079761D01*
X145750000Y-75984523D01*
X145750000Y-75936904D01*
X145797619Y-75841666D01*
X145892857Y-75794047D01*
X146035714Y-75794047D01*
X146130952Y-75746428D01*
X146178571Y-75651190D01*
X146178571Y-75603571D01*
X146130952Y-75508333D01*
X146035714Y-75460714D01*
X145892857Y-75460714D01*
X145797619Y-75508333D01*
X145178571Y-76127380D02*
X145273809Y-76079761D01*
X145321428Y-76032142D01*
X145369047Y-75936904D01*
X145369047Y-75651190D01*
X145321428Y-75555952D01*
X145273809Y-75508333D01*
X145178571Y-75460714D01*
X145035714Y-75460714D01*
X144940476Y-75508333D01*
X144892857Y-75555952D01*
X144845238Y-75651190D01*
X144845238Y-75936904D01*
X144892857Y-76032142D01*
X144940476Y-76079761D01*
X145035714Y-76127380D01*
X145178571Y-76127380D01*
X144273809Y-76127380D02*
X144369047Y-76079761D01*
X144416666Y-75984523D01*
X144416666Y-75127380D01*
X143511904Y-76079761D02*
X143607142Y-76127380D01*
X143797619Y-76127380D01*
X143892857Y-76079761D01*
X143940476Y-75984523D01*
X143940476Y-75603571D01*
X143892857Y-75508333D01*
X143797619Y-75460714D01*
X143607142Y-75460714D01*
X143511904Y-75508333D01*
X143464285Y-75603571D01*
X143464285Y-75698809D01*
X143940476Y-75794047D01*
X141940476Y-75603571D02*
X141797619Y-75651190D01*
X141750000Y-75698809D01*
X141702380Y-75794047D01*
X141702380Y-75936904D01*
X141750000Y-76032142D01*
X141797619Y-76079761D01*
X141892857Y-76127380D01*
X142273809Y-76127380D01*
X142273809Y-75127380D01*
X141940476Y-75127380D01*
X141845238Y-75175000D01*
X141797619Y-75222619D01*
X141750000Y-75317857D01*
X141750000Y-75413095D01*
X141797619Y-75508333D01*
X141845238Y-75555952D01*
X141940476Y-75603571D01*
X142273809Y-75603571D01*
X141273809Y-76127380D02*
X141273809Y-75460714D01*
X141273809Y-75651190D02*
X141226190Y-75555952D01*
X141178571Y-75508333D01*
X141083333Y-75460714D01*
X140988095Y-75460714D01*
X140273809Y-76079761D02*
X140369047Y-76127380D01*
X140559523Y-76127380D01*
X140654761Y-76079761D01*
X140702380Y-75984523D01*
X140702380Y-75603571D01*
X140654761Y-75508333D01*
X140559523Y-75460714D01*
X140369047Y-75460714D01*
X140273809Y-75508333D01*
X140226190Y-75603571D01*
X140226190Y-75698809D01*
X140702380Y-75794047D01*
X139369047Y-76127380D02*
X139369047Y-75603571D01*
X139416666Y-75508333D01*
X139511904Y-75460714D01*
X139702380Y-75460714D01*
X139797619Y-75508333D01*
X139369047Y-76079761D02*
X139464285Y-76127380D01*
X139702380Y-76127380D01*
X139797619Y-76079761D01*
X139845238Y-75984523D01*
X139845238Y-75889285D01*
X139797619Y-75794047D01*
X139702380Y-75746428D01*
X139464285Y-75746428D01*
X139369047Y-75698809D01*
X138464285Y-76127380D02*
X138464285Y-75127380D01*
X138464285Y-76079761D02*
X138559523Y-76127380D01*
X138750000Y-76127380D01*
X138845238Y-76079761D01*
X138892857Y-76032142D01*
X138940476Y-75936904D01*
X138940476Y-75651190D01*
X138892857Y-75555952D01*
X138845238Y-75508333D01*
X138750000Y-75460714D01*
X138559523Y-75460714D01*
X138464285Y-75508333D01*
X137654761Y-75603571D02*
X137511904Y-75651190D01*
X137464285Y-75698809D01*
X137416666Y-75794047D01*
X137416666Y-75936904D01*
X137464285Y-76032142D01*
X137511904Y-76079761D01*
X137607142Y-76127380D01*
X137988095Y-76127380D01*
X137988095Y-75127380D01*
X137654761Y-75127380D01*
X137559523Y-75175000D01*
X137511904Y-75222619D01*
X137464285Y-75317857D01*
X137464285Y-75413095D01*
X137511904Y-75508333D01*
X137559523Y-75555952D01*
X137654761Y-75603571D01*
X137988095Y-75603571D01*
X136845238Y-76127380D02*
X136940476Y-76079761D01*
X136988095Y-76032142D01*
X137035714Y-75936904D01*
X137035714Y-75651190D01*
X136988095Y-75555952D01*
X136940476Y-75508333D01*
X136845238Y-75460714D01*
X136702380Y-75460714D01*
X136607142Y-75508333D01*
X136559523Y-75555952D01*
X136511904Y-75651190D01*
X136511904Y-75936904D01*
X136559523Y-76032142D01*
X136607142Y-76079761D01*
X136702380Y-76127380D01*
X136845238Y-76127380D01*
X135654761Y-76127380D02*
X135654761Y-75603571D01*
X135702380Y-75508333D01*
X135797619Y-75460714D01*
X135988095Y-75460714D01*
X136083333Y-75508333D01*
X135654761Y-76079761D02*
X135750000Y-76127380D01*
X135988095Y-76127380D01*
X136083333Y-76079761D01*
X136130952Y-75984523D01*
X136130952Y-75889285D01*
X136083333Y-75794047D01*
X135988095Y-75746428D01*
X135750000Y-75746428D01*
X135654761Y-75698809D01*
X135178571Y-76127380D02*
X135178571Y-75460714D01*
X135178571Y-75651190D02*
X135130952Y-75555952D01*
X135083333Y-75508333D01*
X134988095Y-75460714D01*
X134892857Y-75460714D01*
X134130952Y-76127380D02*
X134130952Y-75127380D01*
X134130952Y-76079761D02*
X134226190Y-76127380D01*
X134416666Y-76127380D01*
X134511904Y-76079761D01*
X134559523Y-76032142D01*
X134607142Y-75936904D01*
X134607142Y-75651190D01*
X134559523Y-75555952D01*
X134511904Y-75508333D01*
X134416666Y-75460714D01*
X134226190Y-75460714D01*
X134130952Y-75508333D01*
X151226190Y-76777380D02*
X150892857Y-77777380D01*
X150559523Y-76777380D01*
X149845238Y-77729761D02*
X149940476Y-77777380D01*
X150130952Y-77777380D01*
X150226190Y-77729761D01*
X150273809Y-77634523D01*
X150273809Y-77253571D01*
X150226190Y-77158333D01*
X150130952Y-77110714D01*
X149940476Y-77110714D01*
X149845238Y-77158333D01*
X149797619Y-77253571D01*
X149797619Y-77348809D01*
X150273809Y-77444047D01*
X149369047Y-77777380D02*
X149369047Y-77110714D01*
X149369047Y-77301190D02*
X149321428Y-77205952D01*
X149273809Y-77158333D01*
X149178571Y-77110714D01*
X149083333Y-77110714D01*
X148892857Y-77110714D02*
X148511904Y-77110714D01*
X148750000Y-76777380D02*
X148750000Y-77634523D01*
X148702380Y-77729761D01*
X148607142Y-77777380D01*
X148511904Y-77777380D01*
X148178571Y-77777380D02*
X148178571Y-77110714D01*
X148178571Y-76777380D02*
X148226190Y-76825000D01*
X148178571Y-76872619D01*
X148130952Y-76825000D01*
X148178571Y-76777380D01*
X148178571Y-76872619D01*
X147273809Y-77729761D02*
X147369047Y-77777380D01*
X147559523Y-77777380D01*
X147654761Y-77729761D01*
X147702380Y-77682142D01*
X147750000Y-77586904D01*
X147750000Y-77301190D01*
X147702380Y-77205952D01*
X147654761Y-77158333D01*
X147559523Y-77110714D01*
X147369047Y-77110714D01*
X147273809Y-77158333D01*
X146416666Y-77777380D02*
X146416666Y-77253571D01*
X146464285Y-77158333D01*
X146559523Y-77110714D01*
X146750000Y-77110714D01*
X146845238Y-77158333D01*
X146416666Y-77729761D02*
X146511904Y-77777380D01*
X146750000Y-77777380D01*
X146845238Y-77729761D01*
X146892857Y-77634523D01*
X146892857Y-77539285D01*
X146845238Y-77444047D01*
X146750000Y-77396428D01*
X146511904Y-77396428D01*
X146416666Y-77348809D01*
X145797619Y-77777380D02*
X145892857Y-77729761D01*
X145940476Y-77634523D01*
X145940476Y-76777380D01*
X144654761Y-77777380D02*
X144654761Y-76777380D01*
X144321428Y-77491666D01*
X143988095Y-76777380D01*
X143988095Y-77777380D01*
X143369047Y-77777380D02*
X143464285Y-77729761D01*
X143511904Y-77682142D01*
X143559523Y-77586904D01*
X143559523Y-77301190D01*
X143511904Y-77205952D01*
X143464285Y-77158333D01*
X143369047Y-77110714D01*
X143226190Y-77110714D01*
X143130952Y-77158333D01*
X143083333Y-77205952D01*
X143035714Y-77301190D01*
X143035714Y-77586904D01*
X143083333Y-77682142D01*
X143130952Y-77729761D01*
X143226190Y-77777380D01*
X143369047Y-77777380D01*
X142607142Y-77110714D02*
X142607142Y-77777380D01*
X142607142Y-77205952D02*
X142559523Y-77158333D01*
X142464285Y-77110714D01*
X142321428Y-77110714D01*
X142226190Y-77158333D01*
X142178571Y-77253571D01*
X142178571Y-77777380D01*
X141702380Y-77777380D02*
X141702380Y-77110714D01*
X141702380Y-76777380D02*
X141750000Y-76825000D01*
X141702380Y-76872619D01*
X141654761Y-76825000D01*
X141702380Y-76777380D01*
X141702380Y-76872619D01*
X141369047Y-77110714D02*
X140988095Y-77110714D01*
X141226190Y-76777380D02*
X141226190Y-77634523D01*
X141178571Y-77729761D01*
X141083333Y-77777380D01*
X140988095Y-77777380D01*
X140511904Y-77777380D02*
X140607142Y-77729761D01*
X140654761Y-77682142D01*
X140702380Y-77586904D01*
X140702380Y-77301190D01*
X140654761Y-77205952D01*
X140607142Y-77158333D01*
X140511904Y-77110714D01*
X140369047Y-77110714D01*
X140273809Y-77158333D01*
X140226190Y-77205952D01*
X140178571Y-77301190D01*
X140178571Y-77586904D01*
X140226190Y-77682142D01*
X140273809Y-77729761D01*
X140369047Y-77777380D01*
X140511904Y-77777380D01*
X139750000Y-77777380D02*
X139750000Y-77110714D01*
X139750000Y-77301190D02*
X139702380Y-77205952D01*
X139654761Y-77158333D01*
X139559523Y-77110714D01*
X139464285Y-77110714D01*
X138226190Y-77205952D02*
X138321428Y-77158333D01*
X138369047Y-77110714D01*
X138416666Y-77015476D01*
X138416666Y-76967857D01*
X138369047Y-76872619D01*
X138321428Y-76825000D01*
X138226190Y-76777380D01*
X138035714Y-76777380D01*
X137940476Y-76825000D01*
X137892857Y-76872619D01*
X137845238Y-76967857D01*
X137845238Y-77015476D01*
X137892857Y-77110714D01*
X137940476Y-77158333D01*
X138035714Y-77205952D01*
X138226190Y-77205952D01*
X138321428Y-77253571D01*
X138369047Y-77301190D01*
X138416666Y-77396428D01*
X138416666Y-77586904D01*
X138369047Y-77682142D01*
X138321428Y-77729761D01*
X138226190Y-77777380D01*
X138035714Y-77777380D01*
X137940476Y-77729761D01*
X137892857Y-77682142D01*
X137845238Y-77586904D01*
X137845238Y-77396428D01*
X137892857Y-77301190D01*
X137940476Y-77253571D01*
X138035714Y-77205952D01*
X136750000Y-77110714D02*
X136511904Y-77777380D01*
X136273809Y-77110714D01*
X135369047Y-77777380D02*
X135940476Y-77777380D01*
X135654761Y-77777380D02*
X135654761Y-76777380D01*
X135750000Y-76920238D01*
X135845238Y-77015476D01*
X135940476Y-77063095D01*
M02*
