%TF.GenerationSoftware,KiCad,Pcbnew,(5.1.9)-1*%
%TF.CreationDate,2021-02-03T22:13:17-05:00*%
%TF.ProjectId,NerdConsole_BreadBoard_VertMonitor8,4e657264-436f-46e7-936f-6c655f427265,rev?*%
%TF.SameCoordinates,Original*%
%TF.FileFunction,Paste,Top*%
%TF.FilePolarity,Positive*%
%FSLAX46Y46*%
G04 Gerber Fmt 4.6, Leading zero omitted, Abs format (unit mm)*
G04 Created by KiCad (PCBNEW (5.1.9)-1) date 2021-02-03 22:13:17*
%MOMM*%
%LPD*%
G01*
G04 APERTURE LIST*
G04 APERTURE END LIST*
%TO.C,D1*%
G36*
G01*
X149849999Y-77350000D02*
X150750001Y-77350000D01*
G75*
G02*
X151000000Y-77599999I0J-249999D01*
G01*
X151000000Y-78250001D01*
G75*
G02*
X150750001Y-78500000I-249999J0D01*
G01*
X149849999Y-78500000D01*
G75*
G02*
X149600000Y-78250001I0J249999D01*
G01*
X149600000Y-77599999D01*
G75*
G02*
X149849999Y-77350000I249999J0D01*
G01*
G37*
G36*
G01*
X149849999Y-75300000D02*
X150750001Y-75300000D01*
G75*
G02*
X151000000Y-75549999I0J-249999D01*
G01*
X151000000Y-76200001D01*
G75*
G02*
X150750001Y-76450000I-249999J0D01*
G01*
X149849999Y-76450000D01*
G75*
G02*
X149600000Y-76200001I0J249999D01*
G01*
X149600000Y-75549999D01*
G75*
G02*
X149849999Y-75300000I249999J0D01*
G01*
G37*
%TD*%
%TO.C,D2*%
G36*
G01*
X147249999Y-75300000D02*
X148150001Y-75300000D01*
G75*
G02*
X148400000Y-75549999I0J-249999D01*
G01*
X148400000Y-76200001D01*
G75*
G02*
X148150001Y-76450000I-249999J0D01*
G01*
X147249999Y-76450000D01*
G75*
G02*
X147000000Y-76200001I0J249999D01*
G01*
X147000000Y-75549999D01*
G75*
G02*
X147249999Y-75300000I249999J0D01*
G01*
G37*
G36*
G01*
X147249999Y-77350000D02*
X148150001Y-77350000D01*
G75*
G02*
X148400000Y-77599999I0J-249999D01*
G01*
X148400000Y-78250001D01*
G75*
G02*
X148150001Y-78500000I-249999J0D01*
G01*
X147249999Y-78500000D01*
G75*
G02*
X147000000Y-78250001I0J249999D01*
G01*
X147000000Y-77599999D01*
G75*
G02*
X147249999Y-77350000I249999J0D01*
G01*
G37*
%TD*%
%TO.C,D3*%
G36*
G01*
X144749999Y-77350000D02*
X145650001Y-77350000D01*
G75*
G02*
X145900000Y-77599999I0J-249999D01*
G01*
X145900000Y-78250001D01*
G75*
G02*
X145650001Y-78500000I-249999J0D01*
G01*
X144749999Y-78500000D01*
G75*
G02*
X144500000Y-78250001I0J249999D01*
G01*
X144500000Y-77599999D01*
G75*
G02*
X144749999Y-77350000I249999J0D01*
G01*
G37*
G36*
G01*
X144749999Y-75300000D02*
X145650001Y-75300000D01*
G75*
G02*
X145900000Y-75549999I0J-249999D01*
G01*
X145900000Y-76200001D01*
G75*
G02*
X145650001Y-76450000I-249999J0D01*
G01*
X144749999Y-76450000D01*
G75*
G02*
X144500000Y-76200001I0J249999D01*
G01*
X144500000Y-75549999D01*
G75*
G02*
X144749999Y-75300000I249999J0D01*
G01*
G37*
%TD*%
%TO.C,D4*%
G36*
G01*
X142149999Y-75300000D02*
X143050001Y-75300000D01*
G75*
G02*
X143300000Y-75549999I0J-249999D01*
G01*
X143300000Y-76200001D01*
G75*
G02*
X143050001Y-76450000I-249999J0D01*
G01*
X142149999Y-76450000D01*
G75*
G02*
X141900000Y-76200001I0J249999D01*
G01*
X141900000Y-75549999D01*
G75*
G02*
X142149999Y-75300000I249999J0D01*
G01*
G37*
G36*
G01*
X142149999Y-77350000D02*
X143050001Y-77350000D01*
G75*
G02*
X143300000Y-77599999I0J-249999D01*
G01*
X143300000Y-78250001D01*
G75*
G02*
X143050001Y-78500000I-249999J0D01*
G01*
X142149999Y-78500000D01*
G75*
G02*
X141900000Y-78250001I0J249999D01*
G01*
X141900000Y-77599999D01*
G75*
G02*
X142149999Y-77350000I249999J0D01*
G01*
G37*
%TD*%
%TO.C,D5*%
G36*
G01*
X139649999Y-77350000D02*
X140550001Y-77350000D01*
G75*
G02*
X140800000Y-77599999I0J-249999D01*
G01*
X140800000Y-78250001D01*
G75*
G02*
X140550001Y-78500000I-249999J0D01*
G01*
X139649999Y-78500000D01*
G75*
G02*
X139400000Y-78250001I0J249999D01*
G01*
X139400000Y-77599999D01*
G75*
G02*
X139649999Y-77350000I249999J0D01*
G01*
G37*
G36*
G01*
X139649999Y-75300000D02*
X140550001Y-75300000D01*
G75*
G02*
X140800000Y-75549999I0J-249999D01*
G01*
X140800000Y-76200001D01*
G75*
G02*
X140550001Y-76450000I-249999J0D01*
G01*
X139649999Y-76450000D01*
G75*
G02*
X139400000Y-76200001I0J249999D01*
G01*
X139400000Y-75549999D01*
G75*
G02*
X139649999Y-75300000I249999J0D01*
G01*
G37*
%TD*%
%TO.C,D6*%
G36*
G01*
X137149999Y-75300000D02*
X138050001Y-75300000D01*
G75*
G02*
X138300000Y-75549999I0J-249999D01*
G01*
X138300000Y-76200001D01*
G75*
G02*
X138050001Y-76450000I-249999J0D01*
G01*
X137149999Y-76450000D01*
G75*
G02*
X136900000Y-76200001I0J249999D01*
G01*
X136900000Y-75549999D01*
G75*
G02*
X137149999Y-75300000I249999J0D01*
G01*
G37*
G36*
G01*
X137149999Y-77350000D02*
X138050001Y-77350000D01*
G75*
G02*
X138300000Y-77599999I0J-249999D01*
G01*
X138300000Y-78250001D01*
G75*
G02*
X138050001Y-78500000I-249999J0D01*
G01*
X137149999Y-78500000D01*
G75*
G02*
X136900000Y-78250001I0J249999D01*
G01*
X136900000Y-77599999D01*
G75*
G02*
X137149999Y-77350000I249999J0D01*
G01*
G37*
%TD*%
%TO.C,D7*%
G36*
G01*
X134549999Y-77350000D02*
X135450001Y-77350000D01*
G75*
G02*
X135700000Y-77599999I0J-249999D01*
G01*
X135700000Y-78250001D01*
G75*
G02*
X135450001Y-78500000I-249999J0D01*
G01*
X134549999Y-78500000D01*
G75*
G02*
X134300000Y-78250001I0J249999D01*
G01*
X134300000Y-77599999D01*
G75*
G02*
X134549999Y-77350000I249999J0D01*
G01*
G37*
G36*
G01*
X134549999Y-75300000D02*
X135450001Y-75300000D01*
G75*
G02*
X135700000Y-75549999I0J-249999D01*
G01*
X135700000Y-76200001D01*
G75*
G02*
X135450001Y-76450000I-249999J0D01*
G01*
X134549999Y-76450000D01*
G75*
G02*
X134300000Y-76200001I0J249999D01*
G01*
X134300000Y-75549999D01*
G75*
G02*
X134549999Y-75300000I249999J0D01*
G01*
G37*
%TD*%
%TO.C,D8*%
G36*
G01*
X132049999Y-75300000D02*
X132950001Y-75300000D01*
G75*
G02*
X133200000Y-75549999I0J-249999D01*
G01*
X133200000Y-76200001D01*
G75*
G02*
X132950001Y-76450000I-249999J0D01*
G01*
X132049999Y-76450000D01*
G75*
G02*
X131800000Y-76200001I0J249999D01*
G01*
X131800000Y-75549999D01*
G75*
G02*
X132049999Y-75300000I249999J0D01*
G01*
G37*
G36*
G01*
X132049999Y-77350000D02*
X132950001Y-77350000D01*
G75*
G02*
X133200000Y-77599999I0J-249999D01*
G01*
X133200000Y-78250001D01*
G75*
G02*
X132950001Y-78500000I-249999J0D01*
G01*
X132049999Y-78500000D01*
G75*
G02*
X131800000Y-78250001I0J249999D01*
G01*
X131800000Y-77599999D01*
G75*
G02*
X132049999Y-77350000I249999J0D01*
G01*
G37*
%TD*%
M02*
