%TF.GenerationSoftware,KiCad,Pcbnew,(5.1.9)-1*%
%TF.CreationDate,2021-02-04T07:59:36-05:00*%
%TF.ProjectId,NerdConsole_BreadBoard_VertMonitor8,4e657264-436f-46e7-936f-6c655f427265,rev?*%
%TF.SameCoordinates,Original*%
%TF.FileFunction,Copper,L1,Top*%
%TF.FilePolarity,Positive*%
%FSLAX46Y46*%
G04 Gerber Fmt 4.6, Leading zero omitted, Abs format (unit mm)*
G04 Created by KiCad (PCBNEW (5.1.9)-1) date 2021-02-04 07:59:36*
%MOMM*%
%LPD*%
G01*
G04 APERTURE LIST*
%TA.AperFunction,ComponentPad*%
%ADD10R,1.700000X1.700000*%
%TD*%
%TA.AperFunction,ComponentPad*%
%ADD11O,1.700000X1.700000*%
%TD*%
%TA.AperFunction,ComponentPad*%
%ADD12R,1.600000X1.600000*%
%TD*%
%TA.AperFunction,ComponentPad*%
%ADD13O,1.600000X1.600000*%
%TD*%
%TA.AperFunction,Conductor*%
%ADD14C,0.250000*%
%TD*%
G04 APERTURE END LIST*
%TO.P,D1,2*%
%TO.N,D0*%
%TA.AperFunction,SMDPad,CuDef*%
G36*
G01*
X149849999Y-77350000D02*
X150750001Y-77350000D01*
G75*
G02*
X151000000Y-77599999I0J-249999D01*
G01*
X151000000Y-78250001D01*
G75*
G02*
X150750001Y-78500000I-249999J0D01*
G01*
X149849999Y-78500000D01*
G75*
G02*
X149600000Y-78250001I0J249999D01*
G01*
X149600000Y-77599999D01*
G75*
G02*
X149849999Y-77350000I249999J0D01*
G01*
G37*
%TD.AperFunction*%
%TO.P,D1,1*%
%TO.N,LED0*%
%TA.AperFunction,SMDPad,CuDef*%
G36*
G01*
X149849999Y-75300000D02*
X150750001Y-75300000D01*
G75*
G02*
X151000000Y-75549999I0J-249999D01*
G01*
X151000000Y-76200001D01*
G75*
G02*
X150750001Y-76450000I-249999J0D01*
G01*
X149849999Y-76450000D01*
G75*
G02*
X149600000Y-76200001I0J249999D01*
G01*
X149600000Y-75549999D01*
G75*
G02*
X149849999Y-75300000I249999J0D01*
G01*
G37*
%TD.AperFunction*%
%TD*%
%TO.P,D2,1*%
%TO.N,LED1*%
%TA.AperFunction,SMDPad,CuDef*%
G36*
G01*
X147249999Y-75300000D02*
X148150001Y-75300000D01*
G75*
G02*
X148400000Y-75549999I0J-249999D01*
G01*
X148400000Y-76200001D01*
G75*
G02*
X148150001Y-76450000I-249999J0D01*
G01*
X147249999Y-76450000D01*
G75*
G02*
X147000000Y-76200001I0J249999D01*
G01*
X147000000Y-75549999D01*
G75*
G02*
X147249999Y-75300000I249999J0D01*
G01*
G37*
%TD.AperFunction*%
%TO.P,D2,2*%
%TO.N,D1*%
%TA.AperFunction,SMDPad,CuDef*%
G36*
G01*
X147249999Y-77350000D02*
X148150001Y-77350000D01*
G75*
G02*
X148400000Y-77599999I0J-249999D01*
G01*
X148400000Y-78250001D01*
G75*
G02*
X148150001Y-78500000I-249999J0D01*
G01*
X147249999Y-78500000D01*
G75*
G02*
X147000000Y-78250001I0J249999D01*
G01*
X147000000Y-77599999D01*
G75*
G02*
X147249999Y-77350000I249999J0D01*
G01*
G37*
%TD.AperFunction*%
%TD*%
%TO.P,D3,2*%
%TO.N,D2*%
%TA.AperFunction,SMDPad,CuDef*%
G36*
G01*
X144749999Y-77350000D02*
X145650001Y-77350000D01*
G75*
G02*
X145900000Y-77599999I0J-249999D01*
G01*
X145900000Y-78250001D01*
G75*
G02*
X145650001Y-78500000I-249999J0D01*
G01*
X144749999Y-78500000D01*
G75*
G02*
X144500000Y-78250001I0J249999D01*
G01*
X144500000Y-77599999D01*
G75*
G02*
X144749999Y-77350000I249999J0D01*
G01*
G37*
%TD.AperFunction*%
%TO.P,D3,1*%
%TO.N,LED2*%
%TA.AperFunction,SMDPad,CuDef*%
G36*
G01*
X144749999Y-75300000D02*
X145650001Y-75300000D01*
G75*
G02*
X145900000Y-75549999I0J-249999D01*
G01*
X145900000Y-76200001D01*
G75*
G02*
X145650001Y-76450000I-249999J0D01*
G01*
X144749999Y-76450000D01*
G75*
G02*
X144500000Y-76200001I0J249999D01*
G01*
X144500000Y-75549999D01*
G75*
G02*
X144749999Y-75300000I249999J0D01*
G01*
G37*
%TD.AperFunction*%
%TD*%
%TO.P,D4,1*%
%TO.N,LED3*%
%TA.AperFunction,SMDPad,CuDef*%
G36*
G01*
X142149999Y-75300000D02*
X143050001Y-75300000D01*
G75*
G02*
X143300000Y-75549999I0J-249999D01*
G01*
X143300000Y-76200001D01*
G75*
G02*
X143050001Y-76450000I-249999J0D01*
G01*
X142149999Y-76450000D01*
G75*
G02*
X141900000Y-76200001I0J249999D01*
G01*
X141900000Y-75549999D01*
G75*
G02*
X142149999Y-75300000I249999J0D01*
G01*
G37*
%TD.AperFunction*%
%TO.P,D4,2*%
%TO.N,D3*%
%TA.AperFunction,SMDPad,CuDef*%
G36*
G01*
X142149999Y-77350000D02*
X143050001Y-77350000D01*
G75*
G02*
X143300000Y-77599999I0J-249999D01*
G01*
X143300000Y-78250001D01*
G75*
G02*
X143050001Y-78500000I-249999J0D01*
G01*
X142149999Y-78500000D01*
G75*
G02*
X141900000Y-78250001I0J249999D01*
G01*
X141900000Y-77599999D01*
G75*
G02*
X142149999Y-77350000I249999J0D01*
G01*
G37*
%TD.AperFunction*%
%TD*%
%TO.P,D5,2*%
%TO.N,D4*%
%TA.AperFunction,SMDPad,CuDef*%
G36*
G01*
X139649999Y-77350000D02*
X140550001Y-77350000D01*
G75*
G02*
X140800000Y-77599999I0J-249999D01*
G01*
X140800000Y-78250001D01*
G75*
G02*
X140550001Y-78500000I-249999J0D01*
G01*
X139649999Y-78500000D01*
G75*
G02*
X139400000Y-78250001I0J249999D01*
G01*
X139400000Y-77599999D01*
G75*
G02*
X139649999Y-77350000I249999J0D01*
G01*
G37*
%TD.AperFunction*%
%TO.P,D5,1*%
%TO.N,LED4*%
%TA.AperFunction,SMDPad,CuDef*%
G36*
G01*
X139649999Y-75300000D02*
X140550001Y-75300000D01*
G75*
G02*
X140800000Y-75549999I0J-249999D01*
G01*
X140800000Y-76200001D01*
G75*
G02*
X140550001Y-76450000I-249999J0D01*
G01*
X139649999Y-76450000D01*
G75*
G02*
X139400000Y-76200001I0J249999D01*
G01*
X139400000Y-75549999D01*
G75*
G02*
X139649999Y-75300000I249999J0D01*
G01*
G37*
%TD.AperFunction*%
%TD*%
%TO.P,D6,1*%
%TO.N,LED5*%
%TA.AperFunction,SMDPad,CuDef*%
G36*
G01*
X137149999Y-75300000D02*
X138050001Y-75300000D01*
G75*
G02*
X138300000Y-75549999I0J-249999D01*
G01*
X138300000Y-76200001D01*
G75*
G02*
X138050001Y-76450000I-249999J0D01*
G01*
X137149999Y-76450000D01*
G75*
G02*
X136900000Y-76200001I0J249999D01*
G01*
X136900000Y-75549999D01*
G75*
G02*
X137149999Y-75300000I249999J0D01*
G01*
G37*
%TD.AperFunction*%
%TO.P,D6,2*%
%TO.N,D5*%
%TA.AperFunction,SMDPad,CuDef*%
G36*
G01*
X137149999Y-77350000D02*
X138050001Y-77350000D01*
G75*
G02*
X138300000Y-77599999I0J-249999D01*
G01*
X138300000Y-78250001D01*
G75*
G02*
X138050001Y-78500000I-249999J0D01*
G01*
X137149999Y-78500000D01*
G75*
G02*
X136900000Y-78250001I0J249999D01*
G01*
X136900000Y-77599999D01*
G75*
G02*
X137149999Y-77350000I249999J0D01*
G01*
G37*
%TD.AperFunction*%
%TD*%
%TO.P,D7,2*%
%TO.N,D6*%
%TA.AperFunction,SMDPad,CuDef*%
G36*
G01*
X134549999Y-77350000D02*
X135450001Y-77350000D01*
G75*
G02*
X135700000Y-77599999I0J-249999D01*
G01*
X135700000Y-78250001D01*
G75*
G02*
X135450001Y-78500000I-249999J0D01*
G01*
X134549999Y-78500000D01*
G75*
G02*
X134300000Y-78250001I0J249999D01*
G01*
X134300000Y-77599999D01*
G75*
G02*
X134549999Y-77350000I249999J0D01*
G01*
G37*
%TD.AperFunction*%
%TO.P,D7,1*%
%TO.N,LED6*%
%TA.AperFunction,SMDPad,CuDef*%
G36*
G01*
X134549999Y-75300000D02*
X135450001Y-75300000D01*
G75*
G02*
X135700000Y-75549999I0J-249999D01*
G01*
X135700000Y-76200001D01*
G75*
G02*
X135450001Y-76450000I-249999J0D01*
G01*
X134549999Y-76450000D01*
G75*
G02*
X134300000Y-76200001I0J249999D01*
G01*
X134300000Y-75549999D01*
G75*
G02*
X134549999Y-75300000I249999J0D01*
G01*
G37*
%TD.AperFunction*%
%TD*%
%TO.P,D8,1*%
%TO.N,LED7*%
%TA.AperFunction,SMDPad,CuDef*%
G36*
G01*
X132049999Y-75300000D02*
X132950001Y-75300000D01*
G75*
G02*
X133200000Y-75549999I0J-249999D01*
G01*
X133200000Y-76200001D01*
G75*
G02*
X132950001Y-76450000I-249999J0D01*
G01*
X132049999Y-76450000D01*
G75*
G02*
X131800000Y-76200001I0J249999D01*
G01*
X131800000Y-75549999D01*
G75*
G02*
X132049999Y-75300000I249999J0D01*
G01*
G37*
%TD.AperFunction*%
%TO.P,D8,2*%
%TO.N,D7*%
%TA.AperFunction,SMDPad,CuDef*%
G36*
G01*
X132049999Y-77350000D02*
X132950001Y-77350000D01*
G75*
G02*
X133200000Y-77599999I0J-249999D01*
G01*
X133200000Y-78250001D01*
G75*
G02*
X132950001Y-78500000I-249999J0D01*
G01*
X132049999Y-78500000D01*
G75*
G02*
X131800000Y-78250001I0J249999D01*
G01*
X131800000Y-77599999D01*
G75*
G02*
X132049999Y-77350000I249999J0D01*
G01*
G37*
%TD.AperFunction*%
%TD*%
D10*
%TO.P,J1,1*%
%TO.N,D0*%
X151500000Y-84000000D03*
D11*
%TO.P,J1,2*%
%TO.N,D1*%
X148960000Y-84000000D03*
%TO.P,J1,3*%
%TO.N,D2*%
X146420000Y-84000000D03*
%TO.P,J1,4*%
%TO.N,D3*%
X143880000Y-84000000D03*
%TO.P,J1,5*%
%TO.N,D4*%
X141340000Y-84000000D03*
%TO.P,J1,6*%
%TO.N,D5*%
X138800000Y-84000000D03*
%TO.P,J1,7*%
%TO.N,D6*%
X136260000Y-84000000D03*
%TO.P,J1,8*%
%TO.N,D7*%
X133720000Y-84000000D03*
%TD*%
D10*
%TO.P,J2,1*%
%TO.N,GND*%
X155250000Y-82500000D03*
%TD*%
D12*
%TO.P,RN1,1*%
%TO.N,GND*%
X151600000Y-80500000D03*
D13*
%TO.P,RN1,2*%
%TO.N,LED0*%
X149060000Y-80500000D03*
%TO.P,RN1,3*%
%TO.N,LED1*%
X146520000Y-80500000D03*
%TO.P,RN1,4*%
%TO.N,LED2*%
X143980000Y-80500000D03*
%TO.P,RN1,5*%
%TO.N,LED3*%
X141440000Y-80500000D03*
%TO.P,RN1,6*%
%TO.N,LED4*%
X138900000Y-80500000D03*
%TO.P,RN1,7*%
%TO.N,LED5*%
X136360000Y-80500000D03*
%TO.P,RN1,8*%
%TO.N,LED6*%
X133820000Y-80500000D03*
%TO.P,RN1,9*%
%TO.N,LED7*%
X131280000Y-80500000D03*
%TD*%
D14*
%TO.N,D7*%
X132500000Y-82780000D02*
X132500000Y-77925000D01*
X133720000Y-84000000D02*
X132500000Y-82780000D01*
%TO.N,LED0*%
X149060000Y-77115000D02*
X150300000Y-75875000D01*
X149060000Y-80500000D02*
X149060000Y-77115000D01*
%TO.N,LED1*%
X146520000Y-77055000D02*
X147700000Y-75875000D01*
X146520000Y-80500000D02*
X146520000Y-77055000D01*
%TO.N,D6*%
X135234999Y-78159999D02*
X135000000Y-77925000D01*
X135234999Y-82974999D02*
X135234999Y-78159999D01*
X136260000Y-84000000D02*
X135234999Y-82974999D01*
%TO.N,D5*%
X137774999Y-78099999D02*
X137600000Y-77925000D01*
X137774999Y-82974999D02*
X137774999Y-78099999D01*
X138800000Y-84000000D02*
X137774999Y-82974999D01*
%TO.N,LED2*%
X143980000Y-77095000D02*
X145200000Y-75875000D01*
X143980000Y-80500000D02*
X143980000Y-77095000D01*
%TO.N,LED3*%
X141440000Y-77035000D02*
X142600000Y-75875000D01*
X141440000Y-80500000D02*
X141440000Y-77035000D01*
%TO.N,D4*%
X140314999Y-78139999D02*
X140100000Y-77925000D01*
X140314999Y-82974999D02*
X140314999Y-78139999D01*
X141340000Y-84000000D02*
X140314999Y-82974999D01*
%TO.N,D3*%
X142854999Y-78179999D02*
X142600000Y-77925000D01*
X142854999Y-82974999D02*
X142854999Y-78179999D01*
X143880000Y-84000000D02*
X142854999Y-82974999D01*
%TO.N,LED4*%
X138900000Y-77075000D02*
X140100000Y-75875000D01*
X138900000Y-80500000D02*
X138900000Y-77075000D01*
%TO.N,LED5*%
X136360000Y-77115000D02*
X137600000Y-75875000D01*
X136360000Y-80500000D02*
X136360000Y-77115000D01*
%TO.N,D2*%
X145394999Y-78119999D02*
X145200000Y-77925000D01*
X145394999Y-82974999D02*
X145394999Y-78119999D01*
X146420000Y-84000000D02*
X145394999Y-82974999D01*
%TO.N,D1*%
X147934999Y-78159999D02*
X147700000Y-77925000D01*
X147934999Y-82974999D02*
X147934999Y-78159999D01*
X148960000Y-84000000D02*
X147934999Y-82974999D01*
%TO.N,LED6*%
X133820000Y-77055000D02*
X135000000Y-75875000D01*
X133820000Y-80500000D02*
X133820000Y-77055000D01*
%TO.N,LED7*%
X131280000Y-77095000D02*
X132500000Y-75875000D01*
X131280000Y-80500000D02*
X131280000Y-77095000D01*
%TO.N,D0*%
X150300000Y-82800000D02*
X150300000Y-77925000D01*
X151500000Y-84000000D02*
X150300000Y-82800000D01*
%TD*%
M02*
