%TF.GenerationSoftware,KiCad,Pcbnew,(5.1.9)-1*%
%TF.CreationDate,2021-02-04T07:59:36-05:00*%
%TF.ProjectId,NerdConsole_BreadBoard_VertMonitor8,4e657264-436f-46e7-936f-6c655f427265,rev?*%
%TF.SameCoordinates,Original*%
%TF.FileFunction,Legend,Top*%
%TF.FilePolarity,Positive*%
%FSLAX46Y46*%
G04 Gerber Fmt 4.6, Leading zero omitted, Abs format (unit mm)*
G04 Created by KiCad (PCBNEW (5.1.9)-1) date 2021-02-04 07:59:36*
%MOMM*%
%LPD*%
G01*
G04 APERTURE LIST*
%ADD10C,0.150000*%
%ADD11C,0.120000*%
G04 APERTURE END LIST*
D10*
X152250000Y-76011904D02*
X152202380Y-76107142D01*
X152202380Y-76250000D01*
X152250000Y-76392857D01*
X152345238Y-76488095D01*
X152440476Y-76535714D01*
X152630952Y-76583333D01*
X152773809Y-76583333D01*
X152964285Y-76535714D01*
X153059523Y-76488095D01*
X153154761Y-76392857D01*
X153202380Y-76250000D01*
X153202380Y-76154761D01*
X153154761Y-76011904D01*
X153107142Y-75964285D01*
X152773809Y-75964285D01*
X152773809Y-76154761D01*
X153202380Y-75535714D02*
X152202380Y-75535714D01*
X153202380Y-74964285D01*
X152202380Y-74964285D01*
X153202380Y-74488095D02*
X152202380Y-74488095D01*
X152202380Y-74250000D01*
X152250000Y-74107142D01*
X152345238Y-74011904D01*
X152440476Y-73964285D01*
X152630952Y-73916666D01*
X152773809Y-73916666D01*
X152964285Y-73964285D01*
X153059523Y-74011904D01*
X153154761Y-74107142D01*
X153202380Y-74250000D01*
X153202380Y-74488095D01*
X137838095Y-73852380D02*
X137361904Y-73852380D01*
X137314285Y-74328571D01*
X137361904Y-74280952D01*
X137457142Y-74233333D01*
X137695238Y-74233333D01*
X137790476Y-74280952D01*
X137838095Y-74328571D01*
X137885714Y-74423809D01*
X137885714Y-74661904D01*
X137838095Y-74757142D01*
X137790476Y-74804761D01*
X137695238Y-74852380D01*
X137457142Y-74852380D01*
X137361904Y-74804761D01*
X137314285Y-74757142D01*
X140240476Y-74185714D02*
X140240476Y-74852380D01*
X140002380Y-73804761D02*
X139764285Y-74519047D01*
X140383333Y-74519047D01*
X142266666Y-73852380D02*
X142885714Y-73852380D01*
X142552380Y-74233333D01*
X142695238Y-74233333D01*
X142790476Y-74280952D01*
X142838095Y-74328571D01*
X142885714Y-74423809D01*
X142885714Y-74661904D01*
X142838095Y-74757142D01*
X142790476Y-74804761D01*
X142695238Y-74852380D01*
X142409523Y-74852380D01*
X142314285Y-74804761D01*
X142266666Y-74757142D01*
X144914285Y-73947619D02*
X144961904Y-73900000D01*
X145057142Y-73852380D01*
X145295238Y-73852380D01*
X145390476Y-73900000D01*
X145438095Y-73947619D01*
X145485714Y-74042857D01*
X145485714Y-74138095D01*
X145438095Y-74280952D01*
X144866666Y-74852380D01*
X145485714Y-74852380D01*
X147985714Y-74852380D02*
X147414285Y-74852380D01*
X147700000Y-74852380D02*
X147700000Y-73852380D01*
X147604761Y-73995238D01*
X147509523Y-74090476D01*
X147414285Y-74138095D01*
X132216666Y-73852380D02*
X132883333Y-73852380D01*
X132454761Y-74852380D01*
X135190476Y-73852380D02*
X135000000Y-73852380D01*
X134904761Y-73900000D01*
X134857142Y-73947619D01*
X134761904Y-74090476D01*
X134714285Y-74280952D01*
X134714285Y-74661904D01*
X134761904Y-74757142D01*
X134809523Y-74804761D01*
X134904761Y-74852380D01*
X135095238Y-74852380D01*
X135190476Y-74804761D01*
X135238095Y-74757142D01*
X135285714Y-74661904D01*
X135285714Y-74423809D01*
X135238095Y-74328571D01*
X135190476Y-74280952D01*
X135095238Y-74233333D01*
X134904761Y-74233333D01*
X134809523Y-74280952D01*
X134761904Y-74328571D01*
X134714285Y-74423809D01*
X150252380Y-73852380D02*
X150347619Y-73852380D01*
X150442857Y-73900000D01*
X150490476Y-73947619D01*
X150538095Y-74042857D01*
X150585714Y-74233333D01*
X150585714Y-74471428D01*
X150538095Y-74661904D01*
X150490476Y-74757142D01*
X150442857Y-74804761D01*
X150347619Y-74852380D01*
X150252380Y-74852380D01*
X150157142Y-74804761D01*
X150109523Y-74757142D01*
X150061904Y-74661904D01*
X150014285Y-74471428D01*
X150014285Y-74233333D01*
X150061904Y-74042857D01*
X150109523Y-73947619D01*
X150157142Y-73900000D01*
X150252380Y-73852380D01*
D11*
%TO.C,D1*%
X149340000Y-75040000D02*
X149340000Y-77900000D01*
X151260000Y-75040000D02*
X149340000Y-75040000D01*
X151260000Y-77900000D02*
X151260000Y-75040000D01*
%TO.C,D2*%
X148660000Y-77900000D02*
X148660000Y-75040000D01*
X148660000Y-75040000D02*
X146740000Y-75040000D01*
X146740000Y-75040000D02*
X146740000Y-77900000D01*
%TO.C,D3*%
X144240000Y-75040000D02*
X144240000Y-77900000D01*
X146160000Y-75040000D02*
X144240000Y-75040000D01*
X146160000Y-77900000D02*
X146160000Y-75040000D01*
%TO.C,D4*%
X143560000Y-77900000D02*
X143560000Y-75040000D01*
X143560000Y-75040000D02*
X141640000Y-75040000D01*
X141640000Y-75040000D02*
X141640000Y-77900000D01*
%TO.C,D5*%
X139140000Y-75040000D02*
X139140000Y-77900000D01*
X141060000Y-75040000D02*
X139140000Y-75040000D01*
X141060000Y-77900000D02*
X141060000Y-75040000D01*
%TO.C,D6*%
X138560000Y-77900000D02*
X138560000Y-75040000D01*
X138560000Y-75040000D02*
X136640000Y-75040000D01*
X136640000Y-75040000D02*
X136640000Y-77900000D01*
%TO.C,D7*%
X134040000Y-75040000D02*
X134040000Y-77900000D01*
X135960000Y-75040000D02*
X134040000Y-75040000D01*
X135960000Y-77900000D02*
X135960000Y-75040000D01*
%TO.C,D8*%
X133460000Y-77900000D02*
X133460000Y-75040000D01*
X133460000Y-75040000D02*
X131540000Y-75040000D01*
X131540000Y-75040000D02*
X131540000Y-77900000D01*
%TO.C,J1*%
X152830000Y-85440000D02*
X132390000Y-85440000D01*
X132390000Y-85440000D02*
X132390000Y-88100000D01*
X132390000Y-88100000D02*
X152830000Y-88100000D01*
X152830000Y-88100000D02*
X152830000Y-85440000D01*
X151880000Y-88100000D02*
X151880000Y-94100000D01*
X151880000Y-94100000D02*
X151120000Y-94100000D01*
X151120000Y-94100000D02*
X151120000Y-88100000D01*
X151820000Y-88100000D02*
X151820000Y-94100000D01*
X151700000Y-88100000D02*
X151700000Y-94100000D01*
X151580000Y-88100000D02*
X151580000Y-94100000D01*
X151460000Y-88100000D02*
X151460000Y-94100000D01*
X151340000Y-88100000D02*
X151340000Y-94100000D01*
X151220000Y-88100000D02*
X151220000Y-94100000D01*
X151880000Y-85110000D02*
X151880000Y-85440000D01*
X151120000Y-85110000D02*
X151120000Y-85440000D01*
X150230000Y-85440000D02*
X150230000Y-88100000D01*
X149340000Y-88100000D02*
X149340000Y-94100000D01*
X149340000Y-94100000D02*
X148580000Y-94100000D01*
X148580000Y-94100000D02*
X148580000Y-88100000D01*
X149340000Y-85042929D02*
X149340000Y-85440000D01*
X148580000Y-85042929D02*
X148580000Y-85440000D01*
X147690000Y-85440000D02*
X147690000Y-88100000D01*
X146800000Y-88100000D02*
X146800000Y-94100000D01*
X146800000Y-94100000D02*
X146040000Y-94100000D01*
X146040000Y-94100000D02*
X146040000Y-88100000D01*
X146800000Y-85042929D02*
X146800000Y-85440000D01*
X146040000Y-85042929D02*
X146040000Y-85440000D01*
X145150000Y-85440000D02*
X145150000Y-88100000D01*
X144260000Y-88100000D02*
X144260000Y-94100000D01*
X144260000Y-94100000D02*
X143500000Y-94100000D01*
X143500000Y-94100000D02*
X143500000Y-88100000D01*
X144260000Y-85042929D02*
X144260000Y-85440000D01*
X143500000Y-85042929D02*
X143500000Y-85440000D01*
X142610000Y-85440000D02*
X142610000Y-88100000D01*
X141720000Y-88100000D02*
X141720000Y-94100000D01*
X141720000Y-94100000D02*
X140960000Y-94100000D01*
X140960000Y-94100000D02*
X140960000Y-88100000D01*
X141720000Y-85042929D02*
X141720000Y-85440000D01*
X140960000Y-85042929D02*
X140960000Y-85440000D01*
X140070000Y-85440000D02*
X140070000Y-88100000D01*
X139180000Y-88100000D02*
X139180000Y-94100000D01*
X139180000Y-94100000D02*
X138420000Y-94100000D01*
X138420000Y-94100000D02*
X138420000Y-88100000D01*
X139180000Y-85042929D02*
X139180000Y-85440000D01*
X138420000Y-85042929D02*
X138420000Y-85440000D01*
X137530000Y-85440000D02*
X137530000Y-88100000D01*
X136640000Y-88100000D02*
X136640000Y-94100000D01*
X136640000Y-94100000D02*
X135880000Y-94100000D01*
X135880000Y-94100000D02*
X135880000Y-88100000D01*
X136640000Y-85042929D02*
X136640000Y-85440000D01*
X135880000Y-85042929D02*
X135880000Y-85440000D01*
X134990000Y-85440000D02*
X134990000Y-88100000D01*
X134100000Y-88100000D02*
X134100000Y-94100000D01*
X134100000Y-94100000D02*
X133340000Y-94100000D01*
X133340000Y-94100000D02*
X133340000Y-88100000D01*
X134100000Y-85042929D02*
X134100000Y-85440000D01*
X133340000Y-85042929D02*
X133340000Y-85440000D01*
X151500000Y-82730000D02*
X152770000Y-82730000D01*
X152770000Y-82730000D02*
X152770000Y-84000000D01*
%TO.C,J2*%
X156460000Y-72410000D02*
X156460000Y-81040000D01*
X156344545Y-72410000D02*
X156344545Y-81040000D01*
X156229090Y-72410000D02*
X156229090Y-81040000D01*
X156113635Y-72410000D02*
X156113635Y-81040000D01*
X155998180Y-72410000D02*
X155998180Y-81040000D01*
X155882725Y-72410000D02*
X155882725Y-81040000D01*
X155767270Y-72410000D02*
X155767270Y-81040000D01*
X155651815Y-72410000D02*
X155651815Y-81040000D01*
X155536360Y-72410000D02*
X155536360Y-81040000D01*
X155420905Y-72410000D02*
X155420905Y-81040000D01*
X155305450Y-72410000D02*
X155305450Y-81040000D01*
X155189995Y-72410000D02*
X155189995Y-81040000D01*
X155074540Y-72410000D02*
X155074540Y-81040000D01*
X154959085Y-72410000D02*
X154959085Y-81040000D01*
X154843630Y-72410000D02*
X154843630Y-81040000D01*
X154728175Y-72410000D02*
X154728175Y-81040000D01*
X154612720Y-72410000D02*
X154612720Y-81040000D01*
X154497265Y-72410000D02*
X154497265Y-81040000D01*
X154381810Y-72410000D02*
X154381810Y-81040000D01*
X154266355Y-72410000D02*
X154266355Y-81040000D01*
X154150900Y-72410000D02*
X154150900Y-81040000D01*
X154035445Y-72410000D02*
X154035445Y-81040000D01*
X155610000Y-81040000D02*
X155610000Y-81390000D01*
X154890000Y-81040000D02*
X154890000Y-81390000D01*
X156580000Y-72410000D02*
X156580000Y-81040000D01*
X156580000Y-81040000D02*
X153920000Y-81040000D01*
X153920000Y-72410000D02*
X153920000Y-81040000D01*
X156580000Y-72410000D02*
X153920000Y-72410000D01*
X156580000Y-83610000D02*
X155250000Y-83610000D01*
X156580000Y-82500000D02*
X156580000Y-83610000D01*
%TO.C,RN1*%
X153040000Y-81900000D02*
X153040000Y-79100000D01*
X153040000Y-79100000D02*
X129840000Y-79100000D01*
X129840000Y-79100000D02*
X129840000Y-81900000D01*
X129840000Y-81900000D02*
X153040000Y-81900000D01*
X150330000Y-81900000D02*
X150330000Y-79100000D01*
%TO.C,D1*%
D10*
X149511904Y-82702380D02*
X149511904Y-81702380D01*
X149750000Y-81702380D01*
X149892857Y-81750000D01*
X149988095Y-81845238D01*
X150035714Y-81940476D01*
X150083333Y-82130952D01*
X150083333Y-82273809D01*
X150035714Y-82464285D01*
X149988095Y-82559523D01*
X149892857Y-82654761D01*
X149750000Y-82702380D01*
X149511904Y-82702380D01*
X151035714Y-82702380D02*
X150464285Y-82702380D01*
X150750000Y-82702380D02*
X150750000Y-81702380D01*
X150654761Y-81845238D01*
X150559523Y-81940476D01*
X150464285Y-81988095D01*
%TO.C,D2*%
X147011904Y-82702380D02*
X147011904Y-81702380D01*
X147250000Y-81702380D01*
X147392857Y-81750000D01*
X147488095Y-81845238D01*
X147535714Y-81940476D01*
X147583333Y-82130952D01*
X147583333Y-82273809D01*
X147535714Y-82464285D01*
X147488095Y-82559523D01*
X147392857Y-82654761D01*
X147250000Y-82702380D01*
X147011904Y-82702380D01*
X147964285Y-81797619D02*
X148011904Y-81750000D01*
X148107142Y-81702380D01*
X148345238Y-81702380D01*
X148440476Y-81750000D01*
X148488095Y-81797619D01*
X148535714Y-81892857D01*
X148535714Y-81988095D01*
X148488095Y-82130952D01*
X147916666Y-82702380D01*
X148535714Y-82702380D01*
%TO.C,D3*%
X144511904Y-82702380D02*
X144511904Y-81702380D01*
X144750000Y-81702380D01*
X144892857Y-81750000D01*
X144988095Y-81845238D01*
X145035714Y-81940476D01*
X145083333Y-82130952D01*
X145083333Y-82273809D01*
X145035714Y-82464285D01*
X144988095Y-82559523D01*
X144892857Y-82654761D01*
X144750000Y-82702380D01*
X144511904Y-82702380D01*
X145416666Y-81702380D02*
X146035714Y-81702380D01*
X145702380Y-82083333D01*
X145845238Y-82083333D01*
X145940476Y-82130952D01*
X145988095Y-82178571D01*
X146035714Y-82273809D01*
X146035714Y-82511904D01*
X145988095Y-82607142D01*
X145940476Y-82654761D01*
X145845238Y-82702380D01*
X145559523Y-82702380D01*
X145464285Y-82654761D01*
X145416666Y-82607142D01*
%TO.C,D4*%
X142011904Y-82702380D02*
X142011904Y-81702380D01*
X142250000Y-81702380D01*
X142392857Y-81750000D01*
X142488095Y-81845238D01*
X142535714Y-81940476D01*
X142583333Y-82130952D01*
X142583333Y-82273809D01*
X142535714Y-82464285D01*
X142488095Y-82559523D01*
X142392857Y-82654761D01*
X142250000Y-82702380D01*
X142011904Y-82702380D01*
X143440476Y-82035714D02*
X143440476Y-82702380D01*
X143202380Y-81654761D02*
X142964285Y-82369047D01*
X143583333Y-82369047D01*
%TO.C,D5*%
X139511904Y-82702380D02*
X139511904Y-81702380D01*
X139750000Y-81702380D01*
X139892857Y-81750000D01*
X139988095Y-81845238D01*
X140035714Y-81940476D01*
X140083333Y-82130952D01*
X140083333Y-82273809D01*
X140035714Y-82464285D01*
X139988095Y-82559523D01*
X139892857Y-82654761D01*
X139750000Y-82702380D01*
X139511904Y-82702380D01*
X140988095Y-81702380D02*
X140511904Y-81702380D01*
X140464285Y-82178571D01*
X140511904Y-82130952D01*
X140607142Y-82083333D01*
X140845238Y-82083333D01*
X140940476Y-82130952D01*
X140988095Y-82178571D01*
X141035714Y-82273809D01*
X141035714Y-82511904D01*
X140988095Y-82607142D01*
X140940476Y-82654761D01*
X140845238Y-82702380D01*
X140607142Y-82702380D01*
X140511904Y-82654761D01*
X140464285Y-82607142D01*
%TO.C,D6*%
X137011904Y-82702380D02*
X137011904Y-81702380D01*
X137250000Y-81702380D01*
X137392857Y-81750000D01*
X137488095Y-81845238D01*
X137535714Y-81940476D01*
X137583333Y-82130952D01*
X137583333Y-82273809D01*
X137535714Y-82464285D01*
X137488095Y-82559523D01*
X137392857Y-82654761D01*
X137250000Y-82702380D01*
X137011904Y-82702380D01*
X138440476Y-81702380D02*
X138250000Y-81702380D01*
X138154761Y-81750000D01*
X138107142Y-81797619D01*
X138011904Y-81940476D01*
X137964285Y-82130952D01*
X137964285Y-82511904D01*
X138011904Y-82607142D01*
X138059523Y-82654761D01*
X138154761Y-82702380D01*
X138345238Y-82702380D01*
X138440476Y-82654761D01*
X138488095Y-82607142D01*
X138535714Y-82511904D01*
X138535714Y-82273809D01*
X138488095Y-82178571D01*
X138440476Y-82130952D01*
X138345238Y-82083333D01*
X138154761Y-82083333D01*
X138059523Y-82130952D01*
X138011904Y-82178571D01*
X137964285Y-82273809D01*
%TO.C,D7*%
X134511904Y-82702380D02*
X134511904Y-81702380D01*
X134750000Y-81702380D01*
X134892857Y-81750000D01*
X134988095Y-81845238D01*
X135035714Y-81940476D01*
X135083333Y-82130952D01*
X135083333Y-82273809D01*
X135035714Y-82464285D01*
X134988095Y-82559523D01*
X134892857Y-82654761D01*
X134750000Y-82702380D01*
X134511904Y-82702380D01*
X135416666Y-81702380D02*
X136083333Y-81702380D01*
X135654761Y-82702380D01*
%TO.C,D8*%
X131761904Y-82702380D02*
X131761904Y-81702380D01*
X132000000Y-81702380D01*
X132142857Y-81750000D01*
X132238095Y-81845238D01*
X132285714Y-81940476D01*
X132333333Y-82130952D01*
X132333333Y-82273809D01*
X132285714Y-82464285D01*
X132238095Y-82559523D01*
X132142857Y-82654761D01*
X132000000Y-82702380D01*
X131761904Y-82702380D01*
X132904761Y-82130952D02*
X132809523Y-82083333D01*
X132761904Y-82035714D01*
X132714285Y-81940476D01*
X132714285Y-81892857D01*
X132761904Y-81797619D01*
X132809523Y-81750000D01*
X132904761Y-81702380D01*
X133095238Y-81702380D01*
X133190476Y-81750000D01*
X133238095Y-81797619D01*
X133285714Y-81892857D01*
X133285714Y-81940476D01*
X133238095Y-82035714D01*
X133190476Y-82083333D01*
X133095238Y-82130952D01*
X132904761Y-82130952D01*
X132809523Y-82178571D01*
X132761904Y-82226190D01*
X132714285Y-82321428D01*
X132714285Y-82511904D01*
X132761904Y-82607142D01*
X132809523Y-82654761D01*
X132904761Y-82702380D01*
X133095238Y-82702380D01*
X133190476Y-82654761D01*
X133238095Y-82607142D01*
X133285714Y-82511904D01*
X133285714Y-82321428D01*
X133238095Y-82226190D01*
X133190476Y-82178571D01*
X133095238Y-82130952D01*
%TO.C,J1*%
X153436666Y-86952380D02*
X153436666Y-87666666D01*
X153389047Y-87809523D01*
X153293809Y-87904761D01*
X153150952Y-87952380D01*
X153055714Y-87952380D01*
X154436666Y-87952380D02*
X153865238Y-87952380D01*
X154150952Y-87952380D02*
X154150952Y-86952380D01*
X154055714Y-87095238D01*
X153960476Y-87190476D01*
X153865238Y-87238095D01*
%TO.C,J2*%
X155916666Y-84452380D02*
X155916666Y-85166666D01*
X155869047Y-85309523D01*
X155773809Y-85404761D01*
X155630952Y-85452380D01*
X155535714Y-85452380D01*
X156345238Y-84547619D02*
X156392857Y-84500000D01*
X156488095Y-84452380D01*
X156726190Y-84452380D01*
X156821428Y-84500000D01*
X156869047Y-84547619D01*
X156916666Y-84642857D01*
X156916666Y-84738095D01*
X156869047Y-84880952D01*
X156297619Y-85452380D01*
X156916666Y-85452380D01*
%TO.C,RN1*%
X130702380Y-77940476D02*
X130226190Y-78273809D01*
X130702380Y-78511904D02*
X129702380Y-78511904D01*
X129702380Y-78130952D01*
X129750000Y-78035714D01*
X129797619Y-77988095D01*
X129892857Y-77940476D01*
X130035714Y-77940476D01*
X130130952Y-77988095D01*
X130178571Y-78035714D01*
X130226190Y-78130952D01*
X130226190Y-78511904D01*
X130702380Y-77511904D02*
X129702380Y-77511904D01*
X130702380Y-76940476D01*
X129702380Y-76940476D01*
X130702380Y-75940476D02*
X130702380Y-76511904D01*
X130702380Y-76226190D02*
X129702380Y-76226190D01*
X129845238Y-76321428D01*
X129940476Y-76416666D01*
X129988095Y-76511904D01*
%TD*%
M02*
