%TF.GenerationSoftware,KiCad,Pcbnew,(5.1.9)-1*%
%TF.CreationDate,2021-02-04T07:57:01-05:00*%
%TF.ProjectId,NerdConsole_BreadBoard_BridgeMonitor16,4e657264-436f-46e7-936f-6c655f427265,rev?*%
%TF.SameCoordinates,Original*%
%TF.FileFunction,Legend,Bot*%
%TF.FilePolarity,Positive*%
%FSLAX46Y46*%
G04 Gerber Fmt 4.6, Leading zero omitted, Abs format (unit mm)*
G04 Created by KiCad (PCBNEW (5.1.9)-1) date 2021-02-04 07:57:01*
%MOMM*%
%LPD*%
G01*
G04 APERTURE LIST*
%ADD10C,0.150000*%
%ADD11C,0.120000*%
G04 APERTURE END LIST*
D10*
X119702380Y-69035714D02*
X118702380Y-69035714D01*
X119702380Y-69607142D01*
X118702380Y-69607142D01*
X119654761Y-70464285D02*
X119702380Y-70369047D01*
X119702380Y-70178571D01*
X119654761Y-70083333D01*
X119559523Y-70035714D01*
X119178571Y-70035714D01*
X119083333Y-70083333D01*
X119035714Y-70178571D01*
X119035714Y-70369047D01*
X119083333Y-70464285D01*
X119178571Y-70511904D01*
X119273809Y-70511904D01*
X119369047Y-70035714D01*
X119702380Y-70940476D02*
X119035714Y-70940476D01*
X119226190Y-70940476D02*
X119130952Y-70988095D01*
X119083333Y-71035714D01*
X119035714Y-71130952D01*
X119035714Y-71226190D01*
X119702380Y-71988095D02*
X118702380Y-71988095D01*
X119654761Y-71988095D02*
X119702380Y-71892857D01*
X119702380Y-71702380D01*
X119654761Y-71607142D01*
X119607142Y-71559523D01*
X119511904Y-71511904D01*
X119226190Y-71511904D01*
X119130952Y-71559523D01*
X119083333Y-71607142D01*
X119035714Y-71702380D01*
X119035714Y-71892857D01*
X119083333Y-71988095D01*
X119607142Y-73035714D02*
X119654761Y-72988095D01*
X119702380Y-72845238D01*
X119702380Y-72750000D01*
X119654761Y-72607142D01*
X119559523Y-72511904D01*
X119464285Y-72464285D01*
X119273809Y-72416666D01*
X119130952Y-72416666D01*
X118940476Y-72464285D01*
X118845238Y-72511904D01*
X118750000Y-72607142D01*
X118702380Y-72750000D01*
X118702380Y-72845238D01*
X118750000Y-72988095D01*
X118797619Y-73035714D01*
X119702380Y-73607142D02*
X119654761Y-73511904D01*
X119607142Y-73464285D01*
X119511904Y-73416666D01*
X119226190Y-73416666D01*
X119130952Y-73464285D01*
X119083333Y-73511904D01*
X119035714Y-73607142D01*
X119035714Y-73750000D01*
X119083333Y-73845238D01*
X119130952Y-73892857D01*
X119226190Y-73940476D01*
X119511904Y-73940476D01*
X119607142Y-73892857D01*
X119654761Y-73845238D01*
X119702380Y-73750000D01*
X119702380Y-73607142D01*
X119035714Y-74369047D02*
X119702380Y-74369047D01*
X119130952Y-74369047D02*
X119083333Y-74416666D01*
X119035714Y-74511904D01*
X119035714Y-74654761D01*
X119083333Y-74750000D01*
X119178571Y-74797619D01*
X119702380Y-74797619D01*
X119654761Y-75226190D02*
X119702380Y-75321428D01*
X119702380Y-75511904D01*
X119654761Y-75607142D01*
X119559523Y-75654761D01*
X119511904Y-75654761D01*
X119416666Y-75607142D01*
X119369047Y-75511904D01*
X119369047Y-75369047D01*
X119321428Y-75273809D01*
X119226190Y-75226190D01*
X119178571Y-75226190D01*
X119083333Y-75273809D01*
X119035714Y-75369047D01*
X119035714Y-75511904D01*
X119083333Y-75607142D01*
X119702380Y-76226190D02*
X119654761Y-76130952D01*
X119607142Y-76083333D01*
X119511904Y-76035714D01*
X119226190Y-76035714D01*
X119130952Y-76083333D01*
X119083333Y-76130952D01*
X119035714Y-76226190D01*
X119035714Y-76369047D01*
X119083333Y-76464285D01*
X119130952Y-76511904D01*
X119226190Y-76559523D01*
X119511904Y-76559523D01*
X119607142Y-76511904D01*
X119654761Y-76464285D01*
X119702380Y-76369047D01*
X119702380Y-76226190D01*
X119702380Y-77130952D02*
X119654761Y-77035714D01*
X119559523Y-76988095D01*
X118702380Y-76988095D01*
X119654761Y-77892857D02*
X119702380Y-77797619D01*
X119702380Y-77607142D01*
X119654761Y-77511904D01*
X119559523Y-77464285D01*
X119178571Y-77464285D01*
X119083333Y-77511904D01*
X119035714Y-77607142D01*
X119035714Y-77797619D01*
X119083333Y-77892857D01*
X119178571Y-77940476D01*
X119273809Y-77940476D01*
X119369047Y-77464285D01*
X119178571Y-79464285D02*
X119226190Y-79607142D01*
X119273809Y-79654761D01*
X119369047Y-79702380D01*
X119511904Y-79702380D01*
X119607142Y-79654761D01*
X119654761Y-79607142D01*
X119702380Y-79511904D01*
X119702380Y-79130952D01*
X118702380Y-79130952D01*
X118702380Y-79464285D01*
X118750000Y-79559523D01*
X118797619Y-79607142D01*
X118892857Y-79654761D01*
X118988095Y-79654761D01*
X119083333Y-79607142D01*
X119130952Y-79559523D01*
X119178571Y-79464285D01*
X119178571Y-79130952D01*
X119702380Y-80130952D02*
X119035714Y-80130952D01*
X119226190Y-80130952D02*
X119130952Y-80178571D01*
X119083333Y-80226190D01*
X119035714Y-80321428D01*
X119035714Y-80416666D01*
X119654761Y-81130952D02*
X119702380Y-81035714D01*
X119702380Y-80845238D01*
X119654761Y-80750000D01*
X119559523Y-80702380D01*
X119178571Y-80702380D01*
X119083333Y-80750000D01*
X119035714Y-80845238D01*
X119035714Y-81035714D01*
X119083333Y-81130952D01*
X119178571Y-81178571D01*
X119273809Y-81178571D01*
X119369047Y-80702380D01*
X119702380Y-82035714D02*
X119178571Y-82035714D01*
X119083333Y-81988095D01*
X119035714Y-81892857D01*
X119035714Y-81702380D01*
X119083333Y-81607142D01*
X119654761Y-82035714D02*
X119702380Y-81940476D01*
X119702380Y-81702380D01*
X119654761Y-81607142D01*
X119559523Y-81559523D01*
X119464285Y-81559523D01*
X119369047Y-81607142D01*
X119321428Y-81702380D01*
X119321428Y-81940476D01*
X119273809Y-82035714D01*
X119702380Y-82940476D02*
X118702380Y-82940476D01*
X119654761Y-82940476D02*
X119702380Y-82845238D01*
X119702380Y-82654761D01*
X119654761Y-82559523D01*
X119607142Y-82511904D01*
X119511904Y-82464285D01*
X119226190Y-82464285D01*
X119130952Y-82511904D01*
X119083333Y-82559523D01*
X119035714Y-82654761D01*
X119035714Y-82845238D01*
X119083333Y-82940476D01*
X119178571Y-83750000D02*
X119226190Y-83892857D01*
X119273809Y-83940476D01*
X119369047Y-83988095D01*
X119511904Y-83988095D01*
X119607142Y-83940476D01*
X119654761Y-83892857D01*
X119702380Y-83797619D01*
X119702380Y-83416666D01*
X118702380Y-83416666D01*
X118702380Y-83750000D01*
X118750000Y-83845238D01*
X118797619Y-83892857D01*
X118892857Y-83940476D01*
X118988095Y-83940476D01*
X119083333Y-83892857D01*
X119130952Y-83845238D01*
X119178571Y-83750000D01*
X119178571Y-83416666D01*
X119702380Y-84559523D02*
X119654761Y-84464285D01*
X119607142Y-84416666D01*
X119511904Y-84369047D01*
X119226190Y-84369047D01*
X119130952Y-84416666D01*
X119083333Y-84464285D01*
X119035714Y-84559523D01*
X119035714Y-84702380D01*
X119083333Y-84797619D01*
X119130952Y-84845238D01*
X119226190Y-84892857D01*
X119511904Y-84892857D01*
X119607142Y-84845238D01*
X119654761Y-84797619D01*
X119702380Y-84702380D01*
X119702380Y-84559523D01*
X119702380Y-85750000D02*
X119178571Y-85750000D01*
X119083333Y-85702380D01*
X119035714Y-85607142D01*
X119035714Y-85416666D01*
X119083333Y-85321428D01*
X119654761Y-85750000D02*
X119702380Y-85654761D01*
X119702380Y-85416666D01*
X119654761Y-85321428D01*
X119559523Y-85273809D01*
X119464285Y-85273809D01*
X119369047Y-85321428D01*
X119321428Y-85416666D01*
X119321428Y-85654761D01*
X119273809Y-85750000D01*
X119702380Y-86226190D02*
X119035714Y-86226190D01*
X119226190Y-86226190D02*
X119130952Y-86273809D01*
X119083333Y-86321428D01*
X119035714Y-86416666D01*
X119035714Y-86511904D01*
X119702380Y-87273809D02*
X118702380Y-87273809D01*
X119654761Y-87273809D02*
X119702380Y-87178571D01*
X119702380Y-86988095D01*
X119654761Y-86892857D01*
X119607142Y-86845238D01*
X119511904Y-86797619D01*
X119226190Y-86797619D01*
X119130952Y-86845238D01*
X119083333Y-86892857D01*
X119035714Y-86988095D01*
X119035714Y-87178571D01*
X119083333Y-87273809D01*
X119178571Y-88845238D02*
X119226190Y-88988095D01*
X119273809Y-89035714D01*
X119369047Y-89083333D01*
X119511904Y-89083333D01*
X119607142Y-89035714D01*
X119654761Y-88988095D01*
X119702380Y-88892857D01*
X119702380Y-88511904D01*
X118702380Y-88511904D01*
X118702380Y-88845238D01*
X118750000Y-88940476D01*
X118797619Y-88988095D01*
X118892857Y-89035714D01*
X118988095Y-89035714D01*
X119083333Y-88988095D01*
X119130952Y-88940476D01*
X119178571Y-88845238D01*
X119178571Y-88511904D01*
X119702380Y-89511904D02*
X119035714Y-89511904D01*
X119226190Y-89511904D02*
X119130952Y-89559523D01*
X119083333Y-89607142D01*
X119035714Y-89702380D01*
X119035714Y-89797619D01*
X119702380Y-90130952D02*
X119035714Y-90130952D01*
X118702380Y-90130952D02*
X118750000Y-90083333D01*
X118797619Y-90130952D01*
X118750000Y-90178571D01*
X118702380Y-90130952D01*
X118797619Y-90130952D01*
X119702380Y-91035714D02*
X118702380Y-91035714D01*
X119654761Y-91035714D02*
X119702380Y-90940476D01*
X119702380Y-90750000D01*
X119654761Y-90654761D01*
X119607142Y-90607142D01*
X119511904Y-90559523D01*
X119226190Y-90559523D01*
X119130952Y-90607142D01*
X119083333Y-90654761D01*
X119035714Y-90750000D01*
X119035714Y-90940476D01*
X119083333Y-91035714D01*
X119035714Y-91940476D02*
X119845238Y-91940476D01*
X119940476Y-91892857D01*
X119988095Y-91845238D01*
X120035714Y-91750000D01*
X120035714Y-91607142D01*
X119988095Y-91511904D01*
X119654761Y-91940476D02*
X119702380Y-91845238D01*
X119702380Y-91654761D01*
X119654761Y-91559523D01*
X119607142Y-91511904D01*
X119511904Y-91464285D01*
X119226190Y-91464285D01*
X119130952Y-91511904D01*
X119083333Y-91559523D01*
X119035714Y-91654761D01*
X119035714Y-91845238D01*
X119083333Y-91940476D01*
X119654761Y-92797619D02*
X119702380Y-92702380D01*
X119702380Y-92511904D01*
X119654761Y-92416666D01*
X119559523Y-92369047D01*
X119178571Y-92369047D01*
X119083333Y-92416666D01*
X119035714Y-92511904D01*
X119035714Y-92702380D01*
X119083333Y-92797619D01*
X119178571Y-92845238D01*
X119273809Y-92845238D01*
X119369047Y-92369047D01*
X119702380Y-93273809D02*
X118702380Y-93273809D01*
X119416666Y-93607142D01*
X118702380Y-93940476D01*
X119702380Y-93940476D01*
X119702380Y-94559523D02*
X119654761Y-94464285D01*
X119607142Y-94416666D01*
X119511904Y-94369047D01*
X119226190Y-94369047D01*
X119130952Y-94416666D01*
X119083333Y-94464285D01*
X119035714Y-94559523D01*
X119035714Y-94702380D01*
X119083333Y-94797619D01*
X119130952Y-94845238D01*
X119226190Y-94892857D01*
X119511904Y-94892857D01*
X119607142Y-94845238D01*
X119654761Y-94797619D01*
X119702380Y-94702380D01*
X119702380Y-94559523D01*
X119035714Y-95321428D02*
X119702380Y-95321428D01*
X119130952Y-95321428D02*
X119083333Y-95369047D01*
X119035714Y-95464285D01*
X119035714Y-95607142D01*
X119083333Y-95702380D01*
X119178571Y-95750000D01*
X119702380Y-95750000D01*
X119702380Y-96226190D02*
X119035714Y-96226190D01*
X118702380Y-96226190D02*
X118750000Y-96178571D01*
X118797619Y-96226190D01*
X118750000Y-96273809D01*
X118702380Y-96226190D01*
X118797619Y-96226190D01*
X119035714Y-96559523D02*
X119035714Y-96940476D01*
X118702380Y-96702380D02*
X119559523Y-96702380D01*
X119654761Y-96750000D01*
X119702380Y-96845238D01*
X119702380Y-96940476D01*
X119702380Y-97416666D02*
X119654761Y-97321428D01*
X119607142Y-97273809D01*
X119511904Y-97226190D01*
X119226190Y-97226190D01*
X119130952Y-97273809D01*
X119083333Y-97321428D01*
X119035714Y-97416666D01*
X119035714Y-97559523D01*
X119083333Y-97654761D01*
X119130952Y-97702380D01*
X119226190Y-97750000D01*
X119511904Y-97750000D01*
X119607142Y-97702380D01*
X119654761Y-97654761D01*
X119702380Y-97559523D01*
X119702380Y-97416666D01*
X119702380Y-98178571D02*
X119035714Y-98178571D01*
X119226190Y-98178571D02*
X119130952Y-98226190D01*
X119083333Y-98273809D01*
X119035714Y-98369047D01*
X119035714Y-98464285D01*
X119702380Y-100083333D02*
X119702380Y-99511904D01*
X119702380Y-99797619D02*
X118702380Y-99797619D01*
X118845238Y-99702380D01*
X118940476Y-99607142D01*
X118988095Y-99511904D01*
X118702380Y-100940476D02*
X118702380Y-100750000D01*
X118750000Y-100654761D01*
X118797619Y-100607142D01*
X118940476Y-100511904D01*
X119130952Y-100464285D01*
X119511904Y-100464285D01*
X119607142Y-100511904D01*
X119654761Y-100559523D01*
X119702380Y-100654761D01*
X119702380Y-100845238D01*
X119654761Y-100940476D01*
X119607142Y-100988095D01*
X119511904Y-101035714D01*
X119273809Y-101035714D01*
X119178571Y-100988095D01*
X119130952Y-100940476D01*
X119083333Y-100845238D01*
X119083333Y-100654761D01*
X119130952Y-100559523D01*
X119178571Y-100511904D01*
X119273809Y-100464285D01*
X119035714Y-102130952D02*
X119702380Y-102369047D01*
X119035714Y-102607142D01*
X119702380Y-103511904D02*
X119702380Y-102940476D01*
X119702380Y-103226190D02*
X118702380Y-103226190D01*
X118845238Y-103130952D01*
X118940476Y-103035714D01*
X118988095Y-102940476D01*
D11*
%TO.C,J1*%
X112470000Y-114480000D02*
X113800000Y-114480000D01*
X112470000Y-113150000D02*
X112470000Y-114480000D01*
X112470000Y-111880000D02*
X115130000Y-111880000D01*
X115130000Y-111880000D02*
X115130000Y-71180000D01*
X112470000Y-111880000D02*
X112470000Y-71180000D01*
X112470000Y-71180000D02*
X115130000Y-71180000D01*
%TO.C,J2*%
X104870000Y-71180000D02*
X107530000Y-71180000D01*
X104870000Y-111880000D02*
X104870000Y-71180000D01*
X107530000Y-111880000D02*
X107530000Y-71180000D01*
X104870000Y-111880000D02*
X107530000Y-111880000D01*
X104870000Y-113150000D02*
X104870000Y-114480000D01*
X104870000Y-114480000D02*
X106200000Y-114480000D01*
%TO.C,J1*%
D10*
X114133333Y-114932380D02*
X114133333Y-115646666D01*
X114180952Y-115789523D01*
X114276190Y-115884761D01*
X114419047Y-115932380D01*
X114514285Y-115932380D01*
X113133333Y-115932380D02*
X113704761Y-115932380D01*
X113419047Y-115932380D02*
X113419047Y-114932380D01*
X113514285Y-115075238D01*
X113609523Y-115170476D01*
X113704761Y-115218095D01*
%TO.C,J2*%
X106533333Y-114932380D02*
X106533333Y-115646666D01*
X106580952Y-115789523D01*
X106676190Y-115884761D01*
X106819047Y-115932380D01*
X106914285Y-115932380D01*
X106104761Y-115027619D02*
X106057142Y-114980000D01*
X105961904Y-114932380D01*
X105723809Y-114932380D01*
X105628571Y-114980000D01*
X105580952Y-115027619D01*
X105533333Y-115122857D01*
X105533333Y-115218095D01*
X105580952Y-115360952D01*
X106152380Y-115932380D01*
X105533333Y-115932380D01*
%TD*%
M02*
