%TF.GenerationSoftware,KiCad,Pcbnew,(5.1.9)-1*%
%TF.CreationDate,2021-02-04T07:57:01-05:00*%
%TF.ProjectId,NerdConsole_BreadBoard_BridgeMonitor16,4e657264-436f-46e7-936f-6c655f427265,rev?*%
%TF.SameCoordinates,Original*%
%TF.FileFunction,Copper,L1,Top*%
%TF.FilePolarity,Positive*%
%FSLAX46Y46*%
G04 Gerber Fmt 4.6, Leading zero omitted, Abs format (unit mm)*
G04 Created by KiCad (PCBNEW (5.1.9)-1) date 2021-02-04 07:57:01*
%MOMM*%
%LPD*%
G01*
G04 APERTURE LIST*
%TA.AperFunction,ComponentPad*%
%ADD10O,1.700000X1.700000*%
%TD*%
%TA.AperFunction,ComponentPad*%
%ADD11R,1.700000X1.700000*%
%TD*%
%TA.AperFunction,ComponentPad*%
%ADD12R,1.600000X1.600000*%
%TD*%
%TA.AperFunction,ComponentPad*%
%ADD13O,1.600000X1.600000*%
%TD*%
%TA.AperFunction,Conductor*%
%ADD14C,0.250000*%
%TD*%
G04 APERTURE END LIST*
%TO.P,D0,2*%
%TO.N,D0*%
%TA.AperFunction,SMDPad,CuDef*%
G36*
G01*
X117100000Y-111399999D02*
X117100000Y-112300001D01*
G75*
G02*
X116850001Y-112550000I-249999J0D01*
G01*
X116199999Y-112550000D01*
G75*
G02*
X115950000Y-112300001I0J249999D01*
G01*
X115950000Y-111399999D01*
G75*
G02*
X116199999Y-111150000I249999J0D01*
G01*
X116850001Y-111150000D01*
G75*
G02*
X117100000Y-111399999I0J-249999D01*
G01*
G37*
%TD.AperFunction*%
%TO.P,D0,1*%
%TO.N,LED0*%
%TA.AperFunction,SMDPad,CuDef*%
G36*
G01*
X119150000Y-111399999D02*
X119150000Y-112300001D01*
G75*
G02*
X118900001Y-112550000I-249999J0D01*
G01*
X118249999Y-112550000D01*
G75*
G02*
X118000000Y-112300001I0J249999D01*
G01*
X118000000Y-111399999D01*
G75*
G02*
X118249999Y-111150000I249999J0D01*
G01*
X118900001Y-111150000D01*
G75*
G02*
X119150000Y-111399999I0J-249999D01*
G01*
G37*
%TD.AperFunction*%
%TD*%
%TO.P,D1,1*%
%TO.N,LED1*%
%TA.AperFunction,SMDPad,CuDef*%
G36*
G01*
X119150000Y-108899999D02*
X119150000Y-109800001D01*
G75*
G02*
X118900001Y-110050000I-249999J0D01*
G01*
X118249999Y-110050000D01*
G75*
G02*
X118000000Y-109800001I0J249999D01*
G01*
X118000000Y-108899999D01*
G75*
G02*
X118249999Y-108650000I249999J0D01*
G01*
X118900001Y-108650000D01*
G75*
G02*
X119150000Y-108899999I0J-249999D01*
G01*
G37*
%TD.AperFunction*%
%TO.P,D1,2*%
%TO.N,D1*%
%TA.AperFunction,SMDPad,CuDef*%
G36*
G01*
X117100000Y-108899999D02*
X117100000Y-109800001D01*
G75*
G02*
X116850001Y-110050000I-249999J0D01*
G01*
X116199999Y-110050000D01*
G75*
G02*
X115950000Y-109800001I0J249999D01*
G01*
X115950000Y-108899999D01*
G75*
G02*
X116199999Y-108650000I249999J0D01*
G01*
X116850001Y-108650000D01*
G75*
G02*
X117100000Y-108899999I0J-249999D01*
G01*
G37*
%TD.AperFunction*%
%TD*%
%TO.P,D2,2*%
%TO.N,D2*%
%TA.AperFunction,SMDPad,CuDef*%
G36*
G01*
X117100000Y-106349999D02*
X117100000Y-107250001D01*
G75*
G02*
X116850001Y-107500000I-249999J0D01*
G01*
X116199999Y-107500000D01*
G75*
G02*
X115950000Y-107250001I0J249999D01*
G01*
X115950000Y-106349999D01*
G75*
G02*
X116199999Y-106100000I249999J0D01*
G01*
X116850001Y-106100000D01*
G75*
G02*
X117100000Y-106349999I0J-249999D01*
G01*
G37*
%TD.AperFunction*%
%TO.P,D2,1*%
%TO.N,LED2*%
%TA.AperFunction,SMDPad,CuDef*%
G36*
G01*
X119150000Y-106349999D02*
X119150000Y-107250001D01*
G75*
G02*
X118900001Y-107500000I-249999J0D01*
G01*
X118249999Y-107500000D01*
G75*
G02*
X118000000Y-107250001I0J249999D01*
G01*
X118000000Y-106349999D01*
G75*
G02*
X118249999Y-106100000I249999J0D01*
G01*
X118900001Y-106100000D01*
G75*
G02*
X119150000Y-106349999I0J-249999D01*
G01*
G37*
%TD.AperFunction*%
%TD*%
%TO.P,D3,1*%
%TO.N,LED3*%
%TA.AperFunction,SMDPad,CuDef*%
G36*
G01*
X119150000Y-103799999D02*
X119150000Y-104700001D01*
G75*
G02*
X118900001Y-104950000I-249999J0D01*
G01*
X118249999Y-104950000D01*
G75*
G02*
X118000000Y-104700001I0J249999D01*
G01*
X118000000Y-103799999D01*
G75*
G02*
X118249999Y-103550000I249999J0D01*
G01*
X118900001Y-103550000D01*
G75*
G02*
X119150000Y-103799999I0J-249999D01*
G01*
G37*
%TD.AperFunction*%
%TO.P,D3,2*%
%TO.N,D3*%
%TA.AperFunction,SMDPad,CuDef*%
G36*
G01*
X117100000Y-103799999D02*
X117100000Y-104700001D01*
G75*
G02*
X116850001Y-104950000I-249999J0D01*
G01*
X116199999Y-104950000D01*
G75*
G02*
X115950000Y-104700001I0J249999D01*
G01*
X115950000Y-103799999D01*
G75*
G02*
X116199999Y-103550000I249999J0D01*
G01*
X116850001Y-103550000D01*
G75*
G02*
X117100000Y-103799999I0J-249999D01*
G01*
G37*
%TD.AperFunction*%
%TD*%
%TO.P,D4,2*%
%TO.N,D4*%
%TA.AperFunction,SMDPad,CuDef*%
G36*
G01*
X117100000Y-101249999D02*
X117100000Y-102150001D01*
G75*
G02*
X116850001Y-102400000I-249999J0D01*
G01*
X116199999Y-102400000D01*
G75*
G02*
X115950000Y-102150001I0J249999D01*
G01*
X115950000Y-101249999D01*
G75*
G02*
X116199999Y-101000000I249999J0D01*
G01*
X116850001Y-101000000D01*
G75*
G02*
X117100000Y-101249999I0J-249999D01*
G01*
G37*
%TD.AperFunction*%
%TO.P,D4,1*%
%TO.N,LED4*%
%TA.AperFunction,SMDPad,CuDef*%
G36*
G01*
X119150000Y-101249999D02*
X119150000Y-102150001D01*
G75*
G02*
X118900001Y-102400000I-249999J0D01*
G01*
X118249999Y-102400000D01*
G75*
G02*
X118000000Y-102150001I0J249999D01*
G01*
X118000000Y-101249999D01*
G75*
G02*
X118249999Y-101000000I249999J0D01*
G01*
X118900001Y-101000000D01*
G75*
G02*
X119150000Y-101249999I0J-249999D01*
G01*
G37*
%TD.AperFunction*%
%TD*%
%TO.P,D5,1*%
%TO.N,LED5*%
%TA.AperFunction,SMDPad,CuDef*%
G36*
G01*
X119150000Y-98699999D02*
X119150000Y-99600001D01*
G75*
G02*
X118900001Y-99850000I-249999J0D01*
G01*
X118249999Y-99850000D01*
G75*
G02*
X118000000Y-99600001I0J249999D01*
G01*
X118000000Y-98699999D01*
G75*
G02*
X118249999Y-98450000I249999J0D01*
G01*
X118900001Y-98450000D01*
G75*
G02*
X119150000Y-98699999I0J-249999D01*
G01*
G37*
%TD.AperFunction*%
%TO.P,D5,2*%
%TO.N,D5*%
%TA.AperFunction,SMDPad,CuDef*%
G36*
G01*
X117100000Y-98699999D02*
X117100000Y-99600001D01*
G75*
G02*
X116850001Y-99850000I-249999J0D01*
G01*
X116199999Y-99850000D01*
G75*
G02*
X115950000Y-99600001I0J249999D01*
G01*
X115950000Y-98699999D01*
G75*
G02*
X116199999Y-98450000I249999J0D01*
G01*
X116850001Y-98450000D01*
G75*
G02*
X117100000Y-98699999I0J-249999D01*
G01*
G37*
%TD.AperFunction*%
%TD*%
%TO.P,D6,1*%
%TO.N,LED6*%
%TA.AperFunction,SMDPad,CuDef*%
G36*
G01*
X119150000Y-96199999D02*
X119150000Y-97100001D01*
G75*
G02*
X118900001Y-97350000I-249999J0D01*
G01*
X118249999Y-97350000D01*
G75*
G02*
X118000000Y-97100001I0J249999D01*
G01*
X118000000Y-96199999D01*
G75*
G02*
X118249999Y-95950000I249999J0D01*
G01*
X118900001Y-95950000D01*
G75*
G02*
X119150000Y-96199999I0J-249999D01*
G01*
G37*
%TD.AperFunction*%
%TO.P,D6,2*%
%TO.N,D6*%
%TA.AperFunction,SMDPad,CuDef*%
G36*
G01*
X117100000Y-96199999D02*
X117100000Y-97100001D01*
G75*
G02*
X116850001Y-97350000I-249999J0D01*
G01*
X116199999Y-97350000D01*
G75*
G02*
X115950000Y-97100001I0J249999D01*
G01*
X115950000Y-96199999D01*
G75*
G02*
X116199999Y-95950000I249999J0D01*
G01*
X116850001Y-95950000D01*
G75*
G02*
X117100000Y-96199999I0J-249999D01*
G01*
G37*
%TD.AperFunction*%
%TD*%
%TO.P,D7,2*%
%TO.N,D7*%
%TA.AperFunction,SMDPad,CuDef*%
G36*
G01*
X117100000Y-93649999D02*
X117100000Y-94550001D01*
G75*
G02*
X116850001Y-94800000I-249999J0D01*
G01*
X116199999Y-94800000D01*
G75*
G02*
X115950000Y-94550001I0J249999D01*
G01*
X115950000Y-93649999D01*
G75*
G02*
X116199999Y-93400000I249999J0D01*
G01*
X116850001Y-93400000D01*
G75*
G02*
X117100000Y-93649999I0J-249999D01*
G01*
G37*
%TD.AperFunction*%
%TO.P,D7,1*%
%TO.N,LED7*%
%TA.AperFunction,SMDPad,CuDef*%
G36*
G01*
X119150000Y-93649999D02*
X119150000Y-94550001D01*
G75*
G02*
X118900001Y-94800000I-249999J0D01*
G01*
X118249999Y-94800000D01*
G75*
G02*
X118000000Y-94550001I0J249999D01*
G01*
X118000000Y-93649999D01*
G75*
G02*
X118249999Y-93400000I249999J0D01*
G01*
X118900001Y-93400000D01*
G75*
G02*
X119150000Y-93649999I0J-249999D01*
G01*
G37*
%TD.AperFunction*%
%TD*%
%TO.P,D8,1*%
%TO.N,LED8*%
%TA.AperFunction,SMDPad,CuDef*%
G36*
G01*
X119150000Y-89849999D02*
X119150000Y-90750001D01*
G75*
G02*
X118900001Y-91000000I-249999J0D01*
G01*
X118249999Y-91000000D01*
G75*
G02*
X118000000Y-90750001I0J249999D01*
G01*
X118000000Y-89849999D01*
G75*
G02*
X118249999Y-89600000I249999J0D01*
G01*
X118900001Y-89600000D01*
G75*
G02*
X119150000Y-89849999I0J-249999D01*
G01*
G37*
%TD.AperFunction*%
%TO.P,D8,2*%
%TO.N,D8*%
%TA.AperFunction,SMDPad,CuDef*%
G36*
G01*
X117100000Y-89849999D02*
X117100000Y-90750001D01*
G75*
G02*
X116850001Y-91000000I-249999J0D01*
G01*
X116199999Y-91000000D01*
G75*
G02*
X115950000Y-90750001I0J249999D01*
G01*
X115950000Y-89849999D01*
G75*
G02*
X116199999Y-89600000I249999J0D01*
G01*
X116850001Y-89600000D01*
G75*
G02*
X117100000Y-89849999I0J-249999D01*
G01*
G37*
%TD.AperFunction*%
%TD*%
%TO.P,D9,2*%
%TO.N,D9*%
%TA.AperFunction,SMDPad,CuDef*%
G36*
G01*
X117100000Y-87299999D02*
X117100000Y-88200001D01*
G75*
G02*
X116850001Y-88450000I-249999J0D01*
G01*
X116199999Y-88450000D01*
G75*
G02*
X115950000Y-88200001I0J249999D01*
G01*
X115950000Y-87299999D01*
G75*
G02*
X116199999Y-87050000I249999J0D01*
G01*
X116850001Y-87050000D01*
G75*
G02*
X117100000Y-87299999I0J-249999D01*
G01*
G37*
%TD.AperFunction*%
%TO.P,D9,1*%
%TO.N,LED9*%
%TA.AperFunction,SMDPad,CuDef*%
G36*
G01*
X119150000Y-87299999D02*
X119150000Y-88200001D01*
G75*
G02*
X118900001Y-88450000I-249999J0D01*
G01*
X118249999Y-88450000D01*
G75*
G02*
X118000000Y-88200001I0J249999D01*
G01*
X118000000Y-87299999D01*
G75*
G02*
X118249999Y-87050000I249999J0D01*
G01*
X118900001Y-87050000D01*
G75*
G02*
X119150000Y-87299999I0J-249999D01*
G01*
G37*
%TD.AperFunction*%
%TD*%
%TO.P,Da,1*%
%TO.N,LED10*%
%TA.AperFunction,SMDPad,CuDef*%
G36*
G01*
X119150000Y-84749999D02*
X119150000Y-85650001D01*
G75*
G02*
X118900001Y-85900000I-249999J0D01*
G01*
X118249999Y-85900000D01*
G75*
G02*
X118000000Y-85650001I0J249999D01*
G01*
X118000000Y-84749999D01*
G75*
G02*
X118249999Y-84500000I249999J0D01*
G01*
X118900001Y-84500000D01*
G75*
G02*
X119150000Y-84749999I0J-249999D01*
G01*
G37*
%TD.AperFunction*%
%TO.P,Da,2*%
%TO.N,D10*%
%TA.AperFunction,SMDPad,CuDef*%
G36*
G01*
X117100000Y-84749999D02*
X117100000Y-85650001D01*
G75*
G02*
X116850001Y-85900000I-249999J0D01*
G01*
X116199999Y-85900000D01*
G75*
G02*
X115950000Y-85650001I0J249999D01*
G01*
X115950000Y-84749999D01*
G75*
G02*
X116199999Y-84500000I249999J0D01*
G01*
X116850001Y-84500000D01*
G75*
G02*
X117100000Y-84749999I0J-249999D01*
G01*
G37*
%TD.AperFunction*%
%TD*%
%TO.P,Db,2*%
%TO.N,D11*%
%TA.AperFunction,SMDPad,CuDef*%
G36*
G01*
X117100000Y-82249999D02*
X117100000Y-83150001D01*
G75*
G02*
X116850001Y-83400000I-249999J0D01*
G01*
X116199999Y-83400000D01*
G75*
G02*
X115950000Y-83150001I0J249999D01*
G01*
X115950000Y-82249999D01*
G75*
G02*
X116199999Y-82000000I249999J0D01*
G01*
X116850001Y-82000000D01*
G75*
G02*
X117100000Y-82249999I0J-249999D01*
G01*
G37*
%TD.AperFunction*%
%TO.P,Db,1*%
%TO.N,LED11*%
%TA.AperFunction,SMDPad,CuDef*%
G36*
G01*
X119150000Y-82249999D02*
X119150000Y-83150001D01*
G75*
G02*
X118900001Y-83400000I-249999J0D01*
G01*
X118249999Y-83400000D01*
G75*
G02*
X118000000Y-83150001I0J249999D01*
G01*
X118000000Y-82249999D01*
G75*
G02*
X118249999Y-82000000I249999J0D01*
G01*
X118900001Y-82000000D01*
G75*
G02*
X119150000Y-82249999I0J-249999D01*
G01*
G37*
%TD.AperFunction*%
%TD*%
%TO.P,Dc,1*%
%TO.N,LED12*%
%TA.AperFunction,SMDPad,CuDef*%
G36*
G01*
X119150000Y-79699999D02*
X119150000Y-80600001D01*
G75*
G02*
X118900001Y-80850000I-249999J0D01*
G01*
X118249999Y-80850000D01*
G75*
G02*
X118000000Y-80600001I0J249999D01*
G01*
X118000000Y-79699999D01*
G75*
G02*
X118249999Y-79450000I249999J0D01*
G01*
X118900001Y-79450000D01*
G75*
G02*
X119150000Y-79699999I0J-249999D01*
G01*
G37*
%TD.AperFunction*%
%TO.P,Dc,2*%
%TO.N,D12*%
%TA.AperFunction,SMDPad,CuDef*%
G36*
G01*
X117100000Y-79699999D02*
X117100000Y-80600001D01*
G75*
G02*
X116850001Y-80850000I-249999J0D01*
G01*
X116199999Y-80850000D01*
G75*
G02*
X115950000Y-80600001I0J249999D01*
G01*
X115950000Y-79699999D01*
G75*
G02*
X116199999Y-79450000I249999J0D01*
G01*
X116850001Y-79450000D01*
G75*
G02*
X117100000Y-79699999I0J-249999D01*
G01*
G37*
%TD.AperFunction*%
%TD*%
%TO.P,Dd,2*%
%TO.N,D13*%
%TA.AperFunction,SMDPad,CuDef*%
G36*
G01*
X117100000Y-77149999D02*
X117100000Y-78050001D01*
G75*
G02*
X116850001Y-78300000I-249999J0D01*
G01*
X116199999Y-78300000D01*
G75*
G02*
X115950000Y-78050001I0J249999D01*
G01*
X115950000Y-77149999D01*
G75*
G02*
X116199999Y-76900000I249999J0D01*
G01*
X116850001Y-76900000D01*
G75*
G02*
X117100000Y-77149999I0J-249999D01*
G01*
G37*
%TD.AperFunction*%
%TO.P,Dd,1*%
%TO.N,LED13*%
%TA.AperFunction,SMDPad,CuDef*%
G36*
G01*
X119150000Y-77149999D02*
X119150000Y-78050001D01*
G75*
G02*
X118900001Y-78300000I-249999J0D01*
G01*
X118249999Y-78300000D01*
G75*
G02*
X118000000Y-78050001I0J249999D01*
G01*
X118000000Y-77149999D01*
G75*
G02*
X118249999Y-76900000I249999J0D01*
G01*
X118900001Y-76900000D01*
G75*
G02*
X119150000Y-77149999I0J-249999D01*
G01*
G37*
%TD.AperFunction*%
%TD*%
%TO.P,De,1*%
%TO.N,LED14*%
%TA.AperFunction,SMDPad,CuDef*%
G36*
G01*
X119150000Y-74599999D02*
X119150000Y-75500001D01*
G75*
G02*
X118900001Y-75750000I-249999J0D01*
G01*
X118249999Y-75750000D01*
G75*
G02*
X118000000Y-75500001I0J249999D01*
G01*
X118000000Y-74599999D01*
G75*
G02*
X118249999Y-74350000I249999J0D01*
G01*
X118900001Y-74350000D01*
G75*
G02*
X119150000Y-74599999I0J-249999D01*
G01*
G37*
%TD.AperFunction*%
%TO.P,De,2*%
%TO.N,D14*%
%TA.AperFunction,SMDPad,CuDef*%
G36*
G01*
X117100000Y-74599999D02*
X117100000Y-75500001D01*
G75*
G02*
X116850001Y-75750000I-249999J0D01*
G01*
X116199999Y-75750000D01*
G75*
G02*
X115950000Y-75500001I0J249999D01*
G01*
X115950000Y-74599999D01*
G75*
G02*
X116199999Y-74350000I249999J0D01*
G01*
X116850001Y-74350000D01*
G75*
G02*
X117100000Y-74599999I0J-249999D01*
G01*
G37*
%TD.AperFunction*%
%TD*%
%TO.P,Df,2*%
%TO.N,D15*%
%TA.AperFunction,SMDPad,CuDef*%
G36*
G01*
X117100000Y-72049999D02*
X117100000Y-72950001D01*
G75*
G02*
X116850001Y-73200000I-249999J0D01*
G01*
X116199999Y-73200000D01*
G75*
G02*
X115950000Y-72950001I0J249999D01*
G01*
X115950000Y-72049999D01*
G75*
G02*
X116199999Y-71800000I249999J0D01*
G01*
X116850001Y-71800000D01*
G75*
G02*
X117100000Y-72049999I0J-249999D01*
G01*
G37*
%TD.AperFunction*%
%TO.P,Df,1*%
%TO.N,LED15*%
%TA.AperFunction,SMDPad,CuDef*%
G36*
G01*
X119150000Y-72049999D02*
X119150000Y-72950001D01*
G75*
G02*
X118900001Y-73200000I-249999J0D01*
G01*
X118249999Y-73200000D01*
G75*
G02*
X118000000Y-72950001I0J249999D01*
G01*
X118000000Y-72049999D01*
G75*
G02*
X118249999Y-71800000I249999J0D01*
G01*
X118900001Y-71800000D01*
G75*
G02*
X119150000Y-72049999I0J-249999D01*
G01*
G37*
%TD.AperFunction*%
%TD*%
D10*
%TO.P,J1,17*%
%TO.N,D15*%
X113800000Y-72510000D03*
%TO.P,J1,16*%
%TO.N,D14*%
X113800000Y-75050000D03*
%TO.P,J1,15*%
%TO.N,D13*%
X113800000Y-77590000D03*
%TO.P,J1,14*%
%TO.N,D12*%
X113800000Y-80130000D03*
%TO.P,J1,13*%
%TO.N,D11*%
X113800000Y-82670000D03*
%TO.P,J1,12*%
%TO.N,D10*%
X113800000Y-85210000D03*
%TO.P,J1,11*%
%TO.N,D9*%
X113800000Y-87750000D03*
%TO.P,J1,10*%
%TO.N,D8*%
X113800000Y-90290000D03*
%TO.P,J1,9*%
%TO.N,D7*%
X113800000Y-92830000D03*
%TO.P,J1,8*%
%TO.N,D6*%
X113800000Y-95370000D03*
%TO.P,J1,7*%
%TO.N,D5*%
X113800000Y-97910000D03*
%TO.P,J1,6*%
%TO.N,D4*%
X113800000Y-100450000D03*
%TO.P,J1,5*%
%TO.N,D3*%
X113800000Y-102990000D03*
%TO.P,J1,4*%
%TO.N,D2*%
X113800000Y-105530000D03*
%TO.P,J1,3*%
%TO.N,D1*%
X113800000Y-108070000D03*
%TO.P,J1,2*%
%TO.N,D0*%
X113800000Y-110610000D03*
D11*
%TO.P,J1,1*%
%TO.N,GND*%
X113800000Y-113150000D03*
%TD*%
%TO.P,J2,1*%
%TO.N,GND*%
X106200000Y-113150000D03*
D10*
%TO.P,J2,2*%
%TO.N,D0*%
X106200000Y-110610000D03*
%TO.P,J2,3*%
%TO.N,D1*%
X106200000Y-108070000D03*
%TO.P,J2,4*%
%TO.N,D2*%
X106200000Y-105530000D03*
%TO.P,J2,5*%
%TO.N,D3*%
X106200000Y-102990000D03*
%TO.P,J2,6*%
%TO.N,D4*%
X106200000Y-100450000D03*
%TO.P,J2,7*%
%TO.N,D5*%
X106200000Y-97910000D03*
%TO.P,J2,8*%
%TO.N,D6*%
X106200000Y-95370000D03*
%TO.P,J2,9*%
%TO.N,D7*%
X106200000Y-92830000D03*
%TO.P,J2,10*%
%TO.N,D8*%
X106200000Y-90290000D03*
%TO.P,J2,11*%
%TO.N,D9*%
X106200000Y-87750000D03*
%TO.P,J2,12*%
%TO.N,D10*%
X106200000Y-85210000D03*
%TO.P,J2,13*%
%TO.N,D11*%
X106200000Y-82670000D03*
%TO.P,J2,14*%
%TO.N,D12*%
X106200000Y-80130000D03*
%TO.P,J2,15*%
%TO.N,D13*%
X106200000Y-77590000D03*
%TO.P,J2,16*%
%TO.N,D14*%
X106200000Y-75050000D03*
%TO.P,J2,17*%
%TO.N,D15*%
X106200000Y-72510000D03*
%TD*%
D12*
%TO.P,RN1,1*%
%TO.N,GND*%
X109700000Y-114450000D03*
D13*
%TO.P,RN1,2*%
%TO.N,LED0*%
X109700000Y-111910000D03*
%TO.P,RN1,3*%
%TO.N,LED1*%
X109700000Y-109370000D03*
%TO.P,RN1,4*%
%TO.N,LED2*%
X109700000Y-106830000D03*
%TO.P,RN1,5*%
%TO.N,LED3*%
X109700000Y-104290000D03*
%TO.P,RN1,6*%
%TO.N,LED4*%
X109700000Y-101750000D03*
%TO.P,RN1,7*%
%TO.N,LED5*%
X109700000Y-99210000D03*
%TO.P,RN1,8*%
%TO.N,LED6*%
X109700000Y-96670000D03*
%TO.P,RN1,9*%
%TO.N,LED7*%
X109700000Y-94130000D03*
%TD*%
%TO.P,RN2,9*%
%TO.N,LED8*%
X109700000Y-90620000D03*
%TO.P,RN2,8*%
%TO.N,LED9*%
X109700000Y-88080000D03*
%TO.P,RN2,7*%
%TO.N,LED10*%
X109700000Y-85540000D03*
%TO.P,RN2,6*%
%TO.N,LED11*%
X109700000Y-83000000D03*
%TO.P,RN2,5*%
%TO.N,LED12*%
X109700000Y-80460000D03*
%TO.P,RN2,4*%
%TO.N,LED13*%
X109700000Y-77920000D03*
%TO.P,RN2,3*%
%TO.N,LED14*%
X109700000Y-75380000D03*
%TO.P,RN2,2*%
%TO.N,LED15*%
X109700000Y-72840000D03*
D12*
%TO.P,RN2,1*%
%TO.N,GND*%
X109700000Y-70300000D03*
%TD*%
D14*
%TO.N,D0*%
X115285000Y-110610000D02*
X116525000Y-111850000D01*
X113800000Y-110610000D02*
X115285000Y-110610000D01*
X113800000Y-110610000D02*
X106200000Y-110610000D01*
%TO.N,LED0*%
X114996810Y-111910000D02*
X109700000Y-111910000D01*
X115961820Y-112875010D02*
X114996810Y-111910000D01*
X117549990Y-112875010D02*
X115961820Y-112875010D01*
X118575000Y-111850000D02*
X117549990Y-112875010D01*
%TO.N,LED1*%
X115961820Y-110375010D02*
X114956810Y-109370000D01*
X114956810Y-109370000D02*
X109700000Y-109370000D01*
X117549990Y-110375010D02*
X115961820Y-110375010D01*
X118575000Y-109350000D02*
X117549990Y-110375010D01*
%TO.N,D1*%
X115245000Y-108070000D02*
X116525000Y-109350000D01*
X113800000Y-108070000D02*
X115245000Y-108070000D01*
X113800000Y-108070000D02*
X106200000Y-108070000D01*
%TO.N,D2*%
X115255000Y-105530000D02*
X116525000Y-106800000D01*
X113800000Y-105530000D02*
X115255000Y-105530000D01*
X113800000Y-105530000D02*
X106200000Y-105530000D01*
%TO.N,LED2*%
X114966810Y-106830000D02*
X109700000Y-106830000D01*
X115961820Y-107825010D02*
X114966810Y-106830000D01*
X117549990Y-107825010D02*
X115961820Y-107825010D01*
X118575000Y-106800000D02*
X117549990Y-107825010D01*
%TO.N,LED3*%
X114651410Y-104290000D02*
X109700000Y-104290000D01*
X115636420Y-105275010D02*
X114651410Y-104290000D01*
X117549990Y-105275010D02*
X115636420Y-105275010D01*
X118575000Y-104250000D02*
X117549990Y-105275010D01*
%TO.N,D3*%
X115265000Y-102990000D02*
X116525000Y-104250000D01*
X113800000Y-102990000D02*
X115265000Y-102990000D01*
X113800000Y-102990000D02*
X106200000Y-102990000D01*
%TO.N,D4*%
X115275000Y-100450000D02*
X116525000Y-101700000D01*
X113800000Y-100450000D02*
X115275000Y-100450000D01*
X113800000Y-100450000D02*
X106200000Y-100450000D01*
%TO.N,LED4*%
X114661410Y-101750000D02*
X109700000Y-101750000D01*
X115636420Y-102725010D02*
X114661410Y-101750000D01*
X117549990Y-102725010D02*
X115636420Y-102725010D01*
X118575000Y-101700000D02*
X117549990Y-102725010D01*
%TO.N,LED5*%
X114671410Y-99210000D02*
X109700000Y-99210000D01*
X115636420Y-100175010D02*
X114671410Y-99210000D01*
X117549990Y-100175010D02*
X115636420Y-100175010D01*
X118575000Y-99150000D02*
X117549990Y-100175010D01*
%TO.N,D5*%
X115285000Y-97910000D02*
X116525000Y-99150000D01*
X113800000Y-97910000D02*
X115285000Y-97910000D01*
X113800000Y-97910000D02*
X106200000Y-97910000D01*
%TO.N,LED6*%
X114681410Y-96670000D02*
X109700000Y-96670000D01*
X115686420Y-97675010D02*
X114681410Y-96670000D01*
X117549990Y-97675010D02*
X115686420Y-97675010D01*
X118575000Y-96650000D02*
X117549990Y-97675010D01*
%TO.N,D6*%
X115245000Y-95370000D02*
X116525000Y-96650000D01*
X113800000Y-95370000D02*
X115245000Y-95370000D01*
X113800000Y-95370000D02*
X106200000Y-95370000D01*
%TO.N,D7*%
X115255000Y-92830000D02*
X116525000Y-94100000D01*
X113800000Y-92830000D02*
X115255000Y-92830000D01*
X113800000Y-92830000D02*
X106200000Y-92830000D01*
%TO.N,LED7*%
X114966810Y-94130000D02*
X109700000Y-94130000D01*
X115961820Y-95125010D02*
X114966810Y-94130000D01*
X117549990Y-95125010D02*
X115961820Y-95125010D01*
X118575000Y-94100000D02*
X117549990Y-95125010D01*
%TO.N,LED8*%
X117389999Y-89114999D02*
X111205001Y-89114999D01*
X111205001Y-89114999D02*
X109700000Y-90620000D01*
X118575000Y-90300000D02*
X117389999Y-89114999D01*
%TO.N,D8*%
X116515000Y-90290000D02*
X116525000Y-90300000D01*
X113800000Y-90290000D02*
X116515000Y-90290000D01*
X107655001Y-91745001D02*
X106200000Y-90290000D01*
X112344999Y-91745001D02*
X107655001Y-91745001D01*
X113800000Y-90290000D02*
X112344999Y-91745001D01*
%TO.N,D9*%
X113800000Y-87750000D02*
X116525000Y-87750000D01*
X110240001Y-89205001D02*
X107655001Y-89205001D01*
X107655001Y-89205001D02*
X106200000Y-87750000D01*
X111695002Y-87750000D02*
X110240001Y-89205001D01*
X113800000Y-87750000D02*
X111695002Y-87750000D01*
%TO.N,LED9*%
X111205001Y-86574999D02*
X109700000Y-88080000D01*
X117399999Y-86574999D02*
X111205001Y-86574999D01*
X118575000Y-87750000D02*
X117399999Y-86574999D01*
%TO.N,LED10*%
X111205001Y-84034999D02*
X109700000Y-85540000D01*
X117409999Y-84034999D02*
X111205001Y-84034999D01*
X118575000Y-85200000D02*
X117409999Y-84034999D01*
%TO.N,D10*%
X116515000Y-85210000D02*
X116525000Y-85200000D01*
X113800000Y-85210000D02*
X116515000Y-85210000D01*
X107655001Y-86665001D02*
X106200000Y-85210000D01*
X110240001Y-86665001D02*
X107655001Y-86665001D01*
X111695002Y-85210000D02*
X110240001Y-86665001D01*
X113800000Y-85210000D02*
X111695002Y-85210000D01*
%TO.N,D11*%
X116495000Y-82670000D02*
X116525000Y-82700000D01*
X113800000Y-82670000D02*
X116495000Y-82670000D01*
X107655001Y-84125001D02*
X106200000Y-82670000D01*
X110240001Y-84125001D02*
X107655001Y-84125001D01*
X111695002Y-82670000D02*
X110240001Y-84125001D01*
X113800000Y-82670000D02*
X111695002Y-82670000D01*
%TO.N,LED11*%
X111205001Y-81494999D02*
X109700000Y-83000000D01*
X117369999Y-81494999D02*
X111205001Y-81494999D01*
X118575000Y-82700000D02*
X117369999Y-81494999D01*
%TO.N,LED12*%
X111205001Y-78954999D02*
X109700000Y-80460000D01*
X117379999Y-78954999D02*
X111205001Y-78954999D01*
X118575000Y-80150000D02*
X117379999Y-78954999D01*
%TO.N,D12*%
X116505000Y-80130000D02*
X116525000Y-80150000D01*
X113800000Y-80130000D02*
X116505000Y-80130000D01*
X107655001Y-81585001D02*
X106200000Y-80130000D01*
X110240001Y-81585001D02*
X107655001Y-81585001D01*
X111695002Y-80130000D02*
X110240001Y-81585001D01*
X113800000Y-80130000D02*
X111695002Y-80130000D01*
%TO.N,D13*%
X116515000Y-77590000D02*
X116525000Y-77600000D01*
X113800000Y-77590000D02*
X116515000Y-77590000D01*
X107655001Y-79045001D02*
X106200000Y-77590000D01*
X111695002Y-77590000D02*
X110240001Y-79045001D01*
X110240001Y-79045001D02*
X107655001Y-79045001D01*
X113800000Y-77590000D02*
X111695002Y-77590000D01*
%TO.N,LED13*%
X111205001Y-76414999D02*
X109700000Y-77920000D01*
X117389999Y-76414999D02*
X111205001Y-76414999D01*
X118575000Y-77600000D02*
X117389999Y-76414999D01*
%TO.N,LED14*%
X111205001Y-73874999D02*
X109700000Y-75380000D01*
X117399999Y-73874999D02*
X111205001Y-73874999D01*
X118575000Y-75050000D02*
X117399999Y-73874999D01*
%TO.N,D14*%
X113800000Y-75050000D02*
X116525000Y-75050000D01*
X107655001Y-76505001D02*
X106200000Y-75050000D01*
X110240001Y-76505001D02*
X107655001Y-76505001D01*
X111695002Y-75050000D02*
X110240001Y-76505001D01*
X113800000Y-75050000D02*
X111695002Y-75050000D01*
%TO.N,D15*%
X116515000Y-72510000D02*
X116525000Y-72500000D01*
X113800000Y-72510000D02*
X116515000Y-72510000D01*
X107655001Y-73965001D02*
X106200000Y-72510000D01*
X110240001Y-73965001D02*
X107655001Y-73965001D01*
X111695002Y-72510000D02*
X110240001Y-73965001D01*
X113800000Y-72510000D02*
X111695002Y-72510000D01*
%TO.N,LED15*%
X111205001Y-71334999D02*
X109700000Y-72840000D01*
X117409999Y-71334999D02*
X111205001Y-71334999D01*
X118575000Y-72500000D02*
X117409999Y-71334999D01*
%TD*%
M02*
