%TF.GenerationSoftware,KiCad,Pcbnew,(5.1.9)-1*%
%TF.CreationDate,2021-02-04T07:57:01-05:00*%
%TF.ProjectId,NerdConsole_BreadBoard_BridgeMonitor16,4e657264-436f-46e7-936f-6c655f427265,rev?*%
%TF.SameCoordinates,Original*%
%TF.FileFunction,Legend,Top*%
%TF.FilePolarity,Positive*%
%FSLAX46Y46*%
G04 Gerber Fmt 4.6, Leading zero omitted, Abs format (unit mm)*
G04 Created by KiCad (PCBNEW (5.1.9)-1) date 2021-02-04 07:57:01*
%MOMM*%
%LPD*%
G01*
G04 APERTURE LIST*
%ADD10C,0.150000*%
%ADD11C,0.120000*%
G04 APERTURE END LIST*
D10*
X112988095Y-114750000D02*
X112892857Y-114702380D01*
X112750000Y-114702380D01*
X112607142Y-114750000D01*
X112511904Y-114845238D01*
X112464285Y-114940476D01*
X112416666Y-115130952D01*
X112416666Y-115273809D01*
X112464285Y-115464285D01*
X112511904Y-115559523D01*
X112607142Y-115654761D01*
X112750000Y-115702380D01*
X112845238Y-115702380D01*
X112988095Y-115654761D01*
X113035714Y-115607142D01*
X113035714Y-115273809D01*
X112845238Y-115273809D01*
X113464285Y-115702380D02*
X113464285Y-114702380D01*
X114035714Y-115702380D01*
X114035714Y-114702380D01*
X114511904Y-115702380D02*
X114511904Y-114702380D01*
X114750000Y-114702380D01*
X114892857Y-114750000D01*
X114988095Y-114845238D01*
X115035714Y-114940476D01*
X115083333Y-115130952D01*
X115083333Y-115273809D01*
X115035714Y-115464285D01*
X114988095Y-115559523D01*
X114892857Y-115654761D01*
X114750000Y-115702380D01*
X114511904Y-115702380D01*
X120121428Y-72642857D02*
X120121428Y-72309523D01*
X119597619Y-72309523D02*
X120597619Y-72309523D01*
X120597619Y-72785714D01*
X120121428Y-74835714D02*
X120121428Y-75169047D01*
X119597619Y-75311904D02*
X119597619Y-74835714D01*
X120597619Y-74835714D01*
X120597619Y-75311904D01*
X119597619Y-77338095D02*
X120597619Y-77338095D01*
X120597619Y-77576190D01*
X120550000Y-77719047D01*
X120454761Y-77814285D01*
X120359523Y-77861904D01*
X120169047Y-77909523D01*
X120026190Y-77909523D01*
X119835714Y-77861904D01*
X119740476Y-77814285D01*
X119645238Y-77719047D01*
X119597619Y-77576190D01*
X119597619Y-77338095D01*
X119692857Y-80459523D02*
X119645238Y-80411904D01*
X119597619Y-80269047D01*
X119597619Y-80173809D01*
X119645238Y-80030952D01*
X119740476Y-79935714D01*
X119835714Y-79888095D01*
X120026190Y-79840476D01*
X120169047Y-79840476D01*
X120359523Y-79888095D01*
X120454761Y-79935714D01*
X120550000Y-80030952D01*
X120597619Y-80173809D01*
X120597619Y-80269047D01*
X120550000Y-80411904D01*
X120502380Y-80459523D01*
X120121428Y-82771428D02*
X120073809Y-82914285D01*
X120026190Y-82961904D01*
X119930952Y-83009523D01*
X119788095Y-83009523D01*
X119692857Y-82961904D01*
X119645238Y-82914285D01*
X119597619Y-82819047D01*
X119597619Y-82438095D01*
X120597619Y-82438095D01*
X120597619Y-82771428D01*
X120550000Y-82866666D01*
X120502380Y-82914285D01*
X120407142Y-82961904D01*
X120311904Y-82961904D01*
X120216666Y-82914285D01*
X120169047Y-82866666D01*
X120121428Y-82771428D01*
X120121428Y-82438095D01*
X119883333Y-84961904D02*
X119883333Y-85438095D01*
X119597619Y-84866666D02*
X120597619Y-85200000D01*
X119597619Y-85533333D01*
X119597619Y-87559523D02*
X119597619Y-87750000D01*
X119645238Y-87845238D01*
X119692857Y-87892857D01*
X119835714Y-87988095D01*
X120026190Y-88035714D01*
X120407142Y-88035714D01*
X120502380Y-87988095D01*
X120550000Y-87940476D01*
X120597619Y-87845238D01*
X120597619Y-87654761D01*
X120550000Y-87559523D01*
X120502380Y-87511904D01*
X120407142Y-87464285D01*
X120169047Y-87464285D01*
X120073809Y-87511904D01*
X120026190Y-87559523D01*
X119978571Y-87654761D01*
X119978571Y-87845238D01*
X120026190Y-87940476D01*
X120073809Y-87988095D01*
X120169047Y-88035714D01*
X120169047Y-90204761D02*
X120216666Y-90109523D01*
X120264285Y-90061904D01*
X120359523Y-90014285D01*
X120407142Y-90014285D01*
X120502380Y-90061904D01*
X120550000Y-90109523D01*
X120597619Y-90204761D01*
X120597619Y-90395238D01*
X120550000Y-90490476D01*
X120502380Y-90538095D01*
X120407142Y-90585714D01*
X120359523Y-90585714D01*
X120264285Y-90538095D01*
X120216666Y-90490476D01*
X120169047Y-90395238D01*
X120169047Y-90204761D01*
X120121428Y-90109523D01*
X120073809Y-90061904D01*
X119978571Y-90014285D01*
X119788095Y-90014285D01*
X119692857Y-90061904D01*
X119645238Y-90109523D01*
X119597619Y-90204761D01*
X119597619Y-90395238D01*
X119645238Y-90490476D01*
X119692857Y-90538095D01*
X119788095Y-90585714D01*
X119978571Y-90585714D01*
X120073809Y-90538095D01*
X120121428Y-90490476D01*
X120169047Y-90395238D01*
X120597619Y-93766666D02*
X120597619Y-94433333D01*
X119597619Y-94004761D01*
X120597619Y-96840476D02*
X120597619Y-96650000D01*
X120550000Y-96554761D01*
X120502380Y-96507142D01*
X120359523Y-96411904D01*
X120169047Y-96364285D01*
X119788095Y-96364285D01*
X119692857Y-96411904D01*
X119645238Y-96459523D01*
X119597619Y-96554761D01*
X119597619Y-96745238D01*
X119645238Y-96840476D01*
X119692857Y-96888095D01*
X119788095Y-96935714D01*
X120026190Y-96935714D01*
X120121428Y-96888095D01*
X120169047Y-96840476D01*
X120216666Y-96745238D01*
X120216666Y-96554761D01*
X120169047Y-96459523D01*
X120121428Y-96411904D01*
X120026190Y-96364285D01*
X120597619Y-99388095D02*
X120597619Y-98911904D01*
X120121428Y-98864285D01*
X120169047Y-98911904D01*
X120216666Y-99007142D01*
X120216666Y-99245238D01*
X120169047Y-99340476D01*
X120121428Y-99388095D01*
X120026190Y-99435714D01*
X119788095Y-99435714D01*
X119692857Y-99388095D01*
X119645238Y-99340476D01*
X119597619Y-99245238D01*
X119597619Y-99007142D01*
X119645238Y-98911904D01*
X119692857Y-98864285D01*
X120264285Y-101890476D02*
X119597619Y-101890476D01*
X120645238Y-101652380D02*
X119930952Y-101414285D01*
X119930952Y-102033333D01*
X120597619Y-103966666D02*
X120597619Y-104585714D01*
X120216666Y-104252380D01*
X120216666Y-104395238D01*
X120169047Y-104490476D01*
X120121428Y-104538095D01*
X120026190Y-104585714D01*
X119788095Y-104585714D01*
X119692857Y-104538095D01*
X119645238Y-104490476D01*
X119597619Y-104395238D01*
X119597619Y-104109523D01*
X119645238Y-104014285D01*
X119692857Y-103966666D01*
X120502380Y-106564285D02*
X120550000Y-106611904D01*
X120597619Y-106707142D01*
X120597619Y-106945238D01*
X120550000Y-107040476D01*
X120502380Y-107088095D01*
X120407142Y-107135714D01*
X120311904Y-107135714D01*
X120169047Y-107088095D01*
X119597619Y-106516666D01*
X119597619Y-107135714D01*
X119597619Y-109635714D02*
X119597619Y-109064285D01*
X119597619Y-109350000D02*
X120597619Y-109350000D01*
X120454761Y-109254761D01*
X120359523Y-109159523D01*
X120311904Y-109064285D01*
X120597619Y-111802380D02*
X120597619Y-111897619D01*
X120550000Y-111992857D01*
X120502380Y-112040476D01*
X120407142Y-112088095D01*
X120216666Y-112135714D01*
X119978571Y-112135714D01*
X119788095Y-112088095D01*
X119692857Y-112040476D01*
X119645238Y-111992857D01*
X119597619Y-111897619D01*
X119597619Y-111802380D01*
X119645238Y-111707142D01*
X119692857Y-111659523D01*
X119788095Y-111611904D01*
X119978571Y-111564285D01*
X120216666Y-111564285D01*
X120407142Y-111611904D01*
X120502380Y-111659523D01*
X120550000Y-111707142D01*
X120597619Y-111802380D01*
D11*
X115750000Y-92250000D02*
X119400000Y-92250000D01*
%TO.C,D0*%
X119410000Y-110890000D02*
X116550000Y-110890000D01*
X119410000Y-112810000D02*
X119410000Y-110890000D01*
X116550000Y-112810000D02*
X119410000Y-112810000D01*
%TO.C,D1*%
X116550000Y-110310000D02*
X119410000Y-110310000D01*
X119410000Y-110310000D02*
X119410000Y-108390000D01*
X119410000Y-108390000D02*
X116550000Y-108390000D01*
%TO.C,D2*%
X119410000Y-105840000D02*
X116550000Y-105840000D01*
X119410000Y-107760000D02*
X119410000Y-105840000D01*
X116550000Y-107760000D02*
X119410000Y-107760000D01*
%TO.C,D3*%
X116550000Y-105210000D02*
X119410000Y-105210000D01*
X119410000Y-105210000D02*
X119410000Y-103290000D01*
X119410000Y-103290000D02*
X116550000Y-103290000D01*
%TO.C,D4*%
X119410000Y-100740000D02*
X116550000Y-100740000D01*
X119410000Y-102660000D02*
X119410000Y-100740000D01*
X116550000Y-102660000D02*
X119410000Y-102660000D01*
%TO.C,D5*%
X116550000Y-100110000D02*
X119410000Y-100110000D01*
X119410000Y-100110000D02*
X119410000Y-98190000D01*
X119410000Y-98190000D02*
X116550000Y-98190000D01*
%TO.C,D6*%
X116550000Y-97610000D02*
X119410000Y-97610000D01*
X119410000Y-97610000D02*
X119410000Y-95690000D01*
X119410000Y-95690000D02*
X116550000Y-95690000D01*
%TO.C,D7*%
X119410000Y-93140000D02*
X116550000Y-93140000D01*
X119410000Y-95060000D02*
X119410000Y-93140000D01*
X116550000Y-95060000D02*
X119410000Y-95060000D01*
%TO.C,D8*%
X116550000Y-91260000D02*
X119410000Y-91260000D01*
X119410000Y-91260000D02*
X119410000Y-89340000D01*
X119410000Y-89340000D02*
X116550000Y-89340000D01*
%TO.C,D9*%
X119410000Y-86790000D02*
X116550000Y-86790000D01*
X119410000Y-88710000D02*
X119410000Y-86790000D01*
X116550000Y-88710000D02*
X119410000Y-88710000D01*
%TO.C,Da*%
X116550000Y-86160000D02*
X119410000Y-86160000D01*
X119410000Y-86160000D02*
X119410000Y-84240000D01*
X119410000Y-84240000D02*
X116550000Y-84240000D01*
%TO.C,Db*%
X119410000Y-81740000D02*
X116550000Y-81740000D01*
X119410000Y-83660000D02*
X119410000Y-81740000D01*
X116550000Y-83660000D02*
X119410000Y-83660000D01*
%TO.C,Dc*%
X116550000Y-81110000D02*
X119410000Y-81110000D01*
X119410000Y-81110000D02*
X119410000Y-79190000D01*
X119410000Y-79190000D02*
X116550000Y-79190000D01*
%TO.C,Dd*%
X119410000Y-76640000D02*
X116550000Y-76640000D01*
X119410000Y-78560000D02*
X119410000Y-76640000D01*
X116550000Y-78560000D02*
X119410000Y-78560000D01*
%TO.C,De*%
X116550000Y-76010000D02*
X119410000Y-76010000D01*
X119410000Y-76010000D02*
X119410000Y-74090000D01*
X119410000Y-74090000D02*
X116550000Y-74090000D01*
%TO.C,Df*%
X119410000Y-71540000D02*
X116550000Y-71540000D01*
X119410000Y-73460000D02*
X119410000Y-71540000D01*
X116550000Y-73460000D02*
X119410000Y-73460000D01*
%TO.C,RN1*%
X108300000Y-115890000D02*
X111100000Y-115890000D01*
X111100000Y-115890000D02*
X111100000Y-92690000D01*
X111100000Y-92690000D02*
X108300000Y-92690000D01*
X108300000Y-92690000D02*
X108300000Y-115890000D01*
X108300000Y-113180000D02*
X111100000Y-113180000D01*
%TO.C,RN2*%
X111100000Y-71570000D02*
X108300000Y-71570000D01*
X111100000Y-92060000D02*
X111100000Y-68860000D01*
X108300000Y-92060000D02*
X111100000Y-92060000D01*
X108300000Y-68860000D02*
X108300000Y-92060000D01*
X111100000Y-68860000D02*
X108300000Y-68860000D01*
%TO.C,D0*%
D10*
X112302380Y-112588095D02*
X111302380Y-112588095D01*
X111302380Y-112350000D01*
X111350000Y-112207142D01*
X111445238Y-112111904D01*
X111540476Y-112064285D01*
X111730952Y-112016666D01*
X111873809Y-112016666D01*
X112064285Y-112064285D01*
X112159523Y-112111904D01*
X112254761Y-112207142D01*
X112302380Y-112350000D01*
X112302380Y-112588095D01*
X111302380Y-111397619D02*
X111302380Y-111302380D01*
X111350000Y-111207142D01*
X111397619Y-111159523D01*
X111492857Y-111111904D01*
X111683333Y-111064285D01*
X111921428Y-111064285D01*
X112111904Y-111111904D01*
X112207142Y-111159523D01*
X112254761Y-111207142D01*
X112302380Y-111302380D01*
X112302380Y-111397619D01*
X112254761Y-111492857D01*
X112207142Y-111540476D01*
X112111904Y-111588095D01*
X111921428Y-111635714D01*
X111683333Y-111635714D01*
X111492857Y-111588095D01*
X111397619Y-111540476D01*
X111350000Y-111492857D01*
X111302380Y-111397619D01*
%TO.C,D1*%
X112302380Y-110088095D02*
X111302380Y-110088095D01*
X111302380Y-109850000D01*
X111350000Y-109707142D01*
X111445238Y-109611904D01*
X111540476Y-109564285D01*
X111730952Y-109516666D01*
X111873809Y-109516666D01*
X112064285Y-109564285D01*
X112159523Y-109611904D01*
X112254761Y-109707142D01*
X112302380Y-109850000D01*
X112302380Y-110088095D01*
X112302380Y-108564285D02*
X112302380Y-109135714D01*
X112302380Y-108850000D02*
X111302380Y-108850000D01*
X111445238Y-108945238D01*
X111540476Y-109040476D01*
X111588095Y-109135714D01*
%TO.C,D2*%
X112302380Y-107488095D02*
X111302380Y-107488095D01*
X111302380Y-107250000D01*
X111350000Y-107107142D01*
X111445238Y-107011904D01*
X111540476Y-106964285D01*
X111730952Y-106916666D01*
X111873809Y-106916666D01*
X112064285Y-106964285D01*
X112159523Y-107011904D01*
X112254761Y-107107142D01*
X112302380Y-107250000D01*
X112302380Y-107488095D01*
X111397619Y-106535714D02*
X111350000Y-106488095D01*
X111302380Y-106392857D01*
X111302380Y-106154761D01*
X111350000Y-106059523D01*
X111397619Y-106011904D01*
X111492857Y-105964285D01*
X111588095Y-105964285D01*
X111730952Y-106011904D01*
X112302380Y-106583333D01*
X112302380Y-105964285D01*
%TO.C,D3*%
X112302380Y-104988095D02*
X111302380Y-104988095D01*
X111302380Y-104750000D01*
X111350000Y-104607142D01*
X111445238Y-104511904D01*
X111540476Y-104464285D01*
X111730952Y-104416666D01*
X111873809Y-104416666D01*
X112064285Y-104464285D01*
X112159523Y-104511904D01*
X112254761Y-104607142D01*
X112302380Y-104750000D01*
X112302380Y-104988095D01*
X111302380Y-104083333D02*
X111302380Y-103464285D01*
X111683333Y-103797619D01*
X111683333Y-103654761D01*
X111730952Y-103559523D01*
X111778571Y-103511904D01*
X111873809Y-103464285D01*
X112111904Y-103464285D01*
X112207142Y-103511904D01*
X112254761Y-103559523D01*
X112302380Y-103654761D01*
X112302380Y-103940476D01*
X112254761Y-104035714D01*
X112207142Y-104083333D01*
%TO.C,D4*%
X112302380Y-102438095D02*
X111302380Y-102438095D01*
X111302380Y-102200000D01*
X111350000Y-102057142D01*
X111445238Y-101961904D01*
X111540476Y-101914285D01*
X111730952Y-101866666D01*
X111873809Y-101866666D01*
X112064285Y-101914285D01*
X112159523Y-101961904D01*
X112254761Y-102057142D01*
X112302380Y-102200000D01*
X112302380Y-102438095D01*
X111635714Y-101009523D02*
X112302380Y-101009523D01*
X111254761Y-101247619D02*
X111969047Y-101485714D01*
X111969047Y-100866666D01*
%TO.C,D5*%
X112302380Y-99888095D02*
X111302380Y-99888095D01*
X111302380Y-99650000D01*
X111350000Y-99507142D01*
X111445238Y-99411904D01*
X111540476Y-99364285D01*
X111730952Y-99316666D01*
X111873809Y-99316666D01*
X112064285Y-99364285D01*
X112159523Y-99411904D01*
X112254761Y-99507142D01*
X112302380Y-99650000D01*
X112302380Y-99888095D01*
X111302380Y-98411904D02*
X111302380Y-98888095D01*
X111778571Y-98935714D01*
X111730952Y-98888095D01*
X111683333Y-98792857D01*
X111683333Y-98554761D01*
X111730952Y-98459523D01*
X111778571Y-98411904D01*
X111873809Y-98364285D01*
X112111904Y-98364285D01*
X112207142Y-98411904D01*
X112254761Y-98459523D01*
X112302380Y-98554761D01*
X112302380Y-98792857D01*
X112254761Y-98888095D01*
X112207142Y-98935714D01*
%TO.C,D6*%
X112302380Y-97388095D02*
X111302380Y-97388095D01*
X111302380Y-97150000D01*
X111350000Y-97007142D01*
X111445238Y-96911904D01*
X111540476Y-96864285D01*
X111730952Y-96816666D01*
X111873809Y-96816666D01*
X112064285Y-96864285D01*
X112159523Y-96911904D01*
X112254761Y-97007142D01*
X112302380Y-97150000D01*
X112302380Y-97388095D01*
X111302380Y-95959523D02*
X111302380Y-96150000D01*
X111350000Y-96245238D01*
X111397619Y-96292857D01*
X111540476Y-96388095D01*
X111730952Y-96435714D01*
X112111904Y-96435714D01*
X112207142Y-96388095D01*
X112254761Y-96340476D01*
X112302380Y-96245238D01*
X112302380Y-96054761D01*
X112254761Y-95959523D01*
X112207142Y-95911904D01*
X112111904Y-95864285D01*
X111873809Y-95864285D01*
X111778571Y-95911904D01*
X111730952Y-95959523D01*
X111683333Y-96054761D01*
X111683333Y-96245238D01*
X111730952Y-96340476D01*
X111778571Y-96388095D01*
X111873809Y-96435714D01*
%TO.C,D7*%
X112302380Y-94888095D02*
X111302380Y-94888095D01*
X111302380Y-94650000D01*
X111350000Y-94507142D01*
X111445238Y-94411904D01*
X111540476Y-94364285D01*
X111730952Y-94316666D01*
X111873809Y-94316666D01*
X112064285Y-94364285D01*
X112159523Y-94411904D01*
X112254761Y-94507142D01*
X112302380Y-94650000D01*
X112302380Y-94888095D01*
X111302380Y-93983333D02*
X111302380Y-93316666D01*
X112302380Y-93745238D01*
%TO.C,D8*%
X112302380Y-91038095D02*
X111302380Y-91038095D01*
X111302380Y-90800000D01*
X111350000Y-90657142D01*
X111445238Y-90561904D01*
X111540476Y-90514285D01*
X111730952Y-90466666D01*
X111873809Y-90466666D01*
X112064285Y-90514285D01*
X112159523Y-90561904D01*
X112254761Y-90657142D01*
X112302380Y-90800000D01*
X112302380Y-91038095D01*
X111730952Y-89895238D02*
X111683333Y-89990476D01*
X111635714Y-90038095D01*
X111540476Y-90085714D01*
X111492857Y-90085714D01*
X111397619Y-90038095D01*
X111350000Y-89990476D01*
X111302380Y-89895238D01*
X111302380Y-89704761D01*
X111350000Y-89609523D01*
X111397619Y-89561904D01*
X111492857Y-89514285D01*
X111540476Y-89514285D01*
X111635714Y-89561904D01*
X111683333Y-89609523D01*
X111730952Y-89704761D01*
X111730952Y-89895238D01*
X111778571Y-89990476D01*
X111826190Y-90038095D01*
X111921428Y-90085714D01*
X112111904Y-90085714D01*
X112207142Y-90038095D01*
X112254761Y-89990476D01*
X112302380Y-89895238D01*
X112302380Y-89704761D01*
X112254761Y-89609523D01*
X112207142Y-89561904D01*
X112111904Y-89514285D01*
X111921428Y-89514285D01*
X111826190Y-89561904D01*
X111778571Y-89609523D01*
X111730952Y-89704761D01*
%TO.C,D9*%
X112302380Y-88488095D02*
X111302380Y-88488095D01*
X111302380Y-88250000D01*
X111350000Y-88107142D01*
X111445238Y-88011904D01*
X111540476Y-87964285D01*
X111730952Y-87916666D01*
X111873809Y-87916666D01*
X112064285Y-87964285D01*
X112159523Y-88011904D01*
X112254761Y-88107142D01*
X112302380Y-88250000D01*
X112302380Y-88488095D01*
X112302380Y-87440476D02*
X112302380Y-87250000D01*
X112254761Y-87154761D01*
X112207142Y-87107142D01*
X112064285Y-87011904D01*
X111873809Y-86964285D01*
X111492857Y-86964285D01*
X111397619Y-87011904D01*
X111350000Y-87059523D01*
X111302380Y-87154761D01*
X111302380Y-87345238D01*
X111350000Y-87440476D01*
X111397619Y-87488095D01*
X111492857Y-87535714D01*
X111730952Y-87535714D01*
X111826190Y-87488095D01*
X111873809Y-87440476D01*
X111921428Y-87345238D01*
X111921428Y-87154761D01*
X111873809Y-87059523D01*
X111826190Y-87011904D01*
X111730952Y-86964285D01*
%TO.C,Da*%
X112302380Y-85914285D02*
X111302380Y-85914285D01*
X111302380Y-85676190D01*
X111350000Y-85533333D01*
X111445238Y-85438095D01*
X111540476Y-85390476D01*
X111730952Y-85342857D01*
X111873809Y-85342857D01*
X112064285Y-85390476D01*
X112159523Y-85438095D01*
X112254761Y-85533333D01*
X112302380Y-85676190D01*
X112302380Y-85914285D01*
X112302380Y-84485714D02*
X111778571Y-84485714D01*
X111683333Y-84533333D01*
X111635714Y-84628571D01*
X111635714Y-84819047D01*
X111683333Y-84914285D01*
X112254761Y-84485714D02*
X112302380Y-84580952D01*
X112302380Y-84819047D01*
X112254761Y-84914285D01*
X112159523Y-84961904D01*
X112064285Y-84961904D01*
X111969047Y-84914285D01*
X111921428Y-84819047D01*
X111921428Y-84580952D01*
X111873809Y-84485714D01*
%TO.C,Db*%
X112302380Y-83414285D02*
X111302380Y-83414285D01*
X111302380Y-83176190D01*
X111350000Y-83033333D01*
X111445238Y-82938095D01*
X111540476Y-82890476D01*
X111730952Y-82842857D01*
X111873809Y-82842857D01*
X112064285Y-82890476D01*
X112159523Y-82938095D01*
X112254761Y-83033333D01*
X112302380Y-83176190D01*
X112302380Y-83414285D01*
X112302380Y-82414285D02*
X111302380Y-82414285D01*
X111683333Y-82414285D02*
X111635714Y-82319047D01*
X111635714Y-82128571D01*
X111683333Y-82033333D01*
X111730952Y-81985714D01*
X111826190Y-81938095D01*
X112111904Y-81938095D01*
X112207142Y-81985714D01*
X112254761Y-82033333D01*
X112302380Y-82128571D01*
X112302380Y-82319047D01*
X112254761Y-82414285D01*
%TO.C,Dc*%
X112302380Y-80840476D02*
X111302380Y-80840476D01*
X111302380Y-80602380D01*
X111350000Y-80459523D01*
X111445238Y-80364285D01*
X111540476Y-80316666D01*
X111730952Y-80269047D01*
X111873809Y-80269047D01*
X112064285Y-80316666D01*
X112159523Y-80364285D01*
X112254761Y-80459523D01*
X112302380Y-80602380D01*
X112302380Y-80840476D01*
X112254761Y-79411904D02*
X112302380Y-79507142D01*
X112302380Y-79697619D01*
X112254761Y-79792857D01*
X112207142Y-79840476D01*
X112111904Y-79888095D01*
X111826190Y-79888095D01*
X111730952Y-79840476D01*
X111683333Y-79792857D01*
X111635714Y-79697619D01*
X111635714Y-79507142D01*
X111683333Y-79411904D01*
%TO.C,Dd*%
X112302380Y-78314285D02*
X111302380Y-78314285D01*
X111302380Y-78076190D01*
X111350000Y-77933333D01*
X111445238Y-77838095D01*
X111540476Y-77790476D01*
X111730952Y-77742857D01*
X111873809Y-77742857D01*
X112064285Y-77790476D01*
X112159523Y-77838095D01*
X112254761Y-77933333D01*
X112302380Y-78076190D01*
X112302380Y-78314285D01*
X112302380Y-76885714D02*
X111302380Y-76885714D01*
X112254761Y-76885714D02*
X112302380Y-76980952D01*
X112302380Y-77171428D01*
X112254761Y-77266666D01*
X112207142Y-77314285D01*
X112111904Y-77361904D01*
X111826190Y-77361904D01*
X111730952Y-77314285D01*
X111683333Y-77266666D01*
X111635714Y-77171428D01*
X111635714Y-76980952D01*
X111683333Y-76885714D01*
%TO.C,De*%
X112302380Y-75790476D02*
X111302380Y-75790476D01*
X111302380Y-75552380D01*
X111350000Y-75409523D01*
X111445238Y-75314285D01*
X111540476Y-75266666D01*
X111730952Y-75219047D01*
X111873809Y-75219047D01*
X112064285Y-75266666D01*
X112159523Y-75314285D01*
X112254761Y-75409523D01*
X112302380Y-75552380D01*
X112302380Y-75790476D01*
X112254761Y-74409523D02*
X112302380Y-74504761D01*
X112302380Y-74695238D01*
X112254761Y-74790476D01*
X112159523Y-74838095D01*
X111778571Y-74838095D01*
X111683333Y-74790476D01*
X111635714Y-74695238D01*
X111635714Y-74504761D01*
X111683333Y-74409523D01*
X111778571Y-74361904D01*
X111873809Y-74361904D01*
X111969047Y-74838095D01*
%TO.C,Df*%
X112302380Y-73097619D02*
X111302380Y-73097619D01*
X111302380Y-72859523D01*
X111350000Y-72716666D01*
X111445238Y-72621428D01*
X111540476Y-72573809D01*
X111730952Y-72526190D01*
X111873809Y-72526190D01*
X112064285Y-72573809D01*
X112159523Y-72621428D01*
X112254761Y-72716666D01*
X112302380Y-72859523D01*
X112302380Y-73097619D01*
X111635714Y-72240476D02*
X111635714Y-71859523D01*
X112302380Y-72097619D02*
X111445238Y-72097619D01*
X111350000Y-72050000D01*
X111302380Y-71954761D01*
X111302380Y-71859523D01*
%TO.C,RN1*%
X105909523Y-116102380D02*
X105576190Y-115626190D01*
X105338095Y-116102380D02*
X105338095Y-115102380D01*
X105719047Y-115102380D01*
X105814285Y-115150000D01*
X105861904Y-115197619D01*
X105909523Y-115292857D01*
X105909523Y-115435714D01*
X105861904Y-115530952D01*
X105814285Y-115578571D01*
X105719047Y-115626190D01*
X105338095Y-115626190D01*
X106338095Y-116102380D02*
X106338095Y-115102380D01*
X106909523Y-116102380D01*
X106909523Y-115102380D01*
X107909523Y-116102380D02*
X107338095Y-116102380D01*
X107623809Y-116102380D02*
X107623809Y-115102380D01*
X107528571Y-115245238D01*
X107433333Y-115340476D01*
X107338095Y-115388095D01*
%TO.C,RN2*%
X105909523Y-70502380D02*
X105576190Y-70026190D01*
X105338095Y-70502380D02*
X105338095Y-69502380D01*
X105719047Y-69502380D01*
X105814285Y-69550000D01*
X105861904Y-69597619D01*
X105909523Y-69692857D01*
X105909523Y-69835714D01*
X105861904Y-69930952D01*
X105814285Y-69978571D01*
X105719047Y-70026190D01*
X105338095Y-70026190D01*
X106338095Y-70502380D02*
X106338095Y-69502380D01*
X106909523Y-70502380D01*
X106909523Y-69502380D01*
X107338095Y-69597619D02*
X107385714Y-69550000D01*
X107480952Y-69502380D01*
X107719047Y-69502380D01*
X107814285Y-69550000D01*
X107861904Y-69597619D01*
X107909523Y-69692857D01*
X107909523Y-69788095D01*
X107861904Y-69930952D01*
X107290476Y-70502380D01*
X107909523Y-70502380D01*
%TD*%
M02*
