M48
; DRILL file {KiCad (5.1.9)-1} date 02/04/21 07:57:04
; FORMAT={-:-/ absolute / inch / decimal}
; #@! TF.CreationDate,2021-02-04T07:57:04-05:00
; #@! TF.GenerationSoftware,Kicad,Pcbnew,(5.1.9)-1
; #@! TF.FileFunction,Plated,1,2,PTH
FMAT,2
INCH
T1C0.0315
T2C0.0394
%
G90
G05
T1
X4.3189Y-2.7677
X4.3189Y-2.8677
X4.3189Y-2.9677
X4.3189Y-3.0677
X4.3189Y-3.1677
X4.3189Y-3.2677
X4.3189Y-3.3677
X4.3189Y-3.4677
X4.3189Y-3.5677
X4.3189Y-3.7059
X4.3189Y-3.8059
X4.3189Y-3.9059
X4.3189Y-4.0059
X4.3189Y-4.1059
X4.3189Y-4.2059
X4.3189Y-4.3059
X4.3189Y-4.4059
X4.3189Y-4.5059
T2
X4.1811Y-2.8547
X4.1811Y-2.9547
X4.1811Y-3.0547
X4.1811Y-3.1547
X4.1811Y-3.2547
X4.1811Y-3.3547
X4.1811Y-3.4547
X4.1811Y-3.5547
X4.1811Y-3.6547
X4.1811Y-3.7547
X4.1811Y-3.8547
X4.1811Y-3.9547
X4.1811Y-4.0547
X4.1811Y-4.1547
X4.1811Y-4.2547
X4.1811Y-4.3547
X4.1811Y-4.4547
X4.4803Y-2.8547
X4.4803Y-2.9547
X4.4803Y-3.0547
X4.4803Y-3.1547
X4.4803Y-3.2547
X4.4803Y-3.3547
X4.4803Y-3.4547
X4.4803Y-3.5547
X4.4803Y-3.6547
X4.4803Y-3.7547
X4.4803Y-3.8547
X4.4803Y-3.9547
X4.4803Y-4.0547
X4.4803Y-4.1547
X4.4803Y-4.2547
X4.4803Y-4.3547
X4.4803Y-4.4547
T0
M30
