%TF.GenerationSoftware,KiCad,Pcbnew,(5.1.9)-1*%
%TF.CreationDate,2021-02-04T07:57:01-05:00*%
%TF.ProjectId,NerdConsole_BreadBoard_BridgeMonitor16,4e657264-436f-46e7-936f-6c655f427265,rev?*%
%TF.SameCoordinates,Original*%
%TF.FileFunction,Soldermask,Top*%
%TF.FilePolarity,Negative*%
%FSLAX46Y46*%
G04 Gerber Fmt 4.6, Leading zero omitted, Abs format (unit mm)*
G04 Created by KiCad (PCBNEW (5.1.9)-1) date 2021-02-04 07:57:01*
%MOMM*%
%LPD*%
G01*
G04 APERTURE LIST*
%ADD10O,1.700000X1.700000*%
%ADD11R,1.700000X1.700000*%
%ADD12R,1.600000X1.600000*%
%ADD13O,1.600000X1.600000*%
G04 APERTURE END LIST*
%TO.C,D0*%
G36*
G01*
X117100000Y-111399999D02*
X117100000Y-112300001D01*
G75*
G02*
X116850001Y-112550000I-249999J0D01*
G01*
X116199999Y-112550000D01*
G75*
G02*
X115950000Y-112300001I0J249999D01*
G01*
X115950000Y-111399999D01*
G75*
G02*
X116199999Y-111150000I249999J0D01*
G01*
X116850001Y-111150000D01*
G75*
G02*
X117100000Y-111399999I0J-249999D01*
G01*
G37*
G36*
G01*
X119150000Y-111399999D02*
X119150000Y-112300001D01*
G75*
G02*
X118900001Y-112550000I-249999J0D01*
G01*
X118249999Y-112550000D01*
G75*
G02*
X118000000Y-112300001I0J249999D01*
G01*
X118000000Y-111399999D01*
G75*
G02*
X118249999Y-111150000I249999J0D01*
G01*
X118900001Y-111150000D01*
G75*
G02*
X119150000Y-111399999I0J-249999D01*
G01*
G37*
%TD*%
%TO.C,D1*%
G36*
G01*
X119150000Y-108899999D02*
X119150000Y-109800001D01*
G75*
G02*
X118900001Y-110050000I-249999J0D01*
G01*
X118249999Y-110050000D01*
G75*
G02*
X118000000Y-109800001I0J249999D01*
G01*
X118000000Y-108899999D01*
G75*
G02*
X118249999Y-108650000I249999J0D01*
G01*
X118900001Y-108650000D01*
G75*
G02*
X119150000Y-108899999I0J-249999D01*
G01*
G37*
G36*
G01*
X117100000Y-108899999D02*
X117100000Y-109800001D01*
G75*
G02*
X116850001Y-110050000I-249999J0D01*
G01*
X116199999Y-110050000D01*
G75*
G02*
X115950000Y-109800001I0J249999D01*
G01*
X115950000Y-108899999D01*
G75*
G02*
X116199999Y-108650000I249999J0D01*
G01*
X116850001Y-108650000D01*
G75*
G02*
X117100000Y-108899999I0J-249999D01*
G01*
G37*
%TD*%
%TO.C,D2*%
G36*
G01*
X117100000Y-106349999D02*
X117100000Y-107250001D01*
G75*
G02*
X116850001Y-107500000I-249999J0D01*
G01*
X116199999Y-107500000D01*
G75*
G02*
X115950000Y-107250001I0J249999D01*
G01*
X115950000Y-106349999D01*
G75*
G02*
X116199999Y-106100000I249999J0D01*
G01*
X116850001Y-106100000D01*
G75*
G02*
X117100000Y-106349999I0J-249999D01*
G01*
G37*
G36*
G01*
X119150000Y-106349999D02*
X119150000Y-107250001D01*
G75*
G02*
X118900001Y-107500000I-249999J0D01*
G01*
X118249999Y-107500000D01*
G75*
G02*
X118000000Y-107250001I0J249999D01*
G01*
X118000000Y-106349999D01*
G75*
G02*
X118249999Y-106100000I249999J0D01*
G01*
X118900001Y-106100000D01*
G75*
G02*
X119150000Y-106349999I0J-249999D01*
G01*
G37*
%TD*%
%TO.C,D3*%
G36*
G01*
X119150000Y-103799999D02*
X119150000Y-104700001D01*
G75*
G02*
X118900001Y-104950000I-249999J0D01*
G01*
X118249999Y-104950000D01*
G75*
G02*
X118000000Y-104700001I0J249999D01*
G01*
X118000000Y-103799999D01*
G75*
G02*
X118249999Y-103550000I249999J0D01*
G01*
X118900001Y-103550000D01*
G75*
G02*
X119150000Y-103799999I0J-249999D01*
G01*
G37*
G36*
G01*
X117100000Y-103799999D02*
X117100000Y-104700001D01*
G75*
G02*
X116850001Y-104950000I-249999J0D01*
G01*
X116199999Y-104950000D01*
G75*
G02*
X115950000Y-104700001I0J249999D01*
G01*
X115950000Y-103799999D01*
G75*
G02*
X116199999Y-103550000I249999J0D01*
G01*
X116850001Y-103550000D01*
G75*
G02*
X117100000Y-103799999I0J-249999D01*
G01*
G37*
%TD*%
%TO.C,D4*%
G36*
G01*
X117100000Y-101249999D02*
X117100000Y-102150001D01*
G75*
G02*
X116850001Y-102400000I-249999J0D01*
G01*
X116199999Y-102400000D01*
G75*
G02*
X115950000Y-102150001I0J249999D01*
G01*
X115950000Y-101249999D01*
G75*
G02*
X116199999Y-101000000I249999J0D01*
G01*
X116850001Y-101000000D01*
G75*
G02*
X117100000Y-101249999I0J-249999D01*
G01*
G37*
G36*
G01*
X119150000Y-101249999D02*
X119150000Y-102150001D01*
G75*
G02*
X118900001Y-102400000I-249999J0D01*
G01*
X118249999Y-102400000D01*
G75*
G02*
X118000000Y-102150001I0J249999D01*
G01*
X118000000Y-101249999D01*
G75*
G02*
X118249999Y-101000000I249999J0D01*
G01*
X118900001Y-101000000D01*
G75*
G02*
X119150000Y-101249999I0J-249999D01*
G01*
G37*
%TD*%
%TO.C,D5*%
G36*
G01*
X119150000Y-98699999D02*
X119150000Y-99600001D01*
G75*
G02*
X118900001Y-99850000I-249999J0D01*
G01*
X118249999Y-99850000D01*
G75*
G02*
X118000000Y-99600001I0J249999D01*
G01*
X118000000Y-98699999D01*
G75*
G02*
X118249999Y-98450000I249999J0D01*
G01*
X118900001Y-98450000D01*
G75*
G02*
X119150000Y-98699999I0J-249999D01*
G01*
G37*
G36*
G01*
X117100000Y-98699999D02*
X117100000Y-99600001D01*
G75*
G02*
X116850001Y-99850000I-249999J0D01*
G01*
X116199999Y-99850000D01*
G75*
G02*
X115950000Y-99600001I0J249999D01*
G01*
X115950000Y-98699999D01*
G75*
G02*
X116199999Y-98450000I249999J0D01*
G01*
X116850001Y-98450000D01*
G75*
G02*
X117100000Y-98699999I0J-249999D01*
G01*
G37*
%TD*%
%TO.C,D6*%
G36*
G01*
X119150000Y-96199999D02*
X119150000Y-97100001D01*
G75*
G02*
X118900001Y-97350000I-249999J0D01*
G01*
X118249999Y-97350000D01*
G75*
G02*
X118000000Y-97100001I0J249999D01*
G01*
X118000000Y-96199999D01*
G75*
G02*
X118249999Y-95950000I249999J0D01*
G01*
X118900001Y-95950000D01*
G75*
G02*
X119150000Y-96199999I0J-249999D01*
G01*
G37*
G36*
G01*
X117100000Y-96199999D02*
X117100000Y-97100001D01*
G75*
G02*
X116850001Y-97350000I-249999J0D01*
G01*
X116199999Y-97350000D01*
G75*
G02*
X115950000Y-97100001I0J249999D01*
G01*
X115950000Y-96199999D01*
G75*
G02*
X116199999Y-95950000I249999J0D01*
G01*
X116850001Y-95950000D01*
G75*
G02*
X117100000Y-96199999I0J-249999D01*
G01*
G37*
%TD*%
%TO.C,D7*%
G36*
G01*
X117100000Y-93649999D02*
X117100000Y-94550001D01*
G75*
G02*
X116850001Y-94800000I-249999J0D01*
G01*
X116199999Y-94800000D01*
G75*
G02*
X115950000Y-94550001I0J249999D01*
G01*
X115950000Y-93649999D01*
G75*
G02*
X116199999Y-93400000I249999J0D01*
G01*
X116850001Y-93400000D01*
G75*
G02*
X117100000Y-93649999I0J-249999D01*
G01*
G37*
G36*
G01*
X119150000Y-93649999D02*
X119150000Y-94550001D01*
G75*
G02*
X118900001Y-94800000I-249999J0D01*
G01*
X118249999Y-94800000D01*
G75*
G02*
X118000000Y-94550001I0J249999D01*
G01*
X118000000Y-93649999D01*
G75*
G02*
X118249999Y-93400000I249999J0D01*
G01*
X118900001Y-93400000D01*
G75*
G02*
X119150000Y-93649999I0J-249999D01*
G01*
G37*
%TD*%
%TO.C,D8*%
G36*
G01*
X119150000Y-89849999D02*
X119150000Y-90750001D01*
G75*
G02*
X118900001Y-91000000I-249999J0D01*
G01*
X118249999Y-91000000D01*
G75*
G02*
X118000000Y-90750001I0J249999D01*
G01*
X118000000Y-89849999D01*
G75*
G02*
X118249999Y-89600000I249999J0D01*
G01*
X118900001Y-89600000D01*
G75*
G02*
X119150000Y-89849999I0J-249999D01*
G01*
G37*
G36*
G01*
X117100000Y-89849999D02*
X117100000Y-90750001D01*
G75*
G02*
X116850001Y-91000000I-249999J0D01*
G01*
X116199999Y-91000000D01*
G75*
G02*
X115950000Y-90750001I0J249999D01*
G01*
X115950000Y-89849999D01*
G75*
G02*
X116199999Y-89600000I249999J0D01*
G01*
X116850001Y-89600000D01*
G75*
G02*
X117100000Y-89849999I0J-249999D01*
G01*
G37*
%TD*%
%TO.C,D9*%
G36*
G01*
X117100000Y-87299999D02*
X117100000Y-88200001D01*
G75*
G02*
X116850001Y-88450000I-249999J0D01*
G01*
X116199999Y-88450000D01*
G75*
G02*
X115950000Y-88200001I0J249999D01*
G01*
X115950000Y-87299999D01*
G75*
G02*
X116199999Y-87050000I249999J0D01*
G01*
X116850001Y-87050000D01*
G75*
G02*
X117100000Y-87299999I0J-249999D01*
G01*
G37*
G36*
G01*
X119150000Y-87299999D02*
X119150000Y-88200001D01*
G75*
G02*
X118900001Y-88450000I-249999J0D01*
G01*
X118249999Y-88450000D01*
G75*
G02*
X118000000Y-88200001I0J249999D01*
G01*
X118000000Y-87299999D01*
G75*
G02*
X118249999Y-87050000I249999J0D01*
G01*
X118900001Y-87050000D01*
G75*
G02*
X119150000Y-87299999I0J-249999D01*
G01*
G37*
%TD*%
%TO.C,Da*%
G36*
G01*
X119150000Y-84749999D02*
X119150000Y-85650001D01*
G75*
G02*
X118900001Y-85900000I-249999J0D01*
G01*
X118249999Y-85900000D01*
G75*
G02*
X118000000Y-85650001I0J249999D01*
G01*
X118000000Y-84749999D01*
G75*
G02*
X118249999Y-84500000I249999J0D01*
G01*
X118900001Y-84500000D01*
G75*
G02*
X119150000Y-84749999I0J-249999D01*
G01*
G37*
G36*
G01*
X117100000Y-84749999D02*
X117100000Y-85650001D01*
G75*
G02*
X116850001Y-85900000I-249999J0D01*
G01*
X116199999Y-85900000D01*
G75*
G02*
X115950000Y-85650001I0J249999D01*
G01*
X115950000Y-84749999D01*
G75*
G02*
X116199999Y-84500000I249999J0D01*
G01*
X116850001Y-84500000D01*
G75*
G02*
X117100000Y-84749999I0J-249999D01*
G01*
G37*
%TD*%
%TO.C,Db*%
G36*
G01*
X117100000Y-82249999D02*
X117100000Y-83150001D01*
G75*
G02*
X116850001Y-83400000I-249999J0D01*
G01*
X116199999Y-83400000D01*
G75*
G02*
X115950000Y-83150001I0J249999D01*
G01*
X115950000Y-82249999D01*
G75*
G02*
X116199999Y-82000000I249999J0D01*
G01*
X116850001Y-82000000D01*
G75*
G02*
X117100000Y-82249999I0J-249999D01*
G01*
G37*
G36*
G01*
X119150000Y-82249999D02*
X119150000Y-83150001D01*
G75*
G02*
X118900001Y-83400000I-249999J0D01*
G01*
X118249999Y-83400000D01*
G75*
G02*
X118000000Y-83150001I0J249999D01*
G01*
X118000000Y-82249999D01*
G75*
G02*
X118249999Y-82000000I249999J0D01*
G01*
X118900001Y-82000000D01*
G75*
G02*
X119150000Y-82249999I0J-249999D01*
G01*
G37*
%TD*%
%TO.C,Dc*%
G36*
G01*
X119150000Y-79699999D02*
X119150000Y-80600001D01*
G75*
G02*
X118900001Y-80850000I-249999J0D01*
G01*
X118249999Y-80850000D01*
G75*
G02*
X118000000Y-80600001I0J249999D01*
G01*
X118000000Y-79699999D01*
G75*
G02*
X118249999Y-79450000I249999J0D01*
G01*
X118900001Y-79450000D01*
G75*
G02*
X119150000Y-79699999I0J-249999D01*
G01*
G37*
G36*
G01*
X117100000Y-79699999D02*
X117100000Y-80600001D01*
G75*
G02*
X116850001Y-80850000I-249999J0D01*
G01*
X116199999Y-80850000D01*
G75*
G02*
X115950000Y-80600001I0J249999D01*
G01*
X115950000Y-79699999D01*
G75*
G02*
X116199999Y-79450000I249999J0D01*
G01*
X116850001Y-79450000D01*
G75*
G02*
X117100000Y-79699999I0J-249999D01*
G01*
G37*
%TD*%
%TO.C,Dd*%
G36*
G01*
X117100000Y-77149999D02*
X117100000Y-78050001D01*
G75*
G02*
X116850001Y-78300000I-249999J0D01*
G01*
X116199999Y-78300000D01*
G75*
G02*
X115950000Y-78050001I0J249999D01*
G01*
X115950000Y-77149999D01*
G75*
G02*
X116199999Y-76900000I249999J0D01*
G01*
X116850001Y-76900000D01*
G75*
G02*
X117100000Y-77149999I0J-249999D01*
G01*
G37*
G36*
G01*
X119150000Y-77149999D02*
X119150000Y-78050001D01*
G75*
G02*
X118900001Y-78300000I-249999J0D01*
G01*
X118249999Y-78300000D01*
G75*
G02*
X118000000Y-78050001I0J249999D01*
G01*
X118000000Y-77149999D01*
G75*
G02*
X118249999Y-76900000I249999J0D01*
G01*
X118900001Y-76900000D01*
G75*
G02*
X119150000Y-77149999I0J-249999D01*
G01*
G37*
%TD*%
%TO.C,De*%
G36*
G01*
X119150000Y-74599999D02*
X119150000Y-75500001D01*
G75*
G02*
X118900001Y-75750000I-249999J0D01*
G01*
X118249999Y-75750000D01*
G75*
G02*
X118000000Y-75500001I0J249999D01*
G01*
X118000000Y-74599999D01*
G75*
G02*
X118249999Y-74350000I249999J0D01*
G01*
X118900001Y-74350000D01*
G75*
G02*
X119150000Y-74599999I0J-249999D01*
G01*
G37*
G36*
G01*
X117100000Y-74599999D02*
X117100000Y-75500001D01*
G75*
G02*
X116850001Y-75750000I-249999J0D01*
G01*
X116199999Y-75750000D01*
G75*
G02*
X115950000Y-75500001I0J249999D01*
G01*
X115950000Y-74599999D01*
G75*
G02*
X116199999Y-74350000I249999J0D01*
G01*
X116850001Y-74350000D01*
G75*
G02*
X117100000Y-74599999I0J-249999D01*
G01*
G37*
%TD*%
%TO.C,Df*%
G36*
G01*
X117100000Y-72049999D02*
X117100000Y-72950001D01*
G75*
G02*
X116850001Y-73200000I-249999J0D01*
G01*
X116199999Y-73200000D01*
G75*
G02*
X115950000Y-72950001I0J249999D01*
G01*
X115950000Y-72049999D01*
G75*
G02*
X116199999Y-71800000I249999J0D01*
G01*
X116850001Y-71800000D01*
G75*
G02*
X117100000Y-72049999I0J-249999D01*
G01*
G37*
G36*
G01*
X119150000Y-72049999D02*
X119150000Y-72950001D01*
G75*
G02*
X118900001Y-73200000I-249999J0D01*
G01*
X118249999Y-73200000D01*
G75*
G02*
X118000000Y-72950001I0J249999D01*
G01*
X118000000Y-72049999D01*
G75*
G02*
X118249999Y-71800000I249999J0D01*
G01*
X118900001Y-71800000D01*
G75*
G02*
X119150000Y-72049999I0J-249999D01*
G01*
G37*
%TD*%
D10*
%TO.C,J1*%
X113800000Y-72510000D03*
X113800000Y-75050000D03*
X113800000Y-77590000D03*
X113800000Y-80130000D03*
X113800000Y-82670000D03*
X113800000Y-85210000D03*
X113800000Y-87750000D03*
X113800000Y-90290000D03*
X113800000Y-92830000D03*
X113800000Y-95370000D03*
X113800000Y-97910000D03*
X113800000Y-100450000D03*
X113800000Y-102990000D03*
X113800000Y-105530000D03*
X113800000Y-108070000D03*
X113800000Y-110610000D03*
D11*
X113800000Y-113150000D03*
%TD*%
%TO.C,J2*%
X106200000Y-113150000D03*
D10*
X106200000Y-110610000D03*
X106200000Y-108070000D03*
X106200000Y-105530000D03*
X106200000Y-102990000D03*
X106200000Y-100450000D03*
X106200000Y-97910000D03*
X106200000Y-95370000D03*
X106200000Y-92830000D03*
X106200000Y-90290000D03*
X106200000Y-87750000D03*
X106200000Y-85210000D03*
X106200000Y-82670000D03*
X106200000Y-80130000D03*
X106200000Y-77590000D03*
X106200000Y-75050000D03*
X106200000Y-72510000D03*
%TD*%
D12*
%TO.C,RN1*%
X109700000Y-114450000D03*
D13*
X109700000Y-111910000D03*
X109700000Y-109370000D03*
X109700000Y-106830000D03*
X109700000Y-104290000D03*
X109700000Y-101750000D03*
X109700000Y-99210000D03*
X109700000Y-96670000D03*
X109700000Y-94130000D03*
%TD*%
%TO.C,RN2*%
X109700000Y-90620000D03*
X109700000Y-88080000D03*
X109700000Y-85540000D03*
X109700000Y-83000000D03*
X109700000Y-80460000D03*
X109700000Y-77920000D03*
X109700000Y-75380000D03*
X109700000Y-72840000D03*
D12*
X109700000Y-70300000D03*
%TD*%
M02*
