%TF.GenerationSoftware,KiCad,Pcbnew,(5.1.9)-1*%
%TF.CreationDate,2021-02-03T23:05:28-05:00*%
%TF.ProjectId,NerdConsole_BreadBoard_Monitor8,4e657264-436f-46e7-936f-6c655f427265,rev?*%
%TF.SameCoordinates,Original*%
%TF.FileFunction,Legend,Top*%
%TF.FilePolarity,Positive*%
%FSLAX46Y46*%
G04 Gerber Fmt 4.6, Leading zero omitted, Abs format (unit mm)*
G04 Created by KiCad (PCBNEW (5.1.9)-1) date 2021-02-03 23:05:28*
%MOMM*%
%LPD*%
G01*
G04 APERTURE LIST*
%ADD10C,0.150000*%
%ADD11C,0.120000*%
G04 APERTURE END LIST*
D10*
X162750000Y-91761904D02*
X162702380Y-91857142D01*
X162702380Y-92000000D01*
X162750000Y-92142857D01*
X162845238Y-92238095D01*
X162940476Y-92285714D01*
X163130952Y-92333333D01*
X163273809Y-92333333D01*
X163464285Y-92285714D01*
X163559523Y-92238095D01*
X163654761Y-92142857D01*
X163702380Y-92000000D01*
X163702380Y-91904761D01*
X163654761Y-91761904D01*
X163607142Y-91714285D01*
X163273809Y-91714285D01*
X163273809Y-91904761D01*
X163702380Y-91285714D02*
X162702380Y-91285714D01*
X163702380Y-90714285D01*
X162702380Y-90714285D01*
X163702380Y-90238095D02*
X162702380Y-90238095D01*
X162702380Y-90000000D01*
X162750000Y-89857142D01*
X162845238Y-89761904D01*
X162940476Y-89714285D01*
X163130952Y-89666666D01*
X163273809Y-89666666D01*
X163464285Y-89714285D01*
X163559523Y-89761904D01*
X163654761Y-89857142D01*
X163702380Y-90000000D01*
X163702380Y-90238095D01*
X158452380Y-80352380D02*
X158547619Y-80352380D01*
X158642857Y-80400000D01*
X158690476Y-80447619D01*
X158738095Y-80542857D01*
X158785714Y-80733333D01*
X158785714Y-80971428D01*
X158738095Y-81161904D01*
X158690476Y-81257142D01*
X158642857Y-81304761D01*
X158547619Y-81352380D01*
X158452380Y-81352380D01*
X158357142Y-81304761D01*
X158309523Y-81257142D01*
X158261904Y-81161904D01*
X158214285Y-80971428D01*
X158214285Y-80733333D01*
X158261904Y-80542857D01*
X158309523Y-80447619D01*
X158357142Y-80400000D01*
X158452380Y-80352380D01*
X156185714Y-81352380D02*
X155614285Y-81352380D01*
X155900000Y-81352380D02*
X155900000Y-80352380D01*
X155804761Y-80495238D01*
X155709523Y-80590476D01*
X155614285Y-80638095D01*
X153114285Y-80447619D02*
X153161904Y-80400000D01*
X153257142Y-80352380D01*
X153495238Y-80352380D01*
X153590476Y-80400000D01*
X153638095Y-80447619D01*
X153685714Y-80542857D01*
X153685714Y-80638095D01*
X153638095Y-80780952D01*
X153066666Y-81352380D01*
X153685714Y-81352380D01*
X150566666Y-80352380D02*
X151185714Y-80352380D01*
X150852380Y-80733333D01*
X150995238Y-80733333D01*
X151090476Y-80780952D01*
X151138095Y-80828571D01*
X151185714Y-80923809D01*
X151185714Y-81161904D01*
X151138095Y-81257142D01*
X151090476Y-81304761D01*
X150995238Y-81352380D01*
X150709523Y-81352380D01*
X150614285Y-81304761D01*
X150566666Y-81257142D01*
X148490476Y-80685714D02*
X148490476Y-81352380D01*
X148252380Y-80304761D02*
X148014285Y-81019047D01*
X148633333Y-81019047D01*
X145938095Y-80352380D02*
X145461904Y-80352380D01*
X145414285Y-80828571D01*
X145461904Y-80780952D01*
X145557142Y-80733333D01*
X145795238Y-80733333D01*
X145890476Y-80780952D01*
X145938095Y-80828571D01*
X145985714Y-80923809D01*
X145985714Y-81161904D01*
X145938095Y-81257142D01*
X145890476Y-81304761D01*
X145795238Y-81352380D01*
X145557142Y-81352380D01*
X145461904Y-81304761D01*
X145414285Y-81257142D01*
X143390476Y-80352380D02*
X143200000Y-80352380D01*
X143104761Y-80400000D01*
X143057142Y-80447619D01*
X142961904Y-80590476D01*
X142914285Y-80780952D01*
X142914285Y-81161904D01*
X142961904Y-81257142D01*
X143009523Y-81304761D01*
X143104761Y-81352380D01*
X143295238Y-81352380D01*
X143390476Y-81304761D01*
X143438095Y-81257142D01*
X143485714Y-81161904D01*
X143485714Y-80923809D01*
X143438095Y-80828571D01*
X143390476Y-80780952D01*
X143295238Y-80733333D01*
X143104761Y-80733333D01*
X143009523Y-80780952D01*
X142961904Y-80828571D01*
X142914285Y-80923809D01*
X140366666Y-80352380D02*
X141033333Y-80352380D01*
X140604761Y-81352380D01*
D11*
%TO.C,D1*%
X159460000Y-85260000D02*
X159460000Y-82400000D01*
X157540000Y-85260000D02*
X159460000Y-85260000D01*
X157540000Y-82400000D02*
X157540000Y-85260000D01*
%TO.C,D2*%
X154940000Y-82400000D02*
X154940000Y-85260000D01*
X154940000Y-85260000D02*
X156860000Y-85260000D01*
X156860000Y-85260000D02*
X156860000Y-82400000D01*
%TO.C,D3*%
X154360000Y-85260000D02*
X154360000Y-82400000D01*
X152440000Y-85260000D02*
X154360000Y-85260000D01*
X152440000Y-82400000D02*
X152440000Y-85260000D01*
%TO.C,D4*%
X149940000Y-82400000D02*
X149940000Y-85260000D01*
X149940000Y-85260000D02*
X151860000Y-85260000D01*
X151860000Y-85260000D02*
X151860000Y-82400000D01*
%TO.C,D5*%
X149260000Y-85260000D02*
X149260000Y-82400000D01*
X147340000Y-85260000D02*
X149260000Y-85260000D01*
X147340000Y-82400000D02*
X147340000Y-85260000D01*
%TO.C,D6*%
X144740000Y-82400000D02*
X144740000Y-85260000D01*
X144740000Y-85260000D02*
X146660000Y-85260000D01*
X146660000Y-85260000D02*
X146660000Y-82400000D01*
%TO.C,D7*%
X144160000Y-85260000D02*
X144160000Y-82400000D01*
X142240000Y-85260000D02*
X144160000Y-85260000D01*
X142240000Y-82400000D02*
X142240000Y-85260000D01*
%TO.C,D8*%
X139740000Y-82400000D02*
X139740000Y-85260000D01*
X139740000Y-85260000D02*
X141660000Y-85260000D01*
X141660000Y-85260000D02*
X141660000Y-82400000D01*
%TO.C,J1*%
X162330000Y-90500000D02*
X162330000Y-91830000D01*
X162330000Y-91830000D02*
X161000000Y-91830000D01*
X159730000Y-91830000D02*
X139350000Y-91830000D01*
X139350000Y-89170000D02*
X139350000Y-91830000D01*
X159730000Y-89170000D02*
X139350000Y-89170000D01*
X159730000Y-89170000D02*
X159730000Y-91830000D01*
%TO.C,RN1*%
X159730000Y-88400000D02*
X159730000Y-85600000D01*
X139240000Y-88400000D02*
X162440000Y-88400000D01*
X139240000Y-85600000D02*
X139240000Y-88400000D01*
X162440000Y-85600000D02*
X139240000Y-85600000D01*
X162440000Y-88400000D02*
X162440000Y-85600000D01*
%TO.C,D1*%
D10*
X157761904Y-89152380D02*
X157761904Y-88152380D01*
X158000000Y-88152380D01*
X158142857Y-88200000D01*
X158238095Y-88295238D01*
X158285714Y-88390476D01*
X158333333Y-88580952D01*
X158333333Y-88723809D01*
X158285714Y-88914285D01*
X158238095Y-89009523D01*
X158142857Y-89104761D01*
X158000000Y-89152380D01*
X157761904Y-89152380D01*
X159285714Y-89152380D02*
X158714285Y-89152380D01*
X159000000Y-89152380D02*
X159000000Y-88152380D01*
X158904761Y-88295238D01*
X158809523Y-88390476D01*
X158714285Y-88438095D01*
%TO.C,D2*%
X155161904Y-89152380D02*
X155161904Y-88152380D01*
X155400000Y-88152380D01*
X155542857Y-88200000D01*
X155638095Y-88295238D01*
X155685714Y-88390476D01*
X155733333Y-88580952D01*
X155733333Y-88723809D01*
X155685714Y-88914285D01*
X155638095Y-89009523D01*
X155542857Y-89104761D01*
X155400000Y-89152380D01*
X155161904Y-89152380D01*
X156114285Y-88247619D02*
X156161904Y-88200000D01*
X156257142Y-88152380D01*
X156495238Y-88152380D01*
X156590476Y-88200000D01*
X156638095Y-88247619D01*
X156685714Y-88342857D01*
X156685714Y-88438095D01*
X156638095Y-88580952D01*
X156066666Y-89152380D01*
X156685714Y-89152380D01*
%TO.C,D3*%
X152661904Y-89152380D02*
X152661904Y-88152380D01*
X152900000Y-88152380D01*
X153042857Y-88200000D01*
X153138095Y-88295238D01*
X153185714Y-88390476D01*
X153233333Y-88580952D01*
X153233333Y-88723809D01*
X153185714Y-88914285D01*
X153138095Y-89009523D01*
X153042857Y-89104761D01*
X152900000Y-89152380D01*
X152661904Y-89152380D01*
X153566666Y-88152380D02*
X154185714Y-88152380D01*
X153852380Y-88533333D01*
X153995238Y-88533333D01*
X154090476Y-88580952D01*
X154138095Y-88628571D01*
X154185714Y-88723809D01*
X154185714Y-88961904D01*
X154138095Y-89057142D01*
X154090476Y-89104761D01*
X153995238Y-89152380D01*
X153709523Y-89152380D01*
X153614285Y-89104761D01*
X153566666Y-89057142D01*
%TO.C,D4*%
X150161904Y-89152380D02*
X150161904Y-88152380D01*
X150400000Y-88152380D01*
X150542857Y-88200000D01*
X150638095Y-88295238D01*
X150685714Y-88390476D01*
X150733333Y-88580952D01*
X150733333Y-88723809D01*
X150685714Y-88914285D01*
X150638095Y-89009523D01*
X150542857Y-89104761D01*
X150400000Y-89152380D01*
X150161904Y-89152380D01*
X151590476Y-88485714D02*
X151590476Y-89152380D01*
X151352380Y-88104761D02*
X151114285Y-88819047D01*
X151733333Y-88819047D01*
%TO.C,D5*%
X147561904Y-89152380D02*
X147561904Y-88152380D01*
X147800000Y-88152380D01*
X147942857Y-88200000D01*
X148038095Y-88295238D01*
X148085714Y-88390476D01*
X148133333Y-88580952D01*
X148133333Y-88723809D01*
X148085714Y-88914285D01*
X148038095Y-89009523D01*
X147942857Y-89104761D01*
X147800000Y-89152380D01*
X147561904Y-89152380D01*
X149038095Y-88152380D02*
X148561904Y-88152380D01*
X148514285Y-88628571D01*
X148561904Y-88580952D01*
X148657142Y-88533333D01*
X148895238Y-88533333D01*
X148990476Y-88580952D01*
X149038095Y-88628571D01*
X149085714Y-88723809D01*
X149085714Y-88961904D01*
X149038095Y-89057142D01*
X148990476Y-89104761D01*
X148895238Y-89152380D01*
X148657142Y-89152380D01*
X148561904Y-89104761D01*
X148514285Y-89057142D01*
%TO.C,D6*%
X144961904Y-89152380D02*
X144961904Y-88152380D01*
X145200000Y-88152380D01*
X145342857Y-88200000D01*
X145438095Y-88295238D01*
X145485714Y-88390476D01*
X145533333Y-88580952D01*
X145533333Y-88723809D01*
X145485714Y-88914285D01*
X145438095Y-89009523D01*
X145342857Y-89104761D01*
X145200000Y-89152380D01*
X144961904Y-89152380D01*
X146390476Y-88152380D02*
X146200000Y-88152380D01*
X146104761Y-88200000D01*
X146057142Y-88247619D01*
X145961904Y-88390476D01*
X145914285Y-88580952D01*
X145914285Y-88961904D01*
X145961904Y-89057142D01*
X146009523Y-89104761D01*
X146104761Y-89152380D01*
X146295238Y-89152380D01*
X146390476Y-89104761D01*
X146438095Y-89057142D01*
X146485714Y-88961904D01*
X146485714Y-88723809D01*
X146438095Y-88628571D01*
X146390476Y-88580952D01*
X146295238Y-88533333D01*
X146104761Y-88533333D01*
X146009523Y-88580952D01*
X145961904Y-88628571D01*
X145914285Y-88723809D01*
%TO.C,D7*%
X142461904Y-89152380D02*
X142461904Y-88152380D01*
X142700000Y-88152380D01*
X142842857Y-88200000D01*
X142938095Y-88295238D01*
X142985714Y-88390476D01*
X143033333Y-88580952D01*
X143033333Y-88723809D01*
X142985714Y-88914285D01*
X142938095Y-89009523D01*
X142842857Y-89104761D01*
X142700000Y-89152380D01*
X142461904Y-89152380D01*
X143366666Y-88152380D02*
X144033333Y-88152380D01*
X143604761Y-89152380D01*
%TO.C,D8*%
X139961904Y-89152380D02*
X139961904Y-88152380D01*
X140200000Y-88152380D01*
X140342857Y-88200000D01*
X140438095Y-88295238D01*
X140485714Y-88390476D01*
X140533333Y-88580952D01*
X140533333Y-88723809D01*
X140485714Y-88914285D01*
X140438095Y-89009523D01*
X140342857Y-89104761D01*
X140200000Y-89152380D01*
X139961904Y-89152380D01*
X141104761Y-88580952D02*
X141009523Y-88533333D01*
X140961904Y-88485714D01*
X140914285Y-88390476D01*
X140914285Y-88342857D01*
X140961904Y-88247619D01*
X141009523Y-88200000D01*
X141104761Y-88152380D01*
X141295238Y-88152380D01*
X141390476Y-88200000D01*
X141438095Y-88247619D01*
X141485714Y-88342857D01*
X141485714Y-88390476D01*
X141438095Y-88485714D01*
X141390476Y-88533333D01*
X141295238Y-88580952D01*
X141104761Y-88580952D01*
X141009523Y-88628571D01*
X140961904Y-88676190D01*
X140914285Y-88771428D01*
X140914285Y-88961904D01*
X140961904Y-89057142D01*
X141009523Y-89104761D01*
X141104761Y-89152380D01*
X141295238Y-89152380D01*
X141390476Y-89104761D01*
X141438095Y-89057142D01*
X141485714Y-88961904D01*
X141485714Y-88771428D01*
X141438095Y-88676190D01*
X141390476Y-88628571D01*
X141295238Y-88580952D01*
%TO.C,J1*%
X162916666Y-87952380D02*
X162916666Y-88666666D01*
X162869047Y-88809523D01*
X162773809Y-88904761D01*
X162630952Y-88952380D01*
X162535714Y-88952380D01*
X163916666Y-88952380D02*
X163345238Y-88952380D01*
X163630952Y-88952380D02*
X163630952Y-87952380D01*
X163535714Y-88095238D01*
X163440476Y-88190476D01*
X163345238Y-88238095D01*
%TO.C,RN1*%
X160709523Y-85152380D02*
X160376190Y-84676190D01*
X160138095Y-85152380D02*
X160138095Y-84152380D01*
X160519047Y-84152380D01*
X160614285Y-84200000D01*
X160661904Y-84247619D01*
X160709523Y-84342857D01*
X160709523Y-84485714D01*
X160661904Y-84580952D01*
X160614285Y-84628571D01*
X160519047Y-84676190D01*
X160138095Y-84676190D01*
X161138095Y-85152380D02*
X161138095Y-84152380D01*
X161709523Y-85152380D01*
X161709523Y-84152380D01*
X162709523Y-85152380D02*
X162138095Y-85152380D01*
X162423809Y-85152380D02*
X162423809Y-84152380D01*
X162328571Y-84295238D01*
X162233333Y-84390476D01*
X162138095Y-84438095D01*
%TD*%
M02*
