%TF.GenerationSoftware,KiCad,Pcbnew,(5.1.9)-1*%
%TF.CreationDate,2021-02-03T20:33:17-05:00*%
%TF.ProjectId,NerdConsole_BreadBoard_Monitor8,4e657264-436f-46e7-936f-6c655f427265,rev?*%
%TF.SameCoordinates,Original*%
%TF.FileFunction,Copper,L1,Top*%
%TF.FilePolarity,Positive*%
%FSLAX46Y46*%
G04 Gerber Fmt 4.6, Leading zero omitted, Abs format (unit mm)*
G04 Created by KiCad (PCBNEW (5.1.9)-1) date 2021-02-03 20:33:17*
%MOMM*%
%LPD*%
G01*
G04 APERTURE LIST*
%TA.AperFunction,ComponentPad*%
%ADD10O,1.700000X1.700000*%
%TD*%
%TA.AperFunction,ComponentPad*%
%ADD11R,1.700000X1.700000*%
%TD*%
%TA.AperFunction,ComponentPad*%
%ADD12R,1.600000X1.600000*%
%TD*%
%TA.AperFunction,ComponentPad*%
%ADD13O,1.600000X1.600000*%
%TD*%
%TA.AperFunction,Conductor*%
%ADD14C,0.250000*%
%TD*%
G04 APERTURE END LIST*
%TO.P,D1,2*%
%TO.N,D0*%
%TA.AperFunction,SMDPad,CuDef*%
G36*
G01*
X100300000Y-96050001D02*
X100300000Y-95149999D01*
G75*
G02*
X100549999Y-94900000I249999J0D01*
G01*
X101200001Y-94900000D01*
G75*
G02*
X101450000Y-95149999I0J-249999D01*
G01*
X101450000Y-96050001D01*
G75*
G02*
X101200001Y-96300000I-249999J0D01*
G01*
X100549999Y-96300000D01*
G75*
G02*
X100300000Y-96050001I0J249999D01*
G01*
G37*
%TD.AperFunction*%
%TO.P,D1,1*%
%TO.N,LED0*%
%TA.AperFunction,SMDPad,CuDef*%
G36*
G01*
X98250000Y-96050001D02*
X98250000Y-95149999D01*
G75*
G02*
X98499999Y-94900000I249999J0D01*
G01*
X99150001Y-94900000D01*
G75*
G02*
X99400000Y-95149999I0J-249999D01*
G01*
X99400000Y-96050001D01*
G75*
G02*
X99150001Y-96300000I-249999J0D01*
G01*
X98499999Y-96300000D01*
G75*
G02*
X98250000Y-96050001I0J249999D01*
G01*
G37*
%TD.AperFunction*%
%TD*%
%TO.P,D2,1*%
%TO.N,LED1*%
%TA.AperFunction,SMDPad,CuDef*%
G36*
G01*
X98250000Y-93500001D02*
X98250000Y-92599999D01*
G75*
G02*
X98499999Y-92350000I249999J0D01*
G01*
X99150001Y-92350000D01*
G75*
G02*
X99400000Y-92599999I0J-249999D01*
G01*
X99400000Y-93500001D01*
G75*
G02*
X99150001Y-93750000I-249999J0D01*
G01*
X98499999Y-93750000D01*
G75*
G02*
X98250000Y-93500001I0J249999D01*
G01*
G37*
%TD.AperFunction*%
%TO.P,D2,2*%
%TO.N,D1*%
%TA.AperFunction,SMDPad,CuDef*%
G36*
G01*
X100300000Y-93500001D02*
X100300000Y-92599999D01*
G75*
G02*
X100549999Y-92350000I249999J0D01*
G01*
X101200001Y-92350000D01*
G75*
G02*
X101450000Y-92599999I0J-249999D01*
G01*
X101450000Y-93500001D01*
G75*
G02*
X101200001Y-93750000I-249999J0D01*
G01*
X100549999Y-93750000D01*
G75*
G02*
X100300000Y-93500001I0J249999D01*
G01*
G37*
%TD.AperFunction*%
%TD*%
%TO.P,D3,2*%
%TO.N,D2*%
%TA.AperFunction,SMDPad,CuDef*%
G36*
G01*
X100300000Y-91000001D02*
X100300000Y-90099999D01*
G75*
G02*
X100549999Y-89850000I249999J0D01*
G01*
X101200001Y-89850000D01*
G75*
G02*
X101450000Y-90099999I0J-249999D01*
G01*
X101450000Y-91000001D01*
G75*
G02*
X101200001Y-91250000I-249999J0D01*
G01*
X100549999Y-91250000D01*
G75*
G02*
X100300000Y-91000001I0J249999D01*
G01*
G37*
%TD.AperFunction*%
%TO.P,D3,1*%
%TO.N,LED2*%
%TA.AperFunction,SMDPad,CuDef*%
G36*
G01*
X98250000Y-91000001D02*
X98250000Y-90099999D01*
G75*
G02*
X98499999Y-89850000I249999J0D01*
G01*
X99150001Y-89850000D01*
G75*
G02*
X99400000Y-90099999I0J-249999D01*
G01*
X99400000Y-91000001D01*
G75*
G02*
X99150001Y-91250000I-249999J0D01*
G01*
X98499999Y-91250000D01*
G75*
G02*
X98250000Y-91000001I0J249999D01*
G01*
G37*
%TD.AperFunction*%
%TD*%
%TO.P,D4,1*%
%TO.N,LED3*%
%TA.AperFunction,SMDPad,CuDef*%
G36*
G01*
X98250000Y-88450001D02*
X98250000Y-87549999D01*
G75*
G02*
X98499999Y-87300000I249999J0D01*
G01*
X99150001Y-87300000D01*
G75*
G02*
X99400000Y-87549999I0J-249999D01*
G01*
X99400000Y-88450001D01*
G75*
G02*
X99150001Y-88700000I-249999J0D01*
G01*
X98499999Y-88700000D01*
G75*
G02*
X98250000Y-88450001I0J249999D01*
G01*
G37*
%TD.AperFunction*%
%TO.P,D4,2*%
%TO.N,D3*%
%TA.AperFunction,SMDPad,CuDef*%
G36*
G01*
X100300000Y-88450001D02*
X100300000Y-87549999D01*
G75*
G02*
X100549999Y-87300000I249999J0D01*
G01*
X101200001Y-87300000D01*
G75*
G02*
X101450000Y-87549999I0J-249999D01*
G01*
X101450000Y-88450001D01*
G75*
G02*
X101200001Y-88700000I-249999J0D01*
G01*
X100549999Y-88700000D01*
G75*
G02*
X100300000Y-88450001I0J249999D01*
G01*
G37*
%TD.AperFunction*%
%TD*%
%TO.P,D5,2*%
%TO.N,D4*%
%TA.AperFunction,SMDPad,CuDef*%
G36*
G01*
X100300000Y-85900001D02*
X100300000Y-84999999D01*
G75*
G02*
X100549999Y-84750000I249999J0D01*
G01*
X101200001Y-84750000D01*
G75*
G02*
X101450000Y-84999999I0J-249999D01*
G01*
X101450000Y-85900001D01*
G75*
G02*
X101200001Y-86150000I-249999J0D01*
G01*
X100549999Y-86150000D01*
G75*
G02*
X100300000Y-85900001I0J249999D01*
G01*
G37*
%TD.AperFunction*%
%TO.P,D5,1*%
%TO.N,LED4*%
%TA.AperFunction,SMDPad,CuDef*%
G36*
G01*
X98250000Y-85900001D02*
X98250000Y-84999999D01*
G75*
G02*
X98499999Y-84750000I249999J0D01*
G01*
X99150001Y-84750000D01*
G75*
G02*
X99400000Y-84999999I0J-249999D01*
G01*
X99400000Y-85900001D01*
G75*
G02*
X99150001Y-86150000I-249999J0D01*
G01*
X98499999Y-86150000D01*
G75*
G02*
X98250000Y-85900001I0J249999D01*
G01*
G37*
%TD.AperFunction*%
%TD*%
%TO.P,D6,1*%
%TO.N,LED5*%
%TA.AperFunction,SMDPad,CuDef*%
G36*
G01*
X98250000Y-83350001D02*
X98250000Y-82449999D01*
G75*
G02*
X98499999Y-82200000I249999J0D01*
G01*
X99150001Y-82200000D01*
G75*
G02*
X99400000Y-82449999I0J-249999D01*
G01*
X99400000Y-83350001D01*
G75*
G02*
X99150001Y-83600000I-249999J0D01*
G01*
X98499999Y-83600000D01*
G75*
G02*
X98250000Y-83350001I0J249999D01*
G01*
G37*
%TD.AperFunction*%
%TO.P,D6,2*%
%TO.N,D5*%
%TA.AperFunction,SMDPad,CuDef*%
G36*
G01*
X100300000Y-83350001D02*
X100300000Y-82449999D01*
G75*
G02*
X100549999Y-82200000I249999J0D01*
G01*
X101200001Y-82200000D01*
G75*
G02*
X101450000Y-82449999I0J-249999D01*
G01*
X101450000Y-83350001D01*
G75*
G02*
X101200001Y-83600000I-249999J0D01*
G01*
X100549999Y-83600000D01*
G75*
G02*
X100300000Y-83350001I0J249999D01*
G01*
G37*
%TD.AperFunction*%
%TD*%
%TO.P,D7,2*%
%TO.N,D6*%
%TA.AperFunction,SMDPad,CuDef*%
G36*
G01*
X100300000Y-80850001D02*
X100300000Y-79949999D01*
G75*
G02*
X100549999Y-79700000I249999J0D01*
G01*
X101200001Y-79700000D01*
G75*
G02*
X101450000Y-79949999I0J-249999D01*
G01*
X101450000Y-80850001D01*
G75*
G02*
X101200001Y-81100000I-249999J0D01*
G01*
X100549999Y-81100000D01*
G75*
G02*
X100300000Y-80850001I0J249999D01*
G01*
G37*
%TD.AperFunction*%
%TO.P,D7,1*%
%TO.N,LED6*%
%TA.AperFunction,SMDPad,CuDef*%
G36*
G01*
X98250000Y-80850001D02*
X98250000Y-79949999D01*
G75*
G02*
X98499999Y-79700000I249999J0D01*
G01*
X99150001Y-79700000D01*
G75*
G02*
X99400000Y-79949999I0J-249999D01*
G01*
X99400000Y-80850001D01*
G75*
G02*
X99150001Y-81100000I-249999J0D01*
G01*
X98499999Y-81100000D01*
G75*
G02*
X98250000Y-80850001I0J249999D01*
G01*
G37*
%TD.AperFunction*%
%TD*%
%TO.P,D8,1*%
%TO.N,LED7*%
%TA.AperFunction,SMDPad,CuDef*%
G36*
G01*
X98250000Y-78300001D02*
X98250000Y-77399999D01*
G75*
G02*
X98499999Y-77150000I249999J0D01*
G01*
X99150001Y-77150000D01*
G75*
G02*
X99400000Y-77399999I0J-249999D01*
G01*
X99400000Y-78300001D01*
G75*
G02*
X99150001Y-78550000I-249999J0D01*
G01*
X98499999Y-78550000D01*
G75*
G02*
X98250000Y-78300001I0J249999D01*
G01*
G37*
%TD.AperFunction*%
%TO.P,D8,2*%
%TO.N,D7*%
%TA.AperFunction,SMDPad,CuDef*%
G36*
G01*
X100300000Y-78300001D02*
X100300000Y-77399999D01*
G75*
G02*
X100549999Y-77150000I249999J0D01*
G01*
X101200001Y-77150000D01*
G75*
G02*
X101450000Y-77399999I0J-249999D01*
G01*
X101450000Y-78300001D01*
G75*
G02*
X101200001Y-78550000I-249999J0D01*
G01*
X100549999Y-78550000D01*
G75*
G02*
X100300000Y-78300001I0J249999D01*
G01*
G37*
%TD.AperFunction*%
%TD*%
D10*
%TO.P,J1,9*%
%TO.N,D7*%
X96200000Y-77830000D03*
%TO.P,J1,8*%
%TO.N,D6*%
X96200000Y-80370000D03*
%TO.P,J1,7*%
%TO.N,D5*%
X96200000Y-82910000D03*
%TO.P,J1,6*%
%TO.N,D4*%
X96200000Y-85450000D03*
%TO.P,J1,5*%
%TO.N,D3*%
X96200000Y-87990000D03*
%TO.P,J1,4*%
%TO.N,D2*%
X96200000Y-90530000D03*
%TO.P,J1,3*%
%TO.N,D1*%
X96200000Y-93070000D03*
%TO.P,J1,2*%
%TO.N,D0*%
X96200000Y-95610000D03*
D11*
%TO.P,J1,1*%
%TO.N,GND*%
X96200000Y-98150000D03*
%TD*%
%TO.P,J2,1*%
%TO.N,GND*%
X103800000Y-98150000D03*
D10*
%TO.P,J2,2*%
%TO.N,D0*%
X103800000Y-95610000D03*
%TO.P,J2,3*%
%TO.N,D1*%
X103800000Y-93070000D03*
%TO.P,J2,4*%
%TO.N,D2*%
X103800000Y-90530000D03*
%TO.P,J2,5*%
%TO.N,D3*%
X103800000Y-87990000D03*
%TO.P,J2,6*%
%TO.N,D4*%
X103800000Y-85450000D03*
%TO.P,J2,7*%
%TO.N,D5*%
X103800000Y-82910000D03*
%TO.P,J2,8*%
%TO.N,D6*%
X103800000Y-80370000D03*
%TO.P,J2,9*%
%TO.N,D7*%
X103800000Y-77830000D03*
%TD*%
D12*
%TO.P,RN1,1*%
%TO.N,GND*%
X92650000Y-98175000D03*
D13*
%TO.P,RN1,2*%
%TO.N,LED0*%
X92650000Y-95635000D03*
%TO.P,RN1,3*%
%TO.N,LED1*%
X92650000Y-93095000D03*
%TO.P,RN1,4*%
%TO.N,LED2*%
X92650000Y-90555000D03*
%TO.P,RN1,5*%
%TO.N,LED3*%
X92650000Y-88015000D03*
%TO.P,RN1,6*%
%TO.N,LED4*%
X92650000Y-85475000D03*
%TO.P,RN1,7*%
%TO.N,LED5*%
X92650000Y-82935000D03*
%TO.P,RN1,8*%
%TO.N,LED6*%
X92650000Y-80395000D03*
%TO.P,RN1,9*%
%TO.N,LED7*%
X92650000Y-77855000D03*
%TD*%
D14*
%TO.N,D0*%
X100885000Y-95610000D02*
X100875000Y-95600000D01*
X103800000Y-95610000D02*
X100885000Y-95610000D01*
X99849990Y-96625010D02*
X100875000Y-95600000D01*
X97215010Y-96625010D02*
X99849990Y-96625010D01*
X96200000Y-95610000D02*
X97215010Y-96625010D01*
%TO.N,LED0*%
X98093590Y-95600000D02*
X98825000Y-95600000D01*
X96928589Y-94434999D02*
X98093590Y-95600000D01*
X93850001Y-94434999D02*
X96928589Y-94434999D01*
X92650000Y-95635000D02*
X93850001Y-94434999D01*
%TO.N,LED1*%
X98083590Y-93050000D02*
X98825000Y-93050000D01*
X96928589Y-91894999D02*
X98083590Y-93050000D01*
X93850001Y-91894999D02*
X96928589Y-91894999D01*
X92650000Y-93095000D02*
X93850001Y-91894999D01*
%TO.N,D1*%
X100895000Y-93070000D02*
X100875000Y-93050000D01*
X103800000Y-93070000D02*
X100895000Y-93070000D01*
X99849990Y-94075010D02*
X100875000Y-93050000D01*
X97205010Y-94075010D02*
X99849990Y-94075010D01*
X96200000Y-93070000D02*
X97205010Y-94075010D01*
%TO.N,D2*%
X100895000Y-90530000D02*
X100875000Y-90550000D01*
X103800000Y-90530000D02*
X100895000Y-90530000D01*
X99849990Y-91575010D02*
X100875000Y-90550000D01*
X97245010Y-91575010D02*
X99849990Y-91575010D01*
X96200000Y-90530000D02*
X97245010Y-91575010D01*
%TO.N,LED2*%
X98123590Y-90550000D02*
X98825000Y-90550000D01*
X96928589Y-89354999D02*
X98123590Y-90550000D01*
X93850001Y-89354999D02*
X96928589Y-89354999D01*
X92650000Y-90555000D02*
X93850001Y-89354999D01*
%TO.N,LED3*%
X96928589Y-86814999D02*
X98113590Y-88000000D01*
X93850001Y-86814999D02*
X96928589Y-86814999D01*
X98113590Y-88000000D02*
X98825000Y-88000000D01*
X92650000Y-88015000D02*
X93850001Y-86814999D01*
%TO.N,D3*%
X100885000Y-87990000D02*
X100875000Y-88000000D01*
X103800000Y-87990000D02*
X100885000Y-87990000D01*
X99849990Y-89025010D02*
X100875000Y-88000000D01*
X97235010Y-89025010D02*
X99849990Y-89025010D01*
X96200000Y-87990000D02*
X97235010Y-89025010D01*
%TO.N,D4*%
X103800000Y-85450000D02*
X100875000Y-85450000D01*
X99849990Y-86475010D02*
X100875000Y-85450000D01*
X97225010Y-86475010D02*
X99849990Y-86475010D01*
X96200000Y-85450000D02*
X97225010Y-86475010D01*
%TO.N,LED4*%
X98103590Y-85450000D02*
X98825000Y-85450000D01*
X96928589Y-84274999D02*
X98103590Y-85450000D01*
X93850001Y-84274999D02*
X96928589Y-84274999D01*
X92650000Y-85475000D02*
X93850001Y-84274999D01*
%TO.N,LED5*%
X98093590Y-82900000D02*
X98825000Y-82900000D01*
X96928589Y-81734999D02*
X98093590Y-82900000D01*
X93850001Y-81734999D02*
X96928589Y-81734999D01*
X92650000Y-82935000D02*
X93850001Y-81734999D01*
%TO.N,D5*%
X100885000Y-82910000D02*
X100875000Y-82900000D01*
X103800000Y-82910000D02*
X100885000Y-82910000D01*
X97215010Y-83925010D02*
X99849990Y-83925010D01*
X99849990Y-83925010D02*
X100875000Y-82900000D01*
X96200000Y-82910000D02*
X97215010Y-83925010D01*
%TO.N,D6*%
X100905000Y-80370000D02*
X100875000Y-80400000D01*
X103800000Y-80370000D02*
X100905000Y-80370000D01*
X99849990Y-81425010D02*
X100875000Y-80400000D01*
X97255010Y-81425010D02*
X99849990Y-81425010D01*
X96200000Y-80370000D02*
X97255010Y-81425010D01*
%TO.N,LED6*%
X98133590Y-80400000D02*
X98825000Y-80400000D01*
X96928589Y-79194999D02*
X98133590Y-80400000D01*
X93850001Y-79194999D02*
X96928589Y-79194999D01*
X92650000Y-80395000D02*
X93850001Y-79194999D01*
%TO.N,LED7*%
X97629999Y-76654999D02*
X98825000Y-77850000D01*
X93850001Y-76654999D02*
X97629999Y-76654999D01*
X92650000Y-77855000D02*
X93850001Y-76654999D01*
%TO.N,D7*%
X100895000Y-77830000D02*
X100875000Y-77850000D01*
X103800000Y-77830000D02*
X100895000Y-77830000D01*
X99849990Y-78875010D02*
X100875000Y-77850000D01*
X97245010Y-78875010D02*
X99849990Y-78875010D01*
X96200000Y-77830000D02*
X97245010Y-78875010D01*
%TD*%
M02*
