%TF.GenerationSoftware,KiCad,Pcbnew,(5.1.9)-1*%
%TF.CreationDate,2021-02-04T07:51:18-05:00*%
%TF.ProjectId,NerdConsole_BreadBoard_Bridge8,4e657264-436f-46e7-936f-6c655f427265,rev?*%
%TF.SameCoordinates,Original*%
%TF.FileFunction,Legend,Top*%
%TF.FilePolarity,Positive*%
%FSLAX46Y46*%
G04 Gerber Fmt 4.6, Leading zero omitted, Abs format (unit mm)*
G04 Created by KiCad (PCBNEW (5.1.9)-1) date 2021-02-04 07:51:18*
%MOMM*%
%LPD*%
G01*
G04 APERTURE LIST*
%ADD10C,0.120000*%
%ADD11C,0.150000*%
G04 APERTURE END LIST*
D10*
X165300000Y-47250000D02*
X167150000Y-47250000D01*
X163650000Y-47250000D02*
X162000000Y-47250000D01*
X165300000Y-49800000D02*
X167150000Y-49800000D01*
X163650000Y-49800000D02*
X162000000Y-49800000D01*
X165300000Y-52350000D02*
X167150000Y-52350000D01*
X163650000Y-52350000D02*
X162000000Y-52350000D01*
X165350000Y-54900000D02*
X167200000Y-54900000D01*
X163700000Y-54900000D02*
X162050000Y-54900000D01*
X165350000Y-57450000D02*
X167200000Y-57450000D01*
X163700000Y-57450000D02*
X162050000Y-57450000D01*
X165350000Y-59950000D02*
X167200000Y-59950000D01*
X163700000Y-59950000D02*
X162050000Y-59950000D01*
X165350000Y-62500000D02*
X167200000Y-62500000D01*
X163700000Y-62500000D02*
X162050000Y-62500000D01*
X165300000Y-65050000D02*
X167150000Y-65050000D01*
X163750000Y-65050000D02*
X162100000Y-65050000D01*
D11*
X165047619Y-46916666D02*
X165047619Y-47583333D01*
X164047619Y-47154761D01*
X165047619Y-49990476D02*
X165047619Y-49800000D01*
X165000000Y-49704761D01*
X164952380Y-49657142D01*
X164809523Y-49561904D01*
X164619047Y-49514285D01*
X164238095Y-49514285D01*
X164142857Y-49561904D01*
X164095238Y-49609523D01*
X164047619Y-49704761D01*
X164047619Y-49895238D01*
X164095238Y-49990476D01*
X164142857Y-50038095D01*
X164238095Y-50085714D01*
X164476190Y-50085714D01*
X164571428Y-50038095D01*
X164619047Y-49990476D01*
X164666666Y-49895238D01*
X164666666Y-49704761D01*
X164619047Y-49609523D01*
X164571428Y-49561904D01*
X164476190Y-49514285D01*
X165047619Y-52588095D02*
X165047619Y-52111904D01*
X164571428Y-52064285D01*
X164619047Y-52111904D01*
X164666666Y-52207142D01*
X164666666Y-52445238D01*
X164619047Y-52540476D01*
X164571428Y-52588095D01*
X164476190Y-52635714D01*
X164238095Y-52635714D01*
X164142857Y-52588095D01*
X164095238Y-52540476D01*
X164047619Y-52445238D01*
X164047619Y-52207142D01*
X164095238Y-52111904D01*
X164142857Y-52064285D01*
X164714285Y-55090476D02*
X164047619Y-55090476D01*
X165095238Y-54852380D02*
X164380952Y-54614285D01*
X164380952Y-55233333D01*
X165047619Y-57116666D02*
X165047619Y-57735714D01*
X164666666Y-57402380D01*
X164666666Y-57545238D01*
X164619047Y-57640476D01*
X164571428Y-57688095D01*
X164476190Y-57735714D01*
X164238095Y-57735714D01*
X164142857Y-57688095D01*
X164095238Y-57640476D01*
X164047619Y-57545238D01*
X164047619Y-57259523D01*
X164095238Y-57164285D01*
X164142857Y-57116666D01*
X164952380Y-59664285D02*
X165000000Y-59711904D01*
X165047619Y-59807142D01*
X165047619Y-60045238D01*
X165000000Y-60140476D01*
X164952380Y-60188095D01*
X164857142Y-60235714D01*
X164761904Y-60235714D01*
X164619047Y-60188095D01*
X164047619Y-59616666D01*
X164047619Y-60235714D01*
X164047619Y-62785714D02*
X164047619Y-62214285D01*
X164047619Y-62500000D02*
X165047619Y-62500000D01*
X164904761Y-62404761D01*
X164809523Y-62309523D01*
X164761904Y-62214285D01*
X165047619Y-65002380D02*
X165047619Y-65097619D01*
X165000000Y-65192857D01*
X164952380Y-65240476D01*
X164857142Y-65288095D01*
X164666666Y-65335714D01*
X164428571Y-65335714D01*
X164238095Y-65288095D01*
X164142857Y-65240476D01*
X164095238Y-65192857D01*
X164047619Y-65097619D01*
X164047619Y-65002380D01*
X164095238Y-64907142D01*
X164142857Y-64859523D01*
X164238095Y-64811904D01*
X164428571Y-64764285D01*
X164666666Y-64764285D01*
X164857142Y-64811904D01*
X164952380Y-64859523D01*
X165000000Y-64907142D01*
X165047619Y-65002380D01*
M02*
