%TF.GenerationSoftware,KiCad,Pcbnew,(5.1.9)-1*%
%TF.CreationDate,2021-02-04T07:51:18-05:00*%
%TF.ProjectId,NerdConsole_BreadBoard_Bridge8,4e657264-436f-46e7-936f-6c655f427265,rev?*%
%TF.SameCoordinates,Original*%
%TF.FileFunction,Legend,Bot*%
%TF.FilePolarity,Positive*%
%FSLAX46Y46*%
G04 Gerber Fmt 4.6, Leading zero omitted, Abs format (unit mm)*
G04 Created by KiCad (PCBNEW (5.1.9)-1) date 2021-02-04 07:51:18*
%MOMM*%
%LPD*%
G01*
G04 APERTURE LIST*
%ADD10C,0.150000*%
%ADD11C,0.120000*%
G04 APERTURE END LIST*
D10*
X164127380Y-46178571D02*
X163127380Y-46178571D01*
X164127380Y-46750000D01*
X163127380Y-46750000D01*
X164079761Y-47607142D02*
X164127380Y-47511904D01*
X164127380Y-47321428D01*
X164079761Y-47226190D01*
X163984523Y-47178571D01*
X163603571Y-47178571D01*
X163508333Y-47226190D01*
X163460714Y-47321428D01*
X163460714Y-47511904D01*
X163508333Y-47607142D01*
X163603571Y-47654761D01*
X163698809Y-47654761D01*
X163794047Y-47178571D01*
X164127380Y-48083333D02*
X163460714Y-48083333D01*
X163651190Y-48083333D02*
X163555952Y-48130952D01*
X163508333Y-48178571D01*
X163460714Y-48273809D01*
X163460714Y-48369047D01*
X164127380Y-49130952D02*
X163127380Y-49130952D01*
X164079761Y-49130952D02*
X164127380Y-49035714D01*
X164127380Y-48845238D01*
X164079761Y-48750000D01*
X164032142Y-48702380D01*
X163936904Y-48654761D01*
X163651190Y-48654761D01*
X163555952Y-48702380D01*
X163508333Y-48750000D01*
X163460714Y-48845238D01*
X163460714Y-49035714D01*
X163508333Y-49130952D01*
X164032142Y-50178571D02*
X164079761Y-50130952D01*
X164127380Y-49988095D01*
X164127380Y-49892857D01*
X164079761Y-49750000D01*
X163984523Y-49654761D01*
X163889285Y-49607142D01*
X163698809Y-49559523D01*
X163555952Y-49559523D01*
X163365476Y-49607142D01*
X163270238Y-49654761D01*
X163175000Y-49750000D01*
X163127380Y-49892857D01*
X163127380Y-49988095D01*
X163175000Y-50130952D01*
X163222619Y-50178571D01*
X164127380Y-50750000D02*
X164079761Y-50654761D01*
X164032142Y-50607142D01*
X163936904Y-50559523D01*
X163651190Y-50559523D01*
X163555952Y-50607142D01*
X163508333Y-50654761D01*
X163460714Y-50750000D01*
X163460714Y-50892857D01*
X163508333Y-50988095D01*
X163555952Y-51035714D01*
X163651190Y-51083333D01*
X163936904Y-51083333D01*
X164032142Y-51035714D01*
X164079761Y-50988095D01*
X164127380Y-50892857D01*
X164127380Y-50750000D01*
X163460714Y-51511904D02*
X164127380Y-51511904D01*
X163555952Y-51511904D02*
X163508333Y-51559523D01*
X163460714Y-51654761D01*
X163460714Y-51797619D01*
X163508333Y-51892857D01*
X163603571Y-51940476D01*
X164127380Y-51940476D01*
X164079761Y-52369047D02*
X164127380Y-52464285D01*
X164127380Y-52654761D01*
X164079761Y-52750000D01*
X163984523Y-52797619D01*
X163936904Y-52797619D01*
X163841666Y-52750000D01*
X163794047Y-52654761D01*
X163794047Y-52511904D01*
X163746428Y-52416666D01*
X163651190Y-52369047D01*
X163603571Y-52369047D01*
X163508333Y-52416666D01*
X163460714Y-52511904D01*
X163460714Y-52654761D01*
X163508333Y-52750000D01*
X164127380Y-53369047D02*
X164079761Y-53273809D01*
X164032142Y-53226190D01*
X163936904Y-53178571D01*
X163651190Y-53178571D01*
X163555952Y-53226190D01*
X163508333Y-53273809D01*
X163460714Y-53369047D01*
X163460714Y-53511904D01*
X163508333Y-53607142D01*
X163555952Y-53654761D01*
X163651190Y-53702380D01*
X163936904Y-53702380D01*
X164032142Y-53654761D01*
X164079761Y-53607142D01*
X164127380Y-53511904D01*
X164127380Y-53369047D01*
X164127380Y-54273809D02*
X164079761Y-54178571D01*
X163984523Y-54130952D01*
X163127380Y-54130952D01*
X164079761Y-55035714D02*
X164127380Y-54940476D01*
X164127380Y-54750000D01*
X164079761Y-54654761D01*
X163984523Y-54607142D01*
X163603571Y-54607142D01*
X163508333Y-54654761D01*
X163460714Y-54750000D01*
X163460714Y-54940476D01*
X163508333Y-55035714D01*
X163603571Y-55083333D01*
X163698809Y-55083333D01*
X163794047Y-54607142D01*
X163603571Y-56607142D02*
X163651190Y-56750000D01*
X163698809Y-56797619D01*
X163794047Y-56845238D01*
X163936904Y-56845238D01*
X164032142Y-56797619D01*
X164079761Y-56750000D01*
X164127380Y-56654761D01*
X164127380Y-56273809D01*
X163127380Y-56273809D01*
X163127380Y-56607142D01*
X163175000Y-56702380D01*
X163222619Y-56750000D01*
X163317857Y-56797619D01*
X163413095Y-56797619D01*
X163508333Y-56750000D01*
X163555952Y-56702380D01*
X163603571Y-56607142D01*
X163603571Y-56273809D01*
X164127380Y-57273809D02*
X163460714Y-57273809D01*
X163651190Y-57273809D02*
X163555952Y-57321428D01*
X163508333Y-57369047D01*
X163460714Y-57464285D01*
X163460714Y-57559523D01*
X164079761Y-58273809D02*
X164127380Y-58178571D01*
X164127380Y-57988095D01*
X164079761Y-57892857D01*
X163984523Y-57845238D01*
X163603571Y-57845238D01*
X163508333Y-57892857D01*
X163460714Y-57988095D01*
X163460714Y-58178571D01*
X163508333Y-58273809D01*
X163603571Y-58321428D01*
X163698809Y-58321428D01*
X163794047Y-57845238D01*
X164127380Y-59178571D02*
X163603571Y-59178571D01*
X163508333Y-59130952D01*
X163460714Y-59035714D01*
X163460714Y-58845238D01*
X163508333Y-58750000D01*
X164079761Y-59178571D02*
X164127380Y-59083333D01*
X164127380Y-58845238D01*
X164079761Y-58750000D01*
X163984523Y-58702380D01*
X163889285Y-58702380D01*
X163794047Y-58750000D01*
X163746428Y-58845238D01*
X163746428Y-59083333D01*
X163698809Y-59178571D01*
X164127380Y-60083333D02*
X163127380Y-60083333D01*
X164079761Y-60083333D02*
X164127380Y-59988095D01*
X164127380Y-59797619D01*
X164079761Y-59702380D01*
X164032142Y-59654761D01*
X163936904Y-59607142D01*
X163651190Y-59607142D01*
X163555952Y-59654761D01*
X163508333Y-59702380D01*
X163460714Y-59797619D01*
X163460714Y-59988095D01*
X163508333Y-60083333D01*
X164127380Y-60559523D02*
X163127380Y-60559523D01*
X163508333Y-60559523D02*
X163460714Y-60654761D01*
X163460714Y-60845238D01*
X163508333Y-60940476D01*
X163555952Y-60988095D01*
X163651190Y-61035714D01*
X163936904Y-61035714D01*
X164032142Y-60988095D01*
X164079761Y-60940476D01*
X164127380Y-60845238D01*
X164127380Y-60654761D01*
X164079761Y-60559523D01*
X164127380Y-61607142D02*
X164079761Y-61511904D01*
X164032142Y-61464285D01*
X163936904Y-61416666D01*
X163651190Y-61416666D01*
X163555952Y-61464285D01*
X163508333Y-61511904D01*
X163460714Y-61607142D01*
X163460714Y-61750000D01*
X163508333Y-61845238D01*
X163555952Y-61892857D01*
X163651190Y-61940476D01*
X163936904Y-61940476D01*
X164032142Y-61892857D01*
X164079761Y-61845238D01*
X164127380Y-61750000D01*
X164127380Y-61607142D01*
X164127380Y-62797619D02*
X163603571Y-62797619D01*
X163508333Y-62750000D01*
X163460714Y-62654761D01*
X163460714Y-62464285D01*
X163508333Y-62369047D01*
X164079761Y-62797619D02*
X164127380Y-62702380D01*
X164127380Y-62464285D01*
X164079761Y-62369047D01*
X163984523Y-62321428D01*
X163889285Y-62321428D01*
X163794047Y-62369047D01*
X163746428Y-62464285D01*
X163746428Y-62702380D01*
X163698809Y-62797619D01*
X164127380Y-63273809D02*
X163460714Y-63273809D01*
X163651190Y-63273809D02*
X163555952Y-63321428D01*
X163508333Y-63369047D01*
X163460714Y-63464285D01*
X163460714Y-63559523D01*
X164127380Y-64321428D02*
X163127380Y-64321428D01*
X164079761Y-64321428D02*
X164127380Y-64226190D01*
X164127380Y-64035714D01*
X164079761Y-63940476D01*
X164032142Y-63892857D01*
X163936904Y-63845238D01*
X163651190Y-63845238D01*
X163555952Y-63892857D01*
X163508333Y-63940476D01*
X163460714Y-64035714D01*
X163460714Y-64226190D01*
X163508333Y-64321428D01*
X165253571Y-51345238D02*
X165301190Y-51488095D01*
X165348809Y-51535714D01*
X165444047Y-51583333D01*
X165586904Y-51583333D01*
X165682142Y-51535714D01*
X165729761Y-51488095D01*
X165777380Y-51392857D01*
X165777380Y-51011904D01*
X164777380Y-51011904D01*
X164777380Y-51345238D01*
X164825000Y-51440476D01*
X164872619Y-51488095D01*
X164967857Y-51535714D01*
X165063095Y-51535714D01*
X165158333Y-51488095D01*
X165205952Y-51440476D01*
X165253571Y-51345238D01*
X165253571Y-51011904D01*
X165777380Y-52011904D02*
X165110714Y-52011904D01*
X165301190Y-52011904D02*
X165205952Y-52059523D01*
X165158333Y-52107142D01*
X165110714Y-52202380D01*
X165110714Y-52297619D01*
X165777380Y-52630952D02*
X165110714Y-52630952D01*
X164777380Y-52630952D02*
X164825000Y-52583333D01*
X164872619Y-52630952D01*
X164825000Y-52678571D01*
X164777380Y-52630952D01*
X164872619Y-52630952D01*
X165777380Y-53535714D02*
X164777380Y-53535714D01*
X165729761Y-53535714D02*
X165777380Y-53440476D01*
X165777380Y-53250000D01*
X165729761Y-53154761D01*
X165682142Y-53107142D01*
X165586904Y-53059523D01*
X165301190Y-53059523D01*
X165205952Y-53107142D01*
X165158333Y-53154761D01*
X165110714Y-53250000D01*
X165110714Y-53440476D01*
X165158333Y-53535714D01*
X165110714Y-54440476D02*
X165920238Y-54440476D01*
X166015476Y-54392857D01*
X166063095Y-54345238D01*
X166110714Y-54250000D01*
X166110714Y-54107142D01*
X166063095Y-54011904D01*
X165729761Y-54440476D02*
X165777380Y-54345238D01*
X165777380Y-54154761D01*
X165729761Y-54059523D01*
X165682142Y-54011904D01*
X165586904Y-53964285D01*
X165301190Y-53964285D01*
X165205952Y-54011904D01*
X165158333Y-54059523D01*
X165110714Y-54154761D01*
X165110714Y-54345238D01*
X165158333Y-54440476D01*
X165729761Y-55297619D02*
X165777380Y-55202380D01*
X165777380Y-55011904D01*
X165729761Y-54916666D01*
X165634523Y-54869047D01*
X165253571Y-54869047D01*
X165158333Y-54916666D01*
X165110714Y-55011904D01*
X165110714Y-55202380D01*
X165158333Y-55297619D01*
X165253571Y-55345238D01*
X165348809Y-55345238D01*
X165444047Y-54869047D01*
X165205952Y-56678571D02*
X165158333Y-56583333D01*
X165110714Y-56535714D01*
X165015476Y-56488095D01*
X164967857Y-56488095D01*
X164872619Y-56535714D01*
X164825000Y-56583333D01*
X164777380Y-56678571D01*
X164777380Y-56869047D01*
X164825000Y-56964285D01*
X164872619Y-57011904D01*
X164967857Y-57059523D01*
X165015476Y-57059523D01*
X165110714Y-57011904D01*
X165158333Y-56964285D01*
X165205952Y-56869047D01*
X165205952Y-56678571D01*
X165253571Y-56583333D01*
X165301190Y-56535714D01*
X165396428Y-56488095D01*
X165586904Y-56488095D01*
X165682142Y-56535714D01*
X165729761Y-56583333D01*
X165777380Y-56678571D01*
X165777380Y-56869047D01*
X165729761Y-56964285D01*
X165682142Y-57011904D01*
X165586904Y-57059523D01*
X165396428Y-57059523D01*
X165301190Y-57011904D01*
X165253571Y-56964285D01*
X165205952Y-56869047D01*
X165110714Y-58154761D02*
X165777380Y-58392857D01*
X165110714Y-58630952D01*
X165777380Y-59535714D02*
X165777380Y-58964285D01*
X165777380Y-59250000D02*
X164777380Y-59250000D01*
X164920238Y-59154761D01*
X165015476Y-59059523D01*
X165063095Y-58964285D01*
D11*
%TO.C,J1*%
X159470000Y-66380000D02*
X160800000Y-66380000D01*
X159470000Y-65050000D02*
X159470000Y-66380000D01*
X159470000Y-63780000D02*
X162130000Y-63780000D01*
X162130000Y-63780000D02*
X162130000Y-45940000D01*
X159470000Y-63780000D02*
X159470000Y-45940000D01*
X159470000Y-45940000D02*
X162130000Y-45940000D01*
%TO.C,J2*%
X167070000Y-45940000D02*
X169730000Y-45940000D01*
X167070000Y-63780000D02*
X167070000Y-45940000D01*
X169730000Y-63780000D02*
X169730000Y-45940000D01*
X167070000Y-63780000D02*
X169730000Y-63780000D01*
X167070000Y-65050000D02*
X167070000Y-66380000D01*
X167070000Y-66380000D02*
X168400000Y-66380000D01*
%TO.C,J1*%
D10*
X163783333Y-65752380D02*
X163783333Y-66466666D01*
X163830952Y-66609523D01*
X163926190Y-66704761D01*
X164069047Y-66752380D01*
X164164285Y-66752380D01*
X162783333Y-66752380D02*
X163354761Y-66752380D01*
X163069047Y-66752380D02*
X163069047Y-65752380D01*
X163164285Y-65895238D01*
X163259523Y-65990476D01*
X163354761Y-66038095D01*
%TO.C,J2*%
X166033333Y-65752380D02*
X166033333Y-66466666D01*
X166080952Y-66609523D01*
X166176190Y-66704761D01*
X166319047Y-66752380D01*
X166414285Y-66752380D01*
X165604761Y-65847619D02*
X165557142Y-65800000D01*
X165461904Y-65752380D01*
X165223809Y-65752380D01*
X165128571Y-65800000D01*
X165080952Y-65847619D01*
X165033333Y-65942857D01*
X165033333Y-66038095D01*
X165080952Y-66180952D01*
X165652380Y-66752380D01*
X165033333Y-66752380D01*
%TD*%
M02*
