M48
; DRILL file {KiCad (5.1.9)-1} date 02/04/21 07:52:59
; FORMAT={-:-/ absolute / inch / decimal}
; #@! TF.CreationDate,2021-02-04T07:52:59-05:00
; #@! TF.GenerationSoftware,Kicad,Pcbnew,(5.1.9)-1
; #@! TF.FileFunction,Plated,1,2,PTH
FMAT,2
INCH
T1C0.0394
%
G90
G05
T1
X5.8248Y-3.4862
X5.8248Y-3.5862
X5.8248Y-3.6862
X5.8248Y-3.7862
X5.8248Y-3.8862
X5.8248Y-3.9862
X5.8248Y-4.0862
X5.8248Y-4.1862
X5.8248Y-4.2862
X5.8248Y-4.3862
X5.8248Y-4.4862
X5.8248Y-4.5862
X5.8248Y-4.6862
X5.8248Y-4.7862
X5.8248Y-4.8862
X5.8248Y-4.9862
X6.124Y-3.4862
X6.124Y-3.5862
X6.124Y-3.6862
X6.124Y-3.7862
X6.124Y-3.8862
X6.124Y-3.9862
X6.124Y-4.0862
X6.124Y-4.1862
X6.124Y-4.2862
X6.124Y-4.3862
X6.124Y-4.4862
X6.124Y-4.5862
X6.124Y-4.6862
X6.124Y-4.7862
X6.124Y-4.8862
X6.124Y-4.9862
T0
M30
