%TF.GenerationSoftware,KiCad,Pcbnew,(5.1.9)-1*%
%TF.CreationDate,2021-02-03T20:34:43-05:00*%
%TF.ProjectId,NerdConsole_BreadBoard_Bridge16,4e657264-436f-46e7-936f-6c655f427265,rev?*%
%TF.SameCoordinates,Original*%
%TF.FileFunction,Legend,Bot*%
%TF.FilePolarity,Positive*%
%FSLAX46Y46*%
G04 Gerber Fmt 4.6, Leading zero omitted, Abs format (unit mm)*
G04 Created by KiCad (PCBNEW (5.1.9)-1) date 2021-02-03 20:34:43*
%MOMM*%
%LPD*%
G01*
G04 APERTURE LIST*
%ADD10C,0.120000*%
%ADD11C,0.150000*%
G04 APERTURE END LIST*
D10*
%TO.C,J1*%
X146620000Y-127980000D02*
X147950000Y-127980000D01*
X146620000Y-126650000D02*
X146620000Y-127980000D01*
X146620000Y-125380000D02*
X149280000Y-125380000D01*
X149280000Y-125380000D02*
X149280000Y-87220000D01*
X146620000Y-125380000D02*
X146620000Y-87220000D01*
X146620000Y-87220000D02*
X149280000Y-87220000D01*
%TO.C,J2*%
X154220000Y-87220000D02*
X156880000Y-87220000D01*
X154220000Y-125380000D02*
X154220000Y-87220000D01*
X156880000Y-125380000D02*
X156880000Y-87220000D01*
X154220000Y-125380000D02*
X156880000Y-125380000D01*
X154220000Y-126650000D02*
X154220000Y-127980000D01*
X154220000Y-127980000D02*
X155550000Y-127980000D01*
%TO.C,J1*%
D11*
X150933333Y-127352380D02*
X150933333Y-128066666D01*
X150980952Y-128209523D01*
X151076190Y-128304761D01*
X151219047Y-128352380D01*
X151314285Y-128352380D01*
X149933333Y-128352380D02*
X150504761Y-128352380D01*
X150219047Y-128352380D02*
X150219047Y-127352380D01*
X150314285Y-127495238D01*
X150409523Y-127590476D01*
X150504761Y-127638095D01*
%TO.C,J2*%
X153183333Y-127352380D02*
X153183333Y-128066666D01*
X153230952Y-128209523D01*
X153326190Y-128304761D01*
X153469047Y-128352380D01*
X153564285Y-128352380D01*
X152754761Y-127447619D02*
X152707142Y-127400000D01*
X152611904Y-127352380D01*
X152373809Y-127352380D01*
X152278571Y-127400000D01*
X152230952Y-127447619D01*
X152183333Y-127542857D01*
X152183333Y-127638095D01*
X152230952Y-127780952D01*
X152802380Y-128352380D01*
X152183333Y-128352380D01*
%TD*%
M02*
