%TF.GenerationSoftware,KiCad,Pcbnew,(5.1.9)-1*%
%TF.CreationDate,2021-02-04T07:52:57-05:00*%
%TF.ProjectId,NerdConsole_BreadBoard_Bridge16,4e657264-436f-46e7-936f-6c655f427265,rev?*%
%TF.SameCoordinates,Original*%
%TF.FileFunction,Legend,Bot*%
%TF.FilePolarity,Positive*%
%FSLAX46Y46*%
G04 Gerber Fmt 4.6, Leading zero omitted, Abs format (unit mm)*
G04 Created by KiCad (PCBNEW (5.1.9)-1) date 2021-02-04 07:52:57*
%MOMM*%
%LPD*%
G01*
G04 APERTURE LIST*
%ADD10C,0.150000*%
%ADD11C,0.120000*%
G04 APERTURE END LIST*
D10*
X152122619Y-116619047D02*
X153122619Y-116619047D01*
X152122619Y-116047619D01*
X153122619Y-116047619D01*
X152170238Y-115190476D02*
X152122619Y-115285714D01*
X152122619Y-115476190D01*
X152170238Y-115571428D01*
X152265476Y-115619047D01*
X152646428Y-115619047D01*
X152741666Y-115571428D01*
X152789285Y-115476190D01*
X152789285Y-115285714D01*
X152741666Y-115190476D01*
X152646428Y-115142857D01*
X152551190Y-115142857D01*
X152455952Y-115619047D01*
X152122619Y-114714285D02*
X152789285Y-114714285D01*
X152598809Y-114714285D02*
X152694047Y-114666666D01*
X152741666Y-114619047D01*
X152789285Y-114523809D01*
X152789285Y-114428571D01*
X152122619Y-113666666D02*
X153122619Y-113666666D01*
X152170238Y-113666666D02*
X152122619Y-113761904D01*
X152122619Y-113952380D01*
X152170238Y-114047619D01*
X152217857Y-114095238D01*
X152313095Y-114142857D01*
X152598809Y-114142857D01*
X152694047Y-114095238D01*
X152741666Y-114047619D01*
X152789285Y-113952380D01*
X152789285Y-113761904D01*
X152741666Y-113666666D01*
X152217857Y-112619047D02*
X152170238Y-112666666D01*
X152122619Y-112809523D01*
X152122619Y-112904761D01*
X152170238Y-113047619D01*
X152265476Y-113142857D01*
X152360714Y-113190476D01*
X152551190Y-113238095D01*
X152694047Y-113238095D01*
X152884523Y-113190476D01*
X152979761Y-113142857D01*
X153075000Y-113047619D01*
X153122619Y-112904761D01*
X153122619Y-112809523D01*
X153075000Y-112666666D01*
X153027380Y-112619047D01*
X152122619Y-112047619D02*
X152170238Y-112142857D01*
X152217857Y-112190476D01*
X152313095Y-112238095D01*
X152598809Y-112238095D01*
X152694047Y-112190476D01*
X152741666Y-112142857D01*
X152789285Y-112047619D01*
X152789285Y-111904761D01*
X152741666Y-111809523D01*
X152694047Y-111761904D01*
X152598809Y-111714285D01*
X152313095Y-111714285D01*
X152217857Y-111761904D01*
X152170238Y-111809523D01*
X152122619Y-111904761D01*
X152122619Y-112047619D01*
X152789285Y-111285714D02*
X152122619Y-111285714D01*
X152694047Y-111285714D02*
X152741666Y-111238095D01*
X152789285Y-111142857D01*
X152789285Y-111000000D01*
X152741666Y-110904761D01*
X152646428Y-110857142D01*
X152122619Y-110857142D01*
X152170238Y-110428571D02*
X152122619Y-110333333D01*
X152122619Y-110142857D01*
X152170238Y-110047619D01*
X152265476Y-110000000D01*
X152313095Y-110000000D01*
X152408333Y-110047619D01*
X152455952Y-110142857D01*
X152455952Y-110285714D01*
X152503571Y-110380952D01*
X152598809Y-110428571D01*
X152646428Y-110428571D01*
X152741666Y-110380952D01*
X152789285Y-110285714D01*
X152789285Y-110142857D01*
X152741666Y-110047619D01*
X152122619Y-109428571D02*
X152170238Y-109523809D01*
X152217857Y-109571428D01*
X152313095Y-109619047D01*
X152598809Y-109619047D01*
X152694047Y-109571428D01*
X152741666Y-109523809D01*
X152789285Y-109428571D01*
X152789285Y-109285714D01*
X152741666Y-109190476D01*
X152694047Y-109142857D01*
X152598809Y-109095238D01*
X152313095Y-109095238D01*
X152217857Y-109142857D01*
X152170238Y-109190476D01*
X152122619Y-109285714D01*
X152122619Y-109428571D01*
X152122619Y-108523809D02*
X152170238Y-108619047D01*
X152265476Y-108666666D01*
X153122619Y-108666666D01*
X152170238Y-107761904D02*
X152122619Y-107857142D01*
X152122619Y-108047619D01*
X152170238Y-108142857D01*
X152265476Y-108190476D01*
X152646428Y-108190476D01*
X152741666Y-108142857D01*
X152789285Y-108047619D01*
X152789285Y-107857142D01*
X152741666Y-107761904D01*
X152646428Y-107714285D01*
X152551190Y-107714285D01*
X152455952Y-108190476D01*
X152646428Y-106190476D02*
X152598809Y-106047619D01*
X152551190Y-106000000D01*
X152455952Y-105952380D01*
X152313095Y-105952380D01*
X152217857Y-106000000D01*
X152170238Y-106047619D01*
X152122619Y-106142857D01*
X152122619Y-106523809D01*
X153122619Y-106523809D01*
X153122619Y-106190476D01*
X153075000Y-106095238D01*
X153027380Y-106047619D01*
X152932142Y-106000000D01*
X152836904Y-106000000D01*
X152741666Y-106047619D01*
X152694047Y-106095238D01*
X152646428Y-106190476D01*
X152646428Y-106523809D01*
X152122619Y-105523809D02*
X152789285Y-105523809D01*
X152598809Y-105523809D02*
X152694047Y-105476190D01*
X152741666Y-105428571D01*
X152789285Y-105333333D01*
X152789285Y-105238095D01*
X152170238Y-104523809D02*
X152122619Y-104619047D01*
X152122619Y-104809523D01*
X152170238Y-104904761D01*
X152265476Y-104952380D01*
X152646428Y-104952380D01*
X152741666Y-104904761D01*
X152789285Y-104809523D01*
X152789285Y-104619047D01*
X152741666Y-104523809D01*
X152646428Y-104476190D01*
X152551190Y-104476190D01*
X152455952Y-104952380D01*
X152122619Y-103619047D02*
X152646428Y-103619047D01*
X152741666Y-103666666D01*
X152789285Y-103761904D01*
X152789285Y-103952380D01*
X152741666Y-104047619D01*
X152170238Y-103619047D02*
X152122619Y-103714285D01*
X152122619Y-103952380D01*
X152170238Y-104047619D01*
X152265476Y-104095238D01*
X152360714Y-104095238D01*
X152455952Y-104047619D01*
X152503571Y-103952380D01*
X152503571Y-103714285D01*
X152551190Y-103619047D01*
X152122619Y-102714285D02*
X153122619Y-102714285D01*
X152170238Y-102714285D02*
X152122619Y-102809523D01*
X152122619Y-103000000D01*
X152170238Y-103095238D01*
X152217857Y-103142857D01*
X152313095Y-103190476D01*
X152598809Y-103190476D01*
X152694047Y-103142857D01*
X152741666Y-103095238D01*
X152789285Y-103000000D01*
X152789285Y-102809523D01*
X152741666Y-102714285D01*
X152646428Y-101904761D02*
X152598809Y-101761904D01*
X152551190Y-101714285D01*
X152455952Y-101666666D01*
X152313095Y-101666666D01*
X152217857Y-101714285D01*
X152170238Y-101761904D01*
X152122619Y-101857142D01*
X152122619Y-102238095D01*
X153122619Y-102238095D01*
X153122619Y-101904761D01*
X153075000Y-101809523D01*
X153027380Y-101761904D01*
X152932142Y-101714285D01*
X152836904Y-101714285D01*
X152741666Y-101761904D01*
X152694047Y-101809523D01*
X152646428Y-101904761D01*
X152646428Y-102238095D01*
X152122619Y-101095238D02*
X152170238Y-101190476D01*
X152217857Y-101238095D01*
X152313095Y-101285714D01*
X152598809Y-101285714D01*
X152694047Y-101238095D01*
X152741666Y-101190476D01*
X152789285Y-101095238D01*
X152789285Y-100952380D01*
X152741666Y-100857142D01*
X152694047Y-100809523D01*
X152598809Y-100761904D01*
X152313095Y-100761904D01*
X152217857Y-100809523D01*
X152170238Y-100857142D01*
X152122619Y-100952380D01*
X152122619Y-101095238D01*
X152122619Y-99904761D02*
X152646428Y-99904761D01*
X152741666Y-99952380D01*
X152789285Y-100047619D01*
X152789285Y-100238095D01*
X152741666Y-100333333D01*
X152170238Y-99904761D02*
X152122619Y-100000000D01*
X152122619Y-100238095D01*
X152170238Y-100333333D01*
X152265476Y-100380952D01*
X152360714Y-100380952D01*
X152455952Y-100333333D01*
X152503571Y-100238095D01*
X152503571Y-100000000D01*
X152551190Y-99904761D01*
X152122619Y-99428571D02*
X152789285Y-99428571D01*
X152598809Y-99428571D02*
X152694047Y-99380952D01*
X152741666Y-99333333D01*
X152789285Y-99238095D01*
X152789285Y-99142857D01*
X152122619Y-98380952D02*
X153122619Y-98380952D01*
X152170238Y-98380952D02*
X152122619Y-98476190D01*
X152122619Y-98666666D01*
X152170238Y-98761904D01*
X152217857Y-98809523D01*
X152313095Y-98857142D01*
X152598809Y-98857142D01*
X152694047Y-98809523D01*
X152741666Y-98761904D01*
X152789285Y-98666666D01*
X152789285Y-98476190D01*
X152741666Y-98380952D01*
X150996428Y-111880952D02*
X150948809Y-111738095D01*
X150901190Y-111690476D01*
X150805952Y-111642857D01*
X150663095Y-111642857D01*
X150567857Y-111690476D01*
X150520238Y-111738095D01*
X150472619Y-111833333D01*
X150472619Y-112214285D01*
X151472619Y-112214285D01*
X151472619Y-111880952D01*
X151425000Y-111785714D01*
X151377380Y-111738095D01*
X151282142Y-111690476D01*
X151186904Y-111690476D01*
X151091666Y-111738095D01*
X151044047Y-111785714D01*
X150996428Y-111880952D01*
X150996428Y-112214285D01*
X150472619Y-111214285D02*
X151139285Y-111214285D01*
X150948809Y-111214285D02*
X151044047Y-111166666D01*
X151091666Y-111119047D01*
X151139285Y-111023809D01*
X151139285Y-110928571D01*
X150472619Y-110595238D02*
X151139285Y-110595238D01*
X151472619Y-110595238D02*
X151425000Y-110642857D01*
X151377380Y-110595238D01*
X151425000Y-110547619D01*
X151472619Y-110595238D01*
X151377380Y-110595238D01*
X150472619Y-109690476D02*
X151472619Y-109690476D01*
X150520238Y-109690476D02*
X150472619Y-109785714D01*
X150472619Y-109976190D01*
X150520238Y-110071428D01*
X150567857Y-110119047D01*
X150663095Y-110166666D01*
X150948809Y-110166666D01*
X151044047Y-110119047D01*
X151091666Y-110071428D01*
X151139285Y-109976190D01*
X151139285Y-109785714D01*
X151091666Y-109690476D01*
X151139285Y-108785714D02*
X150329761Y-108785714D01*
X150234523Y-108833333D01*
X150186904Y-108880952D01*
X150139285Y-108976190D01*
X150139285Y-109119047D01*
X150186904Y-109214285D01*
X150520238Y-108785714D02*
X150472619Y-108880952D01*
X150472619Y-109071428D01*
X150520238Y-109166666D01*
X150567857Y-109214285D01*
X150663095Y-109261904D01*
X150948809Y-109261904D01*
X151044047Y-109214285D01*
X151091666Y-109166666D01*
X151139285Y-109071428D01*
X151139285Y-108880952D01*
X151091666Y-108785714D01*
X150520238Y-107928571D02*
X150472619Y-108023809D01*
X150472619Y-108214285D01*
X150520238Y-108309523D01*
X150615476Y-108357142D01*
X150996428Y-108357142D01*
X151091666Y-108309523D01*
X151139285Y-108214285D01*
X151139285Y-108023809D01*
X151091666Y-107928571D01*
X150996428Y-107880952D01*
X150901190Y-107880952D01*
X150805952Y-108357142D01*
X150472619Y-106166666D02*
X150472619Y-106738095D01*
X150472619Y-106452380D02*
X151472619Y-106452380D01*
X151329761Y-106547619D01*
X151234523Y-106642857D01*
X151186904Y-106738095D01*
X151472619Y-105309523D02*
X151472619Y-105500000D01*
X151425000Y-105595238D01*
X151377380Y-105642857D01*
X151234523Y-105738095D01*
X151044047Y-105785714D01*
X150663095Y-105785714D01*
X150567857Y-105738095D01*
X150520238Y-105690476D01*
X150472619Y-105595238D01*
X150472619Y-105404761D01*
X150520238Y-105309523D01*
X150567857Y-105261904D01*
X150663095Y-105214285D01*
X150901190Y-105214285D01*
X150996428Y-105261904D01*
X151044047Y-105309523D01*
X151091666Y-105404761D01*
X151091666Y-105595238D01*
X151044047Y-105690476D01*
X150996428Y-105738095D01*
X150901190Y-105785714D01*
X151139285Y-104119047D02*
X150472619Y-103880952D01*
X151139285Y-103642857D01*
X150472619Y-102738095D02*
X150472619Y-103309523D01*
X150472619Y-103023809D02*
X151472619Y-103023809D01*
X151329761Y-103119047D01*
X151234523Y-103214285D01*
X151186904Y-103309523D01*
D11*
%TO.C,J1*%
X146620000Y-87220000D02*
X149280000Y-87220000D01*
X146620000Y-125380000D02*
X146620000Y-87220000D01*
X149280000Y-125380000D02*
X149280000Y-87220000D01*
X146620000Y-125380000D02*
X149280000Y-125380000D01*
X146620000Y-126650000D02*
X146620000Y-127980000D01*
X146620000Y-127980000D02*
X147950000Y-127980000D01*
%TO.C,J2*%
X154220000Y-127980000D02*
X155550000Y-127980000D01*
X154220000Y-126650000D02*
X154220000Y-127980000D01*
X154220000Y-125380000D02*
X156880000Y-125380000D01*
X156880000Y-125380000D02*
X156880000Y-87220000D01*
X154220000Y-125380000D02*
X154220000Y-87220000D01*
X154220000Y-87220000D02*
X156880000Y-87220000D01*
%TO.C,J1*%
D10*
X150933333Y-127352380D02*
X150933333Y-128066666D01*
X150980952Y-128209523D01*
X151076190Y-128304761D01*
X151219047Y-128352380D01*
X151314285Y-128352380D01*
X149933333Y-128352380D02*
X150504761Y-128352380D01*
X150219047Y-128352380D02*
X150219047Y-127352380D01*
X150314285Y-127495238D01*
X150409523Y-127590476D01*
X150504761Y-127638095D01*
%TO.C,J2*%
X153183333Y-127352380D02*
X153183333Y-128066666D01*
X153230952Y-128209523D01*
X153326190Y-128304761D01*
X153469047Y-128352380D01*
X153564285Y-128352380D01*
X152754761Y-127447619D02*
X152707142Y-127400000D01*
X152611904Y-127352380D01*
X152373809Y-127352380D01*
X152278571Y-127400000D01*
X152230952Y-127447619D01*
X152183333Y-127542857D01*
X152183333Y-127638095D01*
X152230952Y-127780952D01*
X152802380Y-128352380D01*
X152183333Y-128352380D01*
%TD*%
M02*
