%TF.GenerationSoftware,KiCad,Pcbnew,(5.1.9)-1*%
%TF.CreationDate,2021-02-04T07:54:42-05:00*%
%TF.ProjectId,NerdConsole_BreadBoard_BridgeMonitor8,4e657264-436f-46e7-936f-6c655f427265,rev?*%
%TF.SameCoordinates,Original*%
%TF.FileFunction,Legend,Bot*%
%TF.FilePolarity,Positive*%
%FSLAX46Y46*%
G04 Gerber Fmt 4.6, Leading zero omitted, Abs format (unit mm)*
G04 Created by KiCad (PCBNEW (5.1.9)-1) date 2021-02-04 07:54:42*
%MOMM*%
%LPD*%
G01*
G04 APERTURE LIST*
%ADD10C,0.150000*%
%ADD11C,0.120000*%
G04 APERTURE END LIST*
D10*
X100372619Y-96119047D02*
X101372619Y-96119047D01*
X100372619Y-95547619D01*
X101372619Y-95547619D01*
X100420238Y-94690476D02*
X100372619Y-94785714D01*
X100372619Y-94976190D01*
X100420238Y-95071428D01*
X100515476Y-95119047D01*
X100896428Y-95119047D01*
X100991666Y-95071428D01*
X101039285Y-94976190D01*
X101039285Y-94785714D01*
X100991666Y-94690476D01*
X100896428Y-94642857D01*
X100801190Y-94642857D01*
X100705952Y-95119047D01*
X100372619Y-94214285D02*
X101039285Y-94214285D01*
X100848809Y-94214285D02*
X100944047Y-94166666D01*
X100991666Y-94119047D01*
X101039285Y-94023809D01*
X101039285Y-93928571D01*
X100372619Y-93166666D02*
X101372619Y-93166666D01*
X100420238Y-93166666D02*
X100372619Y-93261904D01*
X100372619Y-93452380D01*
X100420238Y-93547619D01*
X100467857Y-93595238D01*
X100563095Y-93642857D01*
X100848809Y-93642857D01*
X100944047Y-93595238D01*
X100991666Y-93547619D01*
X101039285Y-93452380D01*
X101039285Y-93261904D01*
X100991666Y-93166666D01*
X100467857Y-92119047D02*
X100420238Y-92166666D01*
X100372619Y-92309523D01*
X100372619Y-92404761D01*
X100420238Y-92547619D01*
X100515476Y-92642857D01*
X100610714Y-92690476D01*
X100801190Y-92738095D01*
X100944047Y-92738095D01*
X101134523Y-92690476D01*
X101229761Y-92642857D01*
X101325000Y-92547619D01*
X101372619Y-92404761D01*
X101372619Y-92309523D01*
X101325000Y-92166666D01*
X101277380Y-92119047D01*
X100372619Y-91547619D02*
X100420238Y-91642857D01*
X100467857Y-91690476D01*
X100563095Y-91738095D01*
X100848809Y-91738095D01*
X100944047Y-91690476D01*
X100991666Y-91642857D01*
X101039285Y-91547619D01*
X101039285Y-91404761D01*
X100991666Y-91309523D01*
X100944047Y-91261904D01*
X100848809Y-91214285D01*
X100563095Y-91214285D01*
X100467857Y-91261904D01*
X100420238Y-91309523D01*
X100372619Y-91404761D01*
X100372619Y-91547619D01*
X101039285Y-90785714D02*
X100372619Y-90785714D01*
X100944047Y-90785714D02*
X100991666Y-90738095D01*
X101039285Y-90642857D01*
X101039285Y-90499999D01*
X100991666Y-90404761D01*
X100896428Y-90357142D01*
X100372619Y-90357142D01*
X100420238Y-89928571D02*
X100372619Y-89833333D01*
X100372619Y-89642857D01*
X100420238Y-89547619D01*
X100515476Y-89499999D01*
X100563095Y-89499999D01*
X100658333Y-89547619D01*
X100705952Y-89642857D01*
X100705952Y-89785714D01*
X100753571Y-89880952D01*
X100848809Y-89928571D01*
X100896428Y-89928571D01*
X100991666Y-89880952D01*
X101039285Y-89785714D01*
X101039285Y-89642857D01*
X100991666Y-89547619D01*
X100372619Y-88928571D02*
X100420238Y-89023809D01*
X100467857Y-89071428D01*
X100563095Y-89119047D01*
X100848809Y-89119047D01*
X100944047Y-89071428D01*
X100991666Y-89023809D01*
X101039285Y-88928571D01*
X101039285Y-88785714D01*
X100991666Y-88690476D01*
X100944047Y-88642857D01*
X100848809Y-88595238D01*
X100563095Y-88595238D01*
X100467857Y-88642857D01*
X100420238Y-88690476D01*
X100372619Y-88785714D01*
X100372619Y-88928571D01*
X100372619Y-88023809D02*
X100420238Y-88119047D01*
X100515476Y-88166666D01*
X101372619Y-88166666D01*
X100420238Y-87261904D02*
X100372619Y-87357142D01*
X100372619Y-87547619D01*
X100420238Y-87642857D01*
X100515476Y-87690476D01*
X100896428Y-87690476D01*
X100991666Y-87642857D01*
X101039285Y-87547619D01*
X101039285Y-87357142D01*
X100991666Y-87261904D01*
X100896428Y-87214285D01*
X100801190Y-87214285D01*
X100705952Y-87690476D01*
X100896428Y-85690476D02*
X100848809Y-85547619D01*
X100801190Y-85499999D01*
X100705952Y-85452380D01*
X100563095Y-85452380D01*
X100467857Y-85499999D01*
X100420238Y-85547619D01*
X100372619Y-85642857D01*
X100372619Y-86023809D01*
X101372619Y-86023809D01*
X101372619Y-85690476D01*
X101325000Y-85595238D01*
X101277380Y-85547619D01*
X101182142Y-85499999D01*
X101086904Y-85499999D01*
X100991666Y-85547619D01*
X100944047Y-85595238D01*
X100896428Y-85690476D01*
X100896428Y-86023809D01*
X100372619Y-85023809D02*
X101039285Y-85023809D01*
X100848809Y-85023809D02*
X100944047Y-84976190D01*
X100991666Y-84928571D01*
X101039285Y-84833333D01*
X101039285Y-84738095D01*
X100420238Y-84023809D02*
X100372619Y-84119047D01*
X100372619Y-84309523D01*
X100420238Y-84404761D01*
X100515476Y-84452380D01*
X100896428Y-84452380D01*
X100991666Y-84404761D01*
X101039285Y-84309523D01*
X101039285Y-84119047D01*
X100991666Y-84023809D01*
X100896428Y-83976190D01*
X100801190Y-83976190D01*
X100705952Y-84452380D01*
X100372619Y-83119047D02*
X100896428Y-83119047D01*
X100991666Y-83166666D01*
X101039285Y-83261904D01*
X101039285Y-83452380D01*
X100991666Y-83547619D01*
X100420238Y-83119047D02*
X100372619Y-83214285D01*
X100372619Y-83452380D01*
X100420238Y-83547619D01*
X100515476Y-83595238D01*
X100610714Y-83595238D01*
X100705952Y-83547619D01*
X100753571Y-83452380D01*
X100753571Y-83214285D01*
X100801190Y-83119047D01*
X100372619Y-82214285D02*
X101372619Y-82214285D01*
X100420238Y-82214285D02*
X100372619Y-82309523D01*
X100372619Y-82499999D01*
X100420238Y-82595238D01*
X100467857Y-82642857D01*
X100563095Y-82690476D01*
X100848809Y-82690476D01*
X100944047Y-82642857D01*
X100991666Y-82595238D01*
X101039285Y-82499999D01*
X101039285Y-82309523D01*
X100991666Y-82214285D01*
X100896428Y-81404761D02*
X100848809Y-81261904D01*
X100801190Y-81214285D01*
X100705952Y-81166666D01*
X100563095Y-81166666D01*
X100467857Y-81214285D01*
X100420238Y-81261904D01*
X100372619Y-81357142D01*
X100372619Y-81738095D01*
X101372619Y-81738095D01*
X101372619Y-81404761D01*
X101325000Y-81309523D01*
X101277380Y-81261904D01*
X101182142Y-81214285D01*
X101086904Y-81214285D01*
X100991666Y-81261904D01*
X100944047Y-81309523D01*
X100896428Y-81404761D01*
X100896428Y-81738095D01*
X100372619Y-80595238D02*
X100420238Y-80690476D01*
X100467857Y-80738095D01*
X100563095Y-80785714D01*
X100848809Y-80785714D01*
X100944047Y-80738095D01*
X100991666Y-80690476D01*
X101039285Y-80595238D01*
X101039285Y-80452380D01*
X100991666Y-80357142D01*
X100944047Y-80309523D01*
X100848809Y-80261904D01*
X100563095Y-80261904D01*
X100467857Y-80309523D01*
X100420238Y-80357142D01*
X100372619Y-80452380D01*
X100372619Y-80595238D01*
X100372619Y-79404761D02*
X100896428Y-79404761D01*
X100991666Y-79452380D01*
X101039285Y-79547619D01*
X101039285Y-79738095D01*
X100991666Y-79833333D01*
X100420238Y-79404761D02*
X100372619Y-79499999D01*
X100372619Y-79738095D01*
X100420238Y-79833333D01*
X100515476Y-79880952D01*
X100610714Y-79880952D01*
X100705952Y-79833333D01*
X100753571Y-79738095D01*
X100753571Y-79499999D01*
X100801190Y-79404761D01*
X100372619Y-78928571D02*
X101039285Y-78928571D01*
X100848809Y-78928571D02*
X100944047Y-78880952D01*
X100991666Y-78833333D01*
X101039285Y-78738095D01*
X101039285Y-78642857D01*
X100372619Y-77880952D02*
X101372619Y-77880952D01*
X100420238Y-77880952D02*
X100372619Y-77976190D01*
X100372619Y-78166666D01*
X100420238Y-78261904D01*
X100467857Y-78309523D01*
X100563095Y-78357142D01*
X100848809Y-78357142D01*
X100944047Y-78309523D01*
X100991666Y-78261904D01*
X101039285Y-78166666D01*
X101039285Y-77976190D01*
X100991666Y-77880952D01*
X99246428Y-94047619D02*
X99198809Y-93904761D01*
X99151190Y-93857142D01*
X99055952Y-93809523D01*
X98913095Y-93809523D01*
X98817857Y-93857142D01*
X98770238Y-93904761D01*
X98722619Y-94000000D01*
X98722619Y-94380952D01*
X99722619Y-94380952D01*
X99722619Y-94047619D01*
X99675000Y-93952380D01*
X99627380Y-93904761D01*
X99532142Y-93857142D01*
X99436904Y-93857142D01*
X99341666Y-93904761D01*
X99294047Y-93952380D01*
X99246428Y-94047619D01*
X99246428Y-94380952D01*
X98722619Y-93380952D02*
X99389285Y-93380952D01*
X99198809Y-93380952D02*
X99294047Y-93333333D01*
X99341666Y-93285714D01*
X99389285Y-93190476D01*
X99389285Y-93095238D01*
X98722619Y-92761904D02*
X99389285Y-92761904D01*
X99722619Y-92761904D02*
X99675000Y-92809523D01*
X99627380Y-92761904D01*
X99675000Y-92714285D01*
X99722619Y-92761904D01*
X99627380Y-92761904D01*
X98722619Y-91857142D02*
X99722619Y-91857142D01*
X98770238Y-91857142D02*
X98722619Y-91952380D01*
X98722619Y-92142857D01*
X98770238Y-92238095D01*
X98817857Y-92285714D01*
X98913095Y-92333333D01*
X99198809Y-92333333D01*
X99294047Y-92285714D01*
X99341666Y-92238095D01*
X99389285Y-92142857D01*
X99389285Y-91952380D01*
X99341666Y-91857142D01*
X99389285Y-90952380D02*
X98579761Y-90952380D01*
X98484523Y-91000000D01*
X98436904Y-91047619D01*
X98389285Y-91142857D01*
X98389285Y-91285714D01*
X98436904Y-91380952D01*
X98770238Y-90952380D02*
X98722619Y-91047619D01*
X98722619Y-91238095D01*
X98770238Y-91333333D01*
X98817857Y-91380952D01*
X98913095Y-91428571D01*
X99198809Y-91428571D01*
X99294047Y-91380952D01*
X99341666Y-91333333D01*
X99389285Y-91238095D01*
X99389285Y-91047619D01*
X99341666Y-90952380D01*
X98770238Y-90095238D02*
X98722619Y-90190476D01*
X98722619Y-90380952D01*
X98770238Y-90476190D01*
X98865476Y-90523809D01*
X99246428Y-90523809D01*
X99341666Y-90476190D01*
X99389285Y-90380952D01*
X99389285Y-90190476D01*
X99341666Y-90095238D01*
X99246428Y-90047619D01*
X99151190Y-90047619D01*
X99055952Y-90523809D01*
X98722619Y-88857142D02*
X99722619Y-88857142D01*
X99008333Y-88523809D01*
X99722619Y-88190476D01*
X98722619Y-88190476D01*
X98722619Y-87571428D02*
X98770238Y-87666666D01*
X98817857Y-87714285D01*
X98913095Y-87761904D01*
X99198809Y-87761904D01*
X99294047Y-87714285D01*
X99341666Y-87666666D01*
X99389285Y-87571428D01*
X99389285Y-87428571D01*
X99341666Y-87333333D01*
X99294047Y-87285714D01*
X99198809Y-87238095D01*
X98913095Y-87238095D01*
X98817857Y-87285714D01*
X98770238Y-87333333D01*
X98722619Y-87428571D01*
X98722619Y-87571428D01*
X99389285Y-86809523D02*
X98722619Y-86809523D01*
X99294047Y-86809523D02*
X99341666Y-86761904D01*
X99389285Y-86666666D01*
X99389285Y-86523809D01*
X99341666Y-86428571D01*
X99246428Y-86380952D01*
X98722619Y-86380952D01*
X98722619Y-85904761D02*
X99389285Y-85904761D01*
X99722619Y-85904761D02*
X99675000Y-85952380D01*
X99627380Y-85904761D01*
X99675000Y-85857142D01*
X99722619Y-85904761D01*
X99627380Y-85904761D01*
X99389285Y-85571428D02*
X99389285Y-85190476D01*
X99722619Y-85428571D02*
X98865476Y-85428571D01*
X98770238Y-85380952D01*
X98722619Y-85285714D01*
X98722619Y-85190476D01*
X98722619Y-84714285D02*
X98770238Y-84809523D01*
X98817857Y-84857142D01*
X98913095Y-84904761D01*
X99198809Y-84904761D01*
X99294047Y-84857142D01*
X99341666Y-84809523D01*
X99389285Y-84714285D01*
X99389285Y-84571428D01*
X99341666Y-84476190D01*
X99294047Y-84428571D01*
X99198809Y-84380952D01*
X98913095Y-84380952D01*
X98817857Y-84428571D01*
X98770238Y-84476190D01*
X98722619Y-84571428D01*
X98722619Y-84714285D01*
X98722619Y-83952380D02*
X99389285Y-83952380D01*
X99198809Y-83952380D02*
X99294047Y-83904761D01*
X99341666Y-83857142D01*
X99389285Y-83761904D01*
X99389285Y-83666666D01*
X99294047Y-82428571D02*
X99341666Y-82523809D01*
X99389285Y-82571428D01*
X99484523Y-82619047D01*
X99532142Y-82619047D01*
X99627380Y-82571428D01*
X99675000Y-82523809D01*
X99722619Y-82428571D01*
X99722619Y-82238095D01*
X99675000Y-82142857D01*
X99627380Y-82095238D01*
X99532142Y-82047619D01*
X99484523Y-82047619D01*
X99389285Y-82095238D01*
X99341666Y-82142857D01*
X99294047Y-82238095D01*
X99294047Y-82428571D01*
X99246428Y-82523809D01*
X99198809Y-82571428D01*
X99103571Y-82619047D01*
X98913095Y-82619047D01*
X98817857Y-82571428D01*
X98770238Y-82523809D01*
X98722619Y-82428571D01*
X98722619Y-82238095D01*
X98770238Y-82142857D01*
X98817857Y-82095238D01*
X98913095Y-82047619D01*
X99103571Y-82047619D01*
X99198809Y-82095238D01*
X99246428Y-82142857D01*
X99294047Y-82238095D01*
X99389285Y-80952380D02*
X98722619Y-80714285D01*
X99389285Y-80476190D01*
X98722619Y-79571428D02*
X98722619Y-80142857D01*
X98722619Y-79857142D02*
X99722619Y-79857142D01*
X99579761Y-79952380D01*
X99484523Y-80047619D01*
X99436904Y-80142857D01*
D11*
%TO.C,J1*%
X94870000Y-99480000D02*
X96200000Y-99480000D01*
X94870000Y-98150000D02*
X94870000Y-99480000D01*
X94870000Y-96880000D02*
X97530000Y-96880000D01*
X97530000Y-96880000D02*
X97530000Y-76500000D01*
X94870000Y-96880000D02*
X94870000Y-76500000D01*
X94870000Y-76500000D02*
X97530000Y-76500000D01*
%TO.C,J2*%
X102470000Y-76500000D02*
X105130000Y-76500000D01*
X102470000Y-96880000D02*
X102470000Y-76500000D01*
X105130000Y-96880000D02*
X105130000Y-76500000D01*
X102470000Y-96880000D02*
X105130000Y-96880000D01*
X102470000Y-98150000D02*
X102470000Y-99480000D01*
X102470000Y-99480000D02*
X103800000Y-99480000D01*
%TO.C,J1*%
D10*
X99133333Y-97602380D02*
X99133333Y-98316666D01*
X99180952Y-98459523D01*
X99276190Y-98554761D01*
X99419047Y-98602380D01*
X99514285Y-98602380D01*
X98133333Y-98602380D02*
X98704761Y-98602380D01*
X98419047Y-98602380D02*
X98419047Y-97602380D01*
X98514285Y-97745238D01*
X98609523Y-97840476D01*
X98704761Y-97888095D01*
%TO.C,J2*%
X101483333Y-97602380D02*
X101483333Y-98316666D01*
X101530952Y-98459523D01*
X101626190Y-98554761D01*
X101769047Y-98602380D01*
X101864285Y-98602380D01*
X101054761Y-97697619D02*
X101007142Y-97650000D01*
X100911904Y-97602380D01*
X100673809Y-97602380D01*
X100578571Y-97650000D01*
X100530952Y-97697619D01*
X100483333Y-97792857D01*
X100483333Y-97888095D01*
X100530952Y-98030952D01*
X101102380Y-98602380D01*
X100483333Y-98602380D01*
%TD*%
M02*
