M48
; DRILL file {KiCad (5.1.9)-1} date 02/04/21 07:54:45
; FORMAT={-:-/ absolute / inch / decimal}
; #@! TF.CreationDate,2021-02-04T07:54:45-05:00
; #@! TF.GenerationSoftware,Kicad,Pcbnew,(5.1.9)-1
; #@! TF.FileFunction,Plated,1,2,PTH
FMAT,2
INCH
T1C0.0315
T2C0.0394
%
G90
G05
T1
X3.6476Y-3.0652
X3.6476Y-3.1652
X3.6476Y-3.2652
X3.6476Y-3.3652
X3.6476Y-3.4652
X3.6476Y-3.5652
X3.6476Y-3.6652
X3.6476Y-3.7652
X3.6476Y-3.8652
T2
X3.7874Y-3.0642
X3.7874Y-3.1642
X3.7874Y-3.2642
X3.7874Y-3.3642
X3.7874Y-3.4642
X3.7874Y-3.5642
X3.7874Y-3.6642
X3.7874Y-3.7642
X3.7874Y-3.8642
X4.0866Y-3.0642
X4.0866Y-3.1642
X4.0866Y-3.2642
X4.0866Y-3.3642
X4.0866Y-3.4642
X4.0866Y-3.5642
X4.0866Y-3.6642
X4.0866Y-3.7642
X4.0866Y-3.8642
T0
M30
