%TF.GenerationSoftware,KiCad,Pcbnew,(5.1.9)-1*%
%TF.CreationDate,2021-02-03T20:33:17-05:00*%
%TF.ProjectId,NerdConsole_BreadBoard_BridgeMonitor8,4e657264-436f-46e7-936f-6c655f427265,rev?*%
%TF.SameCoordinates,Original*%
%TF.FileFunction,Copper,L2,Bot*%
%TF.FilePolarity,Positive*%
%FSLAX46Y46*%
G04 Gerber Fmt 4.6, Leading zero omitted, Abs format (unit mm)*
G04 Created by KiCad (PCBNEW (5.1.9)-1) date 2021-02-03 20:33:17*
%MOMM*%
%LPD*%
G01*
G04 APERTURE LIST*
%TA.AperFunction,ComponentPad*%
%ADD10O,1.700000X1.700000*%
%TD*%
%TA.AperFunction,ComponentPad*%
%ADD11R,1.700000X1.700000*%
%TD*%
%TA.AperFunction,ComponentPad*%
%ADD12R,1.600000X1.600000*%
%TD*%
%TA.AperFunction,ComponentPad*%
%ADD13O,1.600000X1.600000*%
%TD*%
%TA.AperFunction,Conductor*%
%ADD14C,0.254000*%
%TD*%
%TA.AperFunction,Conductor*%
%ADD15C,0.100000*%
%TD*%
G04 APERTURE END LIST*
D10*
%TO.P,J1,9*%
%TO.N,D7*%
X96200000Y-77830000D03*
%TO.P,J1,8*%
%TO.N,D6*%
X96200000Y-80370000D03*
%TO.P,J1,7*%
%TO.N,D5*%
X96200000Y-82910000D03*
%TO.P,J1,6*%
%TO.N,D4*%
X96200000Y-85450000D03*
%TO.P,J1,5*%
%TO.N,D3*%
X96200000Y-87990000D03*
%TO.P,J1,4*%
%TO.N,D2*%
X96200000Y-90530000D03*
%TO.P,J1,3*%
%TO.N,D1*%
X96200000Y-93070000D03*
%TO.P,J1,2*%
%TO.N,D0*%
X96200000Y-95610000D03*
D11*
%TO.P,J1,1*%
%TO.N,GND*%
X96200000Y-98150000D03*
%TD*%
%TO.P,J2,1*%
%TO.N,GND*%
X103800000Y-98150000D03*
D10*
%TO.P,J2,2*%
%TO.N,D0*%
X103800000Y-95610000D03*
%TO.P,J2,3*%
%TO.N,D1*%
X103800000Y-93070000D03*
%TO.P,J2,4*%
%TO.N,D2*%
X103800000Y-90530000D03*
%TO.P,J2,5*%
%TO.N,D3*%
X103800000Y-87990000D03*
%TO.P,J2,6*%
%TO.N,D4*%
X103800000Y-85450000D03*
%TO.P,J2,7*%
%TO.N,D5*%
X103800000Y-82910000D03*
%TO.P,J2,8*%
%TO.N,D6*%
X103800000Y-80370000D03*
%TO.P,J2,9*%
%TO.N,D7*%
X103800000Y-77830000D03*
%TD*%
D12*
%TO.P,RN1,1*%
%TO.N,GND*%
X92650000Y-98175000D03*
D13*
%TO.P,RN1,2*%
%TO.N,LED0*%
X92650000Y-95635000D03*
%TO.P,RN1,3*%
%TO.N,LED1*%
X92650000Y-93095000D03*
%TO.P,RN1,4*%
%TO.N,LED2*%
X92650000Y-90555000D03*
%TO.P,RN1,5*%
%TO.N,LED3*%
X92650000Y-88015000D03*
%TO.P,RN1,6*%
%TO.N,LED4*%
X92650000Y-85475000D03*
%TO.P,RN1,7*%
%TO.N,LED5*%
X92650000Y-82935000D03*
%TO.P,RN1,8*%
%TO.N,LED6*%
X92650000Y-80395000D03*
%TO.P,RN1,9*%
%TO.N,LED7*%
X92650000Y-77855000D03*
%TD*%
D14*
%TO.N,GND*%
X105590001Y-99840000D02*
X91160000Y-99840000D01*
X91160000Y-98975000D01*
X91211928Y-98975000D01*
X91224188Y-99099482D01*
X91260498Y-99219180D01*
X91319463Y-99329494D01*
X91398815Y-99426185D01*
X91495506Y-99505537D01*
X91605820Y-99564502D01*
X91725518Y-99600812D01*
X91850000Y-99613072D01*
X92364250Y-99610000D01*
X92523000Y-99451250D01*
X92523000Y-98302000D01*
X92777000Y-98302000D01*
X92777000Y-99451250D01*
X92935750Y-99610000D01*
X93450000Y-99613072D01*
X93574482Y-99600812D01*
X93694180Y-99564502D01*
X93804494Y-99505537D01*
X93901185Y-99426185D01*
X93980537Y-99329494D01*
X94039502Y-99219180D01*
X94075812Y-99099482D01*
X94085609Y-99000000D01*
X94711928Y-99000000D01*
X94724188Y-99124482D01*
X94760498Y-99244180D01*
X94819463Y-99354494D01*
X94898815Y-99451185D01*
X94995506Y-99530537D01*
X95105820Y-99589502D01*
X95225518Y-99625812D01*
X95350000Y-99638072D01*
X95914250Y-99635000D01*
X96073000Y-99476250D01*
X96073000Y-98277000D01*
X96327000Y-98277000D01*
X96327000Y-99476250D01*
X96485750Y-99635000D01*
X97050000Y-99638072D01*
X97174482Y-99625812D01*
X97294180Y-99589502D01*
X97404494Y-99530537D01*
X97501185Y-99451185D01*
X97580537Y-99354494D01*
X97639502Y-99244180D01*
X97675812Y-99124482D01*
X97688072Y-99000000D01*
X102311928Y-99000000D01*
X102324188Y-99124482D01*
X102360498Y-99244180D01*
X102419463Y-99354494D01*
X102498815Y-99451185D01*
X102595506Y-99530537D01*
X102705820Y-99589502D01*
X102825518Y-99625812D01*
X102950000Y-99638072D01*
X103514250Y-99635000D01*
X103673000Y-99476250D01*
X103673000Y-98277000D01*
X103927000Y-98277000D01*
X103927000Y-99476250D01*
X104085750Y-99635000D01*
X104650000Y-99638072D01*
X104774482Y-99625812D01*
X104894180Y-99589502D01*
X105004494Y-99530537D01*
X105101185Y-99451185D01*
X105180537Y-99354494D01*
X105239502Y-99244180D01*
X105275812Y-99124482D01*
X105288072Y-99000000D01*
X105285000Y-98435750D01*
X105126250Y-98277000D01*
X103927000Y-98277000D01*
X103673000Y-98277000D01*
X102473750Y-98277000D01*
X102315000Y-98435750D01*
X102311928Y-99000000D01*
X97688072Y-99000000D01*
X97685000Y-98435750D01*
X97526250Y-98277000D01*
X96327000Y-98277000D01*
X96073000Y-98277000D01*
X94873750Y-98277000D01*
X94715000Y-98435750D01*
X94711928Y-99000000D01*
X94085609Y-99000000D01*
X94088072Y-98975000D01*
X94085000Y-98460750D01*
X93926250Y-98302000D01*
X92777000Y-98302000D01*
X92523000Y-98302000D01*
X91373750Y-98302000D01*
X91215000Y-98460750D01*
X91211928Y-98975000D01*
X91160000Y-98975000D01*
X91160000Y-97375000D01*
X91211928Y-97375000D01*
X91215000Y-97889250D01*
X91373750Y-98048000D01*
X92523000Y-98048000D01*
X92523000Y-98028000D01*
X92777000Y-98028000D01*
X92777000Y-98048000D01*
X93926250Y-98048000D01*
X94085000Y-97889250D01*
X94088072Y-97375000D01*
X94080686Y-97300000D01*
X94711928Y-97300000D01*
X94715000Y-97864250D01*
X94873750Y-98023000D01*
X96073000Y-98023000D01*
X96073000Y-98003000D01*
X96327000Y-98003000D01*
X96327000Y-98023000D01*
X97526250Y-98023000D01*
X97685000Y-97864250D01*
X97688072Y-97300000D01*
X102311928Y-97300000D01*
X102315000Y-97864250D01*
X102473750Y-98023000D01*
X103673000Y-98023000D01*
X103673000Y-98003000D01*
X103927000Y-98003000D01*
X103927000Y-98023000D01*
X105126250Y-98023000D01*
X105285000Y-97864250D01*
X105288072Y-97300000D01*
X105275812Y-97175518D01*
X105239502Y-97055820D01*
X105180537Y-96945506D01*
X105101185Y-96848815D01*
X105004494Y-96769463D01*
X104894180Y-96710498D01*
X104821620Y-96688487D01*
X104953475Y-96556632D01*
X105115990Y-96313411D01*
X105227932Y-96043158D01*
X105285000Y-95756260D01*
X105285000Y-95463740D01*
X105227932Y-95176842D01*
X105115990Y-94906589D01*
X104953475Y-94663368D01*
X104746632Y-94456525D01*
X104572240Y-94340000D01*
X104746632Y-94223475D01*
X104953475Y-94016632D01*
X105115990Y-93773411D01*
X105227932Y-93503158D01*
X105285000Y-93216260D01*
X105285000Y-92923740D01*
X105227932Y-92636842D01*
X105115990Y-92366589D01*
X104953475Y-92123368D01*
X104746632Y-91916525D01*
X104572240Y-91800000D01*
X104746632Y-91683475D01*
X104953475Y-91476632D01*
X105115990Y-91233411D01*
X105227932Y-90963158D01*
X105285000Y-90676260D01*
X105285000Y-90383740D01*
X105227932Y-90096842D01*
X105115990Y-89826589D01*
X104953475Y-89583368D01*
X104746632Y-89376525D01*
X104572240Y-89260000D01*
X104746632Y-89143475D01*
X104953475Y-88936632D01*
X105115990Y-88693411D01*
X105227932Y-88423158D01*
X105285000Y-88136260D01*
X105285000Y-87843740D01*
X105227932Y-87556842D01*
X105115990Y-87286589D01*
X104953475Y-87043368D01*
X104746632Y-86836525D01*
X104572240Y-86720000D01*
X104746632Y-86603475D01*
X104953475Y-86396632D01*
X105115990Y-86153411D01*
X105227932Y-85883158D01*
X105285000Y-85596260D01*
X105285000Y-85303740D01*
X105227932Y-85016842D01*
X105115990Y-84746589D01*
X104953475Y-84503368D01*
X104746632Y-84296525D01*
X104572240Y-84180000D01*
X104746632Y-84063475D01*
X104953475Y-83856632D01*
X105115990Y-83613411D01*
X105227932Y-83343158D01*
X105285000Y-83056260D01*
X105285000Y-82763740D01*
X105227932Y-82476842D01*
X105115990Y-82206589D01*
X104953475Y-81963368D01*
X104746632Y-81756525D01*
X104572240Y-81640000D01*
X104746632Y-81523475D01*
X104953475Y-81316632D01*
X105115990Y-81073411D01*
X105227932Y-80803158D01*
X105285000Y-80516260D01*
X105285000Y-80223740D01*
X105227932Y-79936842D01*
X105115990Y-79666589D01*
X104953475Y-79423368D01*
X104746632Y-79216525D01*
X104572240Y-79100000D01*
X104746632Y-78983475D01*
X104953475Y-78776632D01*
X105115990Y-78533411D01*
X105227932Y-78263158D01*
X105285000Y-77976260D01*
X105285000Y-77683740D01*
X105227932Y-77396842D01*
X105115990Y-77126589D01*
X104953475Y-76883368D01*
X104746632Y-76676525D01*
X104503411Y-76514010D01*
X104233158Y-76402068D01*
X103946260Y-76345000D01*
X103653740Y-76345000D01*
X103366842Y-76402068D01*
X103096589Y-76514010D01*
X102853368Y-76676525D01*
X102646525Y-76883368D01*
X102484010Y-77126589D01*
X102372068Y-77396842D01*
X102315000Y-77683740D01*
X102315000Y-77976260D01*
X102372068Y-78263158D01*
X102484010Y-78533411D01*
X102646525Y-78776632D01*
X102853368Y-78983475D01*
X103027760Y-79100000D01*
X102853368Y-79216525D01*
X102646525Y-79423368D01*
X102484010Y-79666589D01*
X102372068Y-79936842D01*
X102315000Y-80223740D01*
X102315000Y-80516260D01*
X102372068Y-80803158D01*
X102484010Y-81073411D01*
X102646525Y-81316632D01*
X102853368Y-81523475D01*
X103027760Y-81640000D01*
X102853368Y-81756525D01*
X102646525Y-81963368D01*
X102484010Y-82206589D01*
X102372068Y-82476842D01*
X102315000Y-82763740D01*
X102315000Y-83056260D01*
X102372068Y-83343158D01*
X102484010Y-83613411D01*
X102646525Y-83856632D01*
X102853368Y-84063475D01*
X103027760Y-84180000D01*
X102853368Y-84296525D01*
X102646525Y-84503368D01*
X102484010Y-84746589D01*
X102372068Y-85016842D01*
X102315000Y-85303740D01*
X102315000Y-85596260D01*
X102372068Y-85883158D01*
X102484010Y-86153411D01*
X102646525Y-86396632D01*
X102853368Y-86603475D01*
X103027760Y-86720000D01*
X102853368Y-86836525D01*
X102646525Y-87043368D01*
X102484010Y-87286589D01*
X102372068Y-87556842D01*
X102315000Y-87843740D01*
X102315000Y-88136260D01*
X102372068Y-88423158D01*
X102484010Y-88693411D01*
X102646525Y-88936632D01*
X102853368Y-89143475D01*
X103027760Y-89260000D01*
X102853368Y-89376525D01*
X102646525Y-89583368D01*
X102484010Y-89826589D01*
X102372068Y-90096842D01*
X102315000Y-90383740D01*
X102315000Y-90676260D01*
X102372068Y-90963158D01*
X102484010Y-91233411D01*
X102646525Y-91476632D01*
X102853368Y-91683475D01*
X103027760Y-91800000D01*
X102853368Y-91916525D01*
X102646525Y-92123368D01*
X102484010Y-92366589D01*
X102372068Y-92636842D01*
X102315000Y-92923740D01*
X102315000Y-93216260D01*
X102372068Y-93503158D01*
X102484010Y-93773411D01*
X102646525Y-94016632D01*
X102853368Y-94223475D01*
X103027760Y-94340000D01*
X102853368Y-94456525D01*
X102646525Y-94663368D01*
X102484010Y-94906589D01*
X102372068Y-95176842D01*
X102315000Y-95463740D01*
X102315000Y-95756260D01*
X102372068Y-96043158D01*
X102484010Y-96313411D01*
X102646525Y-96556632D01*
X102778380Y-96688487D01*
X102705820Y-96710498D01*
X102595506Y-96769463D01*
X102498815Y-96848815D01*
X102419463Y-96945506D01*
X102360498Y-97055820D01*
X102324188Y-97175518D01*
X102311928Y-97300000D01*
X97688072Y-97300000D01*
X97675812Y-97175518D01*
X97639502Y-97055820D01*
X97580537Y-96945506D01*
X97501185Y-96848815D01*
X97404494Y-96769463D01*
X97294180Y-96710498D01*
X97221620Y-96688487D01*
X97353475Y-96556632D01*
X97515990Y-96313411D01*
X97627932Y-96043158D01*
X97685000Y-95756260D01*
X97685000Y-95463740D01*
X97627932Y-95176842D01*
X97515990Y-94906589D01*
X97353475Y-94663368D01*
X97146632Y-94456525D01*
X96972240Y-94340000D01*
X97146632Y-94223475D01*
X97353475Y-94016632D01*
X97515990Y-93773411D01*
X97627932Y-93503158D01*
X97685000Y-93216260D01*
X97685000Y-92923740D01*
X97627932Y-92636842D01*
X97515990Y-92366589D01*
X97353475Y-92123368D01*
X97146632Y-91916525D01*
X96972240Y-91800000D01*
X97146632Y-91683475D01*
X97353475Y-91476632D01*
X97515990Y-91233411D01*
X97627932Y-90963158D01*
X97685000Y-90676260D01*
X97685000Y-90383740D01*
X97627932Y-90096842D01*
X97515990Y-89826589D01*
X97353475Y-89583368D01*
X97146632Y-89376525D01*
X96972240Y-89260000D01*
X97146632Y-89143475D01*
X97353475Y-88936632D01*
X97515990Y-88693411D01*
X97627932Y-88423158D01*
X97685000Y-88136260D01*
X97685000Y-87843740D01*
X97627932Y-87556842D01*
X97515990Y-87286589D01*
X97353475Y-87043368D01*
X97146632Y-86836525D01*
X96972240Y-86720000D01*
X97146632Y-86603475D01*
X97353475Y-86396632D01*
X97515990Y-86153411D01*
X97627932Y-85883158D01*
X97685000Y-85596260D01*
X97685000Y-85303740D01*
X97627932Y-85016842D01*
X97515990Y-84746589D01*
X97353475Y-84503368D01*
X97146632Y-84296525D01*
X96972240Y-84180000D01*
X97146632Y-84063475D01*
X97353475Y-83856632D01*
X97515990Y-83613411D01*
X97627932Y-83343158D01*
X97685000Y-83056260D01*
X97685000Y-82763740D01*
X97627932Y-82476842D01*
X97515990Y-82206589D01*
X97353475Y-81963368D01*
X97146632Y-81756525D01*
X96972240Y-81640000D01*
X97146632Y-81523475D01*
X97353475Y-81316632D01*
X97515990Y-81073411D01*
X97627932Y-80803158D01*
X97685000Y-80516260D01*
X97685000Y-80223740D01*
X97627932Y-79936842D01*
X97515990Y-79666589D01*
X97353475Y-79423368D01*
X97146632Y-79216525D01*
X96972240Y-79100000D01*
X97146632Y-78983475D01*
X97353475Y-78776632D01*
X97515990Y-78533411D01*
X97627932Y-78263158D01*
X97685000Y-77976260D01*
X97685000Y-77683740D01*
X97627932Y-77396842D01*
X97515990Y-77126589D01*
X97353475Y-76883368D01*
X97146632Y-76676525D01*
X96903411Y-76514010D01*
X96633158Y-76402068D01*
X96346260Y-76345000D01*
X96053740Y-76345000D01*
X95766842Y-76402068D01*
X95496589Y-76514010D01*
X95253368Y-76676525D01*
X95046525Y-76883368D01*
X94884010Y-77126589D01*
X94772068Y-77396842D01*
X94715000Y-77683740D01*
X94715000Y-77976260D01*
X94772068Y-78263158D01*
X94884010Y-78533411D01*
X95046525Y-78776632D01*
X95253368Y-78983475D01*
X95427760Y-79100000D01*
X95253368Y-79216525D01*
X95046525Y-79423368D01*
X94884010Y-79666589D01*
X94772068Y-79936842D01*
X94715000Y-80223740D01*
X94715000Y-80516260D01*
X94772068Y-80803158D01*
X94884010Y-81073411D01*
X95046525Y-81316632D01*
X95253368Y-81523475D01*
X95427760Y-81640000D01*
X95253368Y-81756525D01*
X95046525Y-81963368D01*
X94884010Y-82206589D01*
X94772068Y-82476842D01*
X94715000Y-82763740D01*
X94715000Y-83056260D01*
X94772068Y-83343158D01*
X94884010Y-83613411D01*
X95046525Y-83856632D01*
X95253368Y-84063475D01*
X95427760Y-84180000D01*
X95253368Y-84296525D01*
X95046525Y-84503368D01*
X94884010Y-84746589D01*
X94772068Y-85016842D01*
X94715000Y-85303740D01*
X94715000Y-85596260D01*
X94772068Y-85883158D01*
X94884010Y-86153411D01*
X95046525Y-86396632D01*
X95253368Y-86603475D01*
X95427760Y-86720000D01*
X95253368Y-86836525D01*
X95046525Y-87043368D01*
X94884010Y-87286589D01*
X94772068Y-87556842D01*
X94715000Y-87843740D01*
X94715000Y-88136260D01*
X94772068Y-88423158D01*
X94884010Y-88693411D01*
X95046525Y-88936632D01*
X95253368Y-89143475D01*
X95427760Y-89260000D01*
X95253368Y-89376525D01*
X95046525Y-89583368D01*
X94884010Y-89826589D01*
X94772068Y-90096842D01*
X94715000Y-90383740D01*
X94715000Y-90676260D01*
X94772068Y-90963158D01*
X94884010Y-91233411D01*
X95046525Y-91476632D01*
X95253368Y-91683475D01*
X95427760Y-91800000D01*
X95253368Y-91916525D01*
X95046525Y-92123368D01*
X94884010Y-92366589D01*
X94772068Y-92636842D01*
X94715000Y-92923740D01*
X94715000Y-93216260D01*
X94772068Y-93503158D01*
X94884010Y-93773411D01*
X95046525Y-94016632D01*
X95253368Y-94223475D01*
X95427760Y-94340000D01*
X95253368Y-94456525D01*
X95046525Y-94663368D01*
X94884010Y-94906589D01*
X94772068Y-95176842D01*
X94715000Y-95463740D01*
X94715000Y-95756260D01*
X94772068Y-96043158D01*
X94884010Y-96313411D01*
X95046525Y-96556632D01*
X95178380Y-96688487D01*
X95105820Y-96710498D01*
X94995506Y-96769463D01*
X94898815Y-96848815D01*
X94819463Y-96945506D01*
X94760498Y-97055820D01*
X94724188Y-97175518D01*
X94711928Y-97300000D01*
X94080686Y-97300000D01*
X94075812Y-97250518D01*
X94039502Y-97130820D01*
X93980537Y-97020506D01*
X93901185Y-96923815D01*
X93804494Y-96844463D01*
X93694180Y-96785498D01*
X93574482Y-96749188D01*
X93566039Y-96748357D01*
X93764637Y-96549759D01*
X93921680Y-96314727D01*
X94029853Y-96053574D01*
X94085000Y-95776335D01*
X94085000Y-95493665D01*
X94029853Y-95216426D01*
X93921680Y-94955273D01*
X93764637Y-94720241D01*
X93564759Y-94520363D01*
X93332241Y-94365000D01*
X93564759Y-94209637D01*
X93764637Y-94009759D01*
X93921680Y-93774727D01*
X94029853Y-93513574D01*
X94085000Y-93236335D01*
X94085000Y-92953665D01*
X94029853Y-92676426D01*
X93921680Y-92415273D01*
X93764637Y-92180241D01*
X93564759Y-91980363D01*
X93332241Y-91825000D01*
X93564759Y-91669637D01*
X93764637Y-91469759D01*
X93921680Y-91234727D01*
X94029853Y-90973574D01*
X94085000Y-90696335D01*
X94085000Y-90413665D01*
X94029853Y-90136426D01*
X93921680Y-89875273D01*
X93764637Y-89640241D01*
X93564759Y-89440363D01*
X93332241Y-89285000D01*
X93564759Y-89129637D01*
X93764637Y-88929759D01*
X93921680Y-88694727D01*
X94029853Y-88433574D01*
X94085000Y-88156335D01*
X94085000Y-87873665D01*
X94029853Y-87596426D01*
X93921680Y-87335273D01*
X93764637Y-87100241D01*
X93564759Y-86900363D01*
X93332241Y-86745000D01*
X93564759Y-86589637D01*
X93764637Y-86389759D01*
X93921680Y-86154727D01*
X94029853Y-85893574D01*
X94085000Y-85616335D01*
X94085000Y-85333665D01*
X94029853Y-85056426D01*
X93921680Y-84795273D01*
X93764637Y-84560241D01*
X93564759Y-84360363D01*
X93332241Y-84205000D01*
X93564759Y-84049637D01*
X93764637Y-83849759D01*
X93921680Y-83614727D01*
X94029853Y-83353574D01*
X94085000Y-83076335D01*
X94085000Y-82793665D01*
X94029853Y-82516426D01*
X93921680Y-82255273D01*
X93764637Y-82020241D01*
X93564759Y-81820363D01*
X93332241Y-81665000D01*
X93564759Y-81509637D01*
X93764637Y-81309759D01*
X93921680Y-81074727D01*
X94029853Y-80813574D01*
X94085000Y-80536335D01*
X94085000Y-80253665D01*
X94029853Y-79976426D01*
X93921680Y-79715273D01*
X93764637Y-79480241D01*
X93564759Y-79280363D01*
X93332241Y-79125000D01*
X93564759Y-78969637D01*
X93764637Y-78769759D01*
X93921680Y-78534727D01*
X94029853Y-78273574D01*
X94085000Y-77996335D01*
X94085000Y-77713665D01*
X94029853Y-77436426D01*
X93921680Y-77175273D01*
X93764637Y-76940241D01*
X93564759Y-76740363D01*
X93329727Y-76583320D01*
X93068574Y-76475147D01*
X92791335Y-76420000D01*
X92508665Y-76420000D01*
X92231426Y-76475147D01*
X91970273Y-76583320D01*
X91735241Y-76740363D01*
X91535363Y-76940241D01*
X91378320Y-77175273D01*
X91270147Y-77436426D01*
X91215000Y-77713665D01*
X91215000Y-77996335D01*
X91270147Y-78273574D01*
X91378320Y-78534727D01*
X91535363Y-78769759D01*
X91735241Y-78969637D01*
X91967759Y-79125000D01*
X91735241Y-79280363D01*
X91535363Y-79480241D01*
X91378320Y-79715273D01*
X91270147Y-79976426D01*
X91215000Y-80253665D01*
X91215000Y-80536335D01*
X91270147Y-80813574D01*
X91378320Y-81074727D01*
X91535363Y-81309759D01*
X91735241Y-81509637D01*
X91967759Y-81665000D01*
X91735241Y-81820363D01*
X91535363Y-82020241D01*
X91378320Y-82255273D01*
X91270147Y-82516426D01*
X91215000Y-82793665D01*
X91215000Y-83076335D01*
X91270147Y-83353574D01*
X91378320Y-83614727D01*
X91535363Y-83849759D01*
X91735241Y-84049637D01*
X91967759Y-84205000D01*
X91735241Y-84360363D01*
X91535363Y-84560241D01*
X91378320Y-84795273D01*
X91270147Y-85056426D01*
X91215000Y-85333665D01*
X91215000Y-85616335D01*
X91270147Y-85893574D01*
X91378320Y-86154727D01*
X91535363Y-86389759D01*
X91735241Y-86589637D01*
X91967759Y-86745000D01*
X91735241Y-86900363D01*
X91535363Y-87100241D01*
X91378320Y-87335273D01*
X91270147Y-87596426D01*
X91215000Y-87873665D01*
X91215000Y-88156335D01*
X91270147Y-88433574D01*
X91378320Y-88694727D01*
X91535363Y-88929759D01*
X91735241Y-89129637D01*
X91967759Y-89285000D01*
X91735241Y-89440363D01*
X91535363Y-89640241D01*
X91378320Y-89875273D01*
X91270147Y-90136426D01*
X91215000Y-90413665D01*
X91215000Y-90696335D01*
X91270147Y-90973574D01*
X91378320Y-91234727D01*
X91535363Y-91469759D01*
X91735241Y-91669637D01*
X91967759Y-91825000D01*
X91735241Y-91980363D01*
X91535363Y-92180241D01*
X91378320Y-92415273D01*
X91270147Y-92676426D01*
X91215000Y-92953665D01*
X91215000Y-93236335D01*
X91270147Y-93513574D01*
X91378320Y-93774727D01*
X91535363Y-94009759D01*
X91735241Y-94209637D01*
X91967759Y-94365000D01*
X91735241Y-94520363D01*
X91535363Y-94720241D01*
X91378320Y-94955273D01*
X91270147Y-95216426D01*
X91215000Y-95493665D01*
X91215000Y-95776335D01*
X91270147Y-96053574D01*
X91378320Y-96314727D01*
X91535363Y-96549759D01*
X91733961Y-96748357D01*
X91725518Y-96749188D01*
X91605820Y-96785498D01*
X91495506Y-96844463D01*
X91398815Y-96923815D01*
X91319463Y-97020506D01*
X91260498Y-97130820D01*
X91224188Y-97250518D01*
X91211928Y-97375000D01*
X91160000Y-97375000D01*
X91160000Y-76160000D01*
X105590000Y-76160000D01*
X105590001Y-99840000D01*
%TA.AperFunction,Conductor*%
D15*
G36*
X105590001Y-99840000D02*
G01*
X91160000Y-99840000D01*
X91160000Y-98975000D01*
X91211928Y-98975000D01*
X91224188Y-99099482D01*
X91260498Y-99219180D01*
X91319463Y-99329494D01*
X91398815Y-99426185D01*
X91495506Y-99505537D01*
X91605820Y-99564502D01*
X91725518Y-99600812D01*
X91850000Y-99613072D01*
X92364250Y-99610000D01*
X92523000Y-99451250D01*
X92523000Y-98302000D01*
X92777000Y-98302000D01*
X92777000Y-99451250D01*
X92935750Y-99610000D01*
X93450000Y-99613072D01*
X93574482Y-99600812D01*
X93694180Y-99564502D01*
X93804494Y-99505537D01*
X93901185Y-99426185D01*
X93980537Y-99329494D01*
X94039502Y-99219180D01*
X94075812Y-99099482D01*
X94085609Y-99000000D01*
X94711928Y-99000000D01*
X94724188Y-99124482D01*
X94760498Y-99244180D01*
X94819463Y-99354494D01*
X94898815Y-99451185D01*
X94995506Y-99530537D01*
X95105820Y-99589502D01*
X95225518Y-99625812D01*
X95350000Y-99638072D01*
X95914250Y-99635000D01*
X96073000Y-99476250D01*
X96073000Y-98277000D01*
X96327000Y-98277000D01*
X96327000Y-99476250D01*
X96485750Y-99635000D01*
X97050000Y-99638072D01*
X97174482Y-99625812D01*
X97294180Y-99589502D01*
X97404494Y-99530537D01*
X97501185Y-99451185D01*
X97580537Y-99354494D01*
X97639502Y-99244180D01*
X97675812Y-99124482D01*
X97688072Y-99000000D01*
X102311928Y-99000000D01*
X102324188Y-99124482D01*
X102360498Y-99244180D01*
X102419463Y-99354494D01*
X102498815Y-99451185D01*
X102595506Y-99530537D01*
X102705820Y-99589502D01*
X102825518Y-99625812D01*
X102950000Y-99638072D01*
X103514250Y-99635000D01*
X103673000Y-99476250D01*
X103673000Y-98277000D01*
X103927000Y-98277000D01*
X103927000Y-99476250D01*
X104085750Y-99635000D01*
X104650000Y-99638072D01*
X104774482Y-99625812D01*
X104894180Y-99589502D01*
X105004494Y-99530537D01*
X105101185Y-99451185D01*
X105180537Y-99354494D01*
X105239502Y-99244180D01*
X105275812Y-99124482D01*
X105288072Y-99000000D01*
X105285000Y-98435750D01*
X105126250Y-98277000D01*
X103927000Y-98277000D01*
X103673000Y-98277000D01*
X102473750Y-98277000D01*
X102315000Y-98435750D01*
X102311928Y-99000000D01*
X97688072Y-99000000D01*
X97685000Y-98435750D01*
X97526250Y-98277000D01*
X96327000Y-98277000D01*
X96073000Y-98277000D01*
X94873750Y-98277000D01*
X94715000Y-98435750D01*
X94711928Y-99000000D01*
X94085609Y-99000000D01*
X94088072Y-98975000D01*
X94085000Y-98460750D01*
X93926250Y-98302000D01*
X92777000Y-98302000D01*
X92523000Y-98302000D01*
X91373750Y-98302000D01*
X91215000Y-98460750D01*
X91211928Y-98975000D01*
X91160000Y-98975000D01*
X91160000Y-97375000D01*
X91211928Y-97375000D01*
X91215000Y-97889250D01*
X91373750Y-98048000D01*
X92523000Y-98048000D01*
X92523000Y-98028000D01*
X92777000Y-98028000D01*
X92777000Y-98048000D01*
X93926250Y-98048000D01*
X94085000Y-97889250D01*
X94088072Y-97375000D01*
X94080686Y-97300000D01*
X94711928Y-97300000D01*
X94715000Y-97864250D01*
X94873750Y-98023000D01*
X96073000Y-98023000D01*
X96073000Y-98003000D01*
X96327000Y-98003000D01*
X96327000Y-98023000D01*
X97526250Y-98023000D01*
X97685000Y-97864250D01*
X97688072Y-97300000D01*
X102311928Y-97300000D01*
X102315000Y-97864250D01*
X102473750Y-98023000D01*
X103673000Y-98023000D01*
X103673000Y-98003000D01*
X103927000Y-98003000D01*
X103927000Y-98023000D01*
X105126250Y-98023000D01*
X105285000Y-97864250D01*
X105288072Y-97300000D01*
X105275812Y-97175518D01*
X105239502Y-97055820D01*
X105180537Y-96945506D01*
X105101185Y-96848815D01*
X105004494Y-96769463D01*
X104894180Y-96710498D01*
X104821620Y-96688487D01*
X104953475Y-96556632D01*
X105115990Y-96313411D01*
X105227932Y-96043158D01*
X105285000Y-95756260D01*
X105285000Y-95463740D01*
X105227932Y-95176842D01*
X105115990Y-94906589D01*
X104953475Y-94663368D01*
X104746632Y-94456525D01*
X104572240Y-94340000D01*
X104746632Y-94223475D01*
X104953475Y-94016632D01*
X105115990Y-93773411D01*
X105227932Y-93503158D01*
X105285000Y-93216260D01*
X105285000Y-92923740D01*
X105227932Y-92636842D01*
X105115990Y-92366589D01*
X104953475Y-92123368D01*
X104746632Y-91916525D01*
X104572240Y-91800000D01*
X104746632Y-91683475D01*
X104953475Y-91476632D01*
X105115990Y-91233411D01*
X105227932Y-90963158D01*
X105285000Y-90676260D01*
X105285000Y-90383740D01*
X105227932Y-90096842D01*
X105115990Y-89826589D01*
X104953475Y-89583368D01*
X104746632Y-89376525D01*
X104572240Y-89260000D01*
X104746632Y-89143475D01*
X104953475Y-88936632D01*
X105115990Y-88693411D01*
X105227932Y-88423158D01*
X105285000Y-88136260D01*
X105285000Y-87843740D01*
X105227932Y-87556842D01*
X105115990Y-87286589D01*
X104953475Y-87043368D01*
X104746632Y-86836525D01*
X104572240Y-86720000D01*
X104746632Y-86603475D01*
X104953475Y-86396632D01*
X105115990Y-86153411D01*
X105227932Y-85883158D01*
X105285000Y-85596260D01*
X105285000Y-85303740D01*
X105227932Y-85016842D01*
X105115990Y-84746589D01*
X104953475Y-84503368D01*
X104746632Y-84296525D01*
X104572240Y-84180000D01*
X104746632Y-84063475D01*
X104953475Y-83856632D01*
X105115990Y-83613411D01*
X105227932Y-83343158D01*
X105285000Y-83056260D01*
X105285000Y-82763740D01*
X105227932Y-82476842D01*
X105115990Y-82206589D01*
X104953475Y-81963368D01*
X104746632Y-81756525D01*
X104572240Y-81640000D01*
X104746632Y-81523475D01*
X104953475Y-81316632D01*
X105115990Y-81073411D01*
X105227932Y-80803158D01*
X105285000Y-80516260D01*
X105285000Y-80223740D01*
X105227932Y-79936842D01*
X105115990Y-79666589D01*
X104953475Y-79423368D01*
X104746632Y-79216525D01*
X104572240Y-79100000D01*
X104746632Y-78983475D01*
X104953475Y-78776632D01*
X105115990Y-78533411D01*
X105227932Y-78263158D01*
X105285000Y-77976260D01*
X105285000Y-77683740D01*
X105227932Y-77396842D01*
X105115990Y-77126589D01*
X104953475Y-76883368D01*
X104746632Y-76676525D01*
X104503411Y-76514010D01*
X104233158Y-76402068D01*
X103946260Y-76345000D01*
X103653740Y-76345000D01*
X103366842Y-76402068D01*
X103096589Y-76514010D01*
X102853368Y-76676525D01*
X102646525Y-76883368D01*
X102484010Y-77126589D01*
X102372068Y-77396842D01*
X102315000Y-77683740D01*
X102315000Y-77976260D01*
X102372068Y-78263158D01*
X102484010Y-78533411D01*
X102646525Y-78776632D01*
X102853368Y-78983475D01*
X103027760Y-79100000D01*
X102853368Y-79216525D01*
X102646525Y-79423368D01*
X102484010Y-79666589D01*
X102372068Y-79936842D01*
X102315000Y-80223740D01*
X102315000Y-80516260D01*
X102372068Y-80803158D01*
X102484010Y-81073411D01*
X102646525Y-81316632D01*
X102853368Y-81523475D01*
X103027760Y-81640000D01*
X102853368Y-81756525D01*
X102646525Y-81963368D01*
X102484010Y-82206589D01*
X102372068Y-82476842D01*
X102315000Y-82763740D01*
X102315000Y-83056260D01*
X102372068Y-83343158D01*
X102484010Y-83613411D01*
X102646525Y-83856632D01*
X102853368Y-84063475D01*
X103027760Y-84180000D01*
X102853368Y-84296525D01*
X102646525Y-84503368D01*
X102484010Y-84746589D01*
X102372068Y-85016842D01*
X102315000Y-85303740D01*
X102315000Y-85596260D01*
X102372068Y-85883158D01*
X102484010Y-86153411D01*
X102646525Y-86396632D01*
X102853368Y-86603475D01*
X103027760Y-86720000D01*
X102853368Y-86836525D01*
X102646525Y-87043368D01*
X102484010Y-87286589D01*
X102372068Y-87556842D01*
X102315000Y-87843740D01*
X102315000Y-88136260D01*
X102372068Y-88423158D01*
X102484010Y-88693411D01*
X102646525Y-88936632D01*
X102853368Y-89143475D01*
X103027760Y-89260000D01*
X102853368Y-89376525D01*
X102646525Y-89583368D01*
X102484010Y-89826589D01*
X102372068Y-90096842D01*
X102315000Y-90383740D01*
X102315000Y-90676260D01*
X102372068Y-90963158D01*
X102484010Y-91233411D01*
X102646525Y-91476632D01*
X102853368Y-91683475D01*
X103027760Y-91800000D01*
X102853368Y-91916525D01*
X102646525Y-92123368D01*
X102484010Y-92366589D01*
X102372068Y-92636842D01*
X102315000Y-92923740D01*
X102315000Y-93216260D01*
X102372068Y-93503158D01*
X102484010Y-93773411D01*
X102646525Y-94016632D01*
X102853368Y-94223475D01*
X103027760Y-94340000D01*
X102853368Y-94456525D01*
X102646525Y-94663368D01*
X102484010Y-94906589D01*
X102372068Y-95176842D01*
X102315000Y-95463740D01*
X102315000Y-95756260D01*
X102372068Y-96043158D01*
X102484010Y-96313411D01*
X102646525Y-96556632D01*
X102778380Y-96688487D01*
X102705820Y-96710498D01*
X102595506Y-96769463D01*
X102498815Y-96848815D01*
X102419463Y-96945506D01*
X102360498Y-97055820D01*
X102324188Y-97175518D01*
X102311928Y-97300000D01*
X97688072Y-97300000D01*
X97675812Y-97175518D01*
X97639502Y-97055820D01*
X97580537Y-96945506D01*
X97501185Y-96848815D01*
X97404494Y-96769463D01*
X97294180Y-96710498D01*
X97221620Y-96688487D01*
X97353475Y-96556632D01*
X97515990Y-96313411D01*
X97627932Y-96043158D01*
X97685000Y-95756260D01*
X97685000Y-95463740D01*
X97627932Y-95176842D01*
X97515990Y-94906589D01*
X97353475Y-94663368D01*
X97146632Y-94456525D01*
X96972240Y-94340000D01*
X97146632Y-94223475D01*
X97353475Y-94016632D01*
X97515990Y-93773411D01*
X97627932Y-93503158D01*
X97685000Y-93216260D01*
X97685000Y-92923740D01*
X97627932Y-92636842D01*
X97515990Y-92366589D01*
X97353475Y-92123368D01*
X97146632Y-91916525D01*
X96972240Y-91800000D01*
X97146632Y-91683475D01*
X97353475Y-91476632D01*
X97515990Y-91233411D01*
X97627932Y-90963158D01*
X97685000Y-90676260D01*
X97685000Y-90383740D01*
X97627932Y-90096842D01*
X97515990Y-89826589D01*
X97353475Y-89583368D01*
X97146632Y-89376525D01*
X96972240Y-89260000D01*
X97146632Y-89143475D01*
X97353475Y-88936632D01*
X97515990Y-88693411D01*
X97627932Y-88423158D01*
X97685000Y-88136260D01*
X97685000Y-87843740D01*
X97627932Y-87556842D01*
X97515990Y-87286589D01*
X97353475Y-87043368D01*
X97146632Y-86836525D01*
X96972240Y-86720000D01*
X97146632Y-86603475D01*
X97353475Y-86396632D01*
X97515990Y-86153411D01*
X97627932Y-85883158D01*
X97685000Y-85596260D01*
X97685000Y-85303740D01*
X97627932Y-85016842D01*
X97515990Y-84746589D01*
X97353475Y-84503368D01*
X97146632Y-84296525D01*
X96972240Y-84180000D01*
X97146632Y-84063475D01*
X97353475Y-83856632D01*
X97515990Y-83613411D01*
X97627932Y-83343158D01*
X97685000Y-83056260D01*
X97685000Y-82763740D01*
X97627932Y-82476842D01*
X97515990Y-82206589D01*
X97353475Y-81963368D01*
X97146632Y-81756525D01*
X96972240Y-81640000D01*
X97146632Y-81523475D01*
X97353475Y-81316632D01*
X97515990Y-81073411D01*
X97627932Y-80803158D01*
X97685000Y-80516260D01*
X97685000Y-80223740D01*
X97627932Y-79936842D01*
X97515990Y-79666589D01*
X97353475Y-79423368D01*
X97146632Y-79216525D01*
X96972240Y-79100000D01*
X97146632Y-78983475D01*
X97353475Y-78776632D01*
X97515990Y-78533411D01*
X97627932Y-78263158D01*
X97685000Y-77976260D01*
X97685000Y-77683740D01*
X97627932Y-77396842D01*
X97515990Y-77126589D01*
X97353475Y-76883368D01*
X97146632Y-76676525D01*
X96903411Y-76514010D01*
X96633158Y-76402068D01*
X96346260Y-76345000D01*
X96053740Y-76345000D01*
X95766842Y-76402068D01*
X95496589Y-76514010D01*
X95253368Y-76676525D01*
X95046525Y-76883368D01*
X94884010Y-77126589D01*
X94772068Y-77396842D01*
X94715000Y-77683740D01*
X94715000Y-77976260D01*
X94772068Y-78263158D01*
X94884010Y-78533411D01*
X95046525Y-78776632D01*
X95253368Y-78983475D01*
X95427760Y-79100000D01*
X95253368Y-79216525D01*
X95046525Y-79423368D01*
X94884010Y-79666589D01*
X94772068Y-79936842D01*
X94715000Y-80223740D01*
X94715000Y-80516260D01*
X94772068Y-80803158D01*
X94884010Y-81073411D01*
X95046525Y-81316632D01*
X95253368Y-81523475D01*
X95427760Y-81640000D01*
X95253368Y-81756525D01*
X95046525Y-81963368D01*
X94884010Y-82206589D01*
X94772068Y-82476842D01*
X94715000Y-82763740D01*
X94715000Y-83056260D01*
X94772068Y-83343158D01*
X94884010Y-83613411D01*
X95046525Y-83856632D01*
X95253368Y-84063475D01*
X95427760Y-84180000D01*
X95253368Y-84296525D01*
X95046525Y-84503368D01*
X94884010Y-84746589D01*
X94772068Y-85016842D01*
X94715000Y-85303740D01*
X94715000Y-85596260D01*
X94772068Y-85883158D01*
X94884010Y-86153411D01*
X95046525Y-86396632D01*
X95253368Y-86603475D01*
X95427760Y-86720000D01*
X95253368Y-86836525D01*
X95046525Y-87043368D01*
X94884010Y-87286589D01*
X94772068Y-87556842D01*
X94715000Y-87843740D01*
X94715000Y-88136260D01*
X94772068Y-88423158D01*
X94884010Y-88693411D01*
X95046525Y-88936632D01*
X95253368Y-89143475D01*
X95427760Y-89260000D01*
X95253368Y-89376525D01*
X95046525Y-89583368D01*
X94884010Y-89826589D01*
X94772068Y-90096842D01*
X94715000Y-90383740D01*
X94715000Y-90676260D01*
X94772068Y-90963158D01*
X94884010Y-91233411D01*
X95046525Y-91476632D01*
X95253368Y-91683475D01*
X95427760Y-91800000D01*
X95253368Y-91916525D01*
X95046525Y-92123368D01*
X94884010Y-92366589D01*
X94772068Y-92636842D01*
X94715000Y-92923740D01*
X94715000Y-93216260D01*
X94772068Y-93503158D01*
X94884010Y-93773411D01*
X95046525Y-94016632D01*
X95253368Y-94223475D01*
X95427760Y-94340000D01*
X95253368Y-94456525D01*
X95046525Y-94663368D01*
X94884010Y-94906589D01*
X94772068Y-95176842D01*
X94715000Y-95463740D01*
X94715000Y-95756260D01*
X94772068Y-96043158D01*
X94884010Y-96313411D01*
X95046525Y-96556632D01*
X95178380Y-96688487D01*
X95105820Y-96710498D01*
X94995506Y-96769463D01*
X94898815Y-96848815D01*
X94819463Y-96945506D01*
X94760498Y-97055820D01*
X94724188Y-97175518D01*
X94711928Y-97300000D01*
X94080686Y-97300000D01*
X94075812Y-97250518D01*
X94039502Y-97130820D01*
X93980537Y-97020506D01*
X93901185Y-96923815D01*
X93804494Y-96844463D01*
X93694180Y-96785498D01*
X93574482Y-96749188D01*
X93566039Y-96748357D01*
X93764637Y-96549759D01*
X93921680Y-96314727D01*
X94029853Y-96053574D01*
X94085000Y-95776335D01*
X94085000Y-95493665D01*
X94029853Y-95216426D01*
X93921680Y-94955273D01*
X93764637Y-94720241D01*
X93564759Y-94520363D01*
X93332241Y-94365000D01*
X93564759Y-94209637D01*
X93764637Y-94009759D01*
X93921680Y-93774727D01*
X94029853Y-93513574D01*
X94085000Y-93236335D01*
X94085000Y-92953665D01*
X94029853Y-92676426D01*
X93921680Y-92415273D01*
X93764637Y-92180241D01*
X93564759Y-91980363D01*
X93332241Y-91825000D01*
X93564759Y-91669637D01*
X93764637Y-91469759D01*
X93921680Y-91234727D01*
X94029853Y-90973574D01*
X94085000Y-90696335D01*
X94085000Y-90413665D01*
X94029853Y-90136426D01*
X93921680Y-89875273D01*
X93764637Y-89640241D01*
X93564759Y-89440363D01*
X93332241Y-89285000D01*
X93564759Y-89129637D01*
X93764637Y-88929759D01*
X93921680Y-88694727D01*
X94029853Y-88433574D01*
X94085000Y-88156335D01*
X94085000Y-87873665D01*
X94029853Y-87596426D01*
X93921680Y-87335273D01*
X93764637Y-87100241D01*
X93564759Y-86900363D01*
X93332241Y-86745000D01*
X93564759Y-86589637D01*
X93764637Y-86389759D01*
X93921680Y-86154727D01*
X94029853Y-85893574D01*
X94085000Y-85616335D01*
X94085000Y-85333665D01*
X94029853Y-85056426D01*
X93921680Y-84795273D01*
X93764637Y-84560241D01*
X93564759Y-84360363D01*
X93332241Y-84205000D01*
X93564759Y-84049637D01*
X93764637Y-83849759D01*
X93921680Y-83614727D01*
X94029853Y-83353574D01*
X94085000Y-83076335D01*
X94085000Y-82793665D01*
X94029853Y-82516426D01*
X93921680Y-82255273D01*
X93764637Y-82020241D01*
X93564759Y-81820363D01*
X93332241Y-81665000D01*
X93564759Y-81509637D01*
X93764637Y-81309759D01*
X93921680Y-81074727D01*
X94029853Y-80813574D01*
X94085000Y-80536335D01*
X94085000Y-80253665D01*
X94029853Y-79976426D01*
X93921680Y-79715273D01*
X93764637Y-79480241D01*
X93564759Y-79280363D01*
X93332241Y-79125000D01*
X93564759Y-78969637D01*
X93764637Y-78769759D01*
X93921680Y-78534727D01*
X94029853Y-78273574D01*
X94085000Y-77996335D01*
X94085000Y-77713665D01*
X94029853Y-77436426D01*
X93921680Y-77175273D01*
X93764637Y-76940241D01*
X93564759Y-76740363D01*
X93329727Y-76583320D01*
X93068574Y-76475147D01*
X92791335Y-76420000D01*
X92508665Y-76420000D01*
X92231426Y-76475147D01*
X91970273Y-76583320D01*
X91735241Y-76740363D01*
X91535363Y-76940241D01*
X91378320Y-77175273D01*
X91270147Y-77436426D01*
X91215000Y-77713665D01*
X91215000Y-77996335D01*
X91270147Y-78273574D01*
X91378320Y-78534727D01*
X91535363Y-78769759D01*
X91735241Y-78969637D01*
X91967759Y-79125000D01*
X91735241Y-79280363D01*
X91535363Y-79480241D01*
X91378320Y-79715273D01*
X91270147Y-79976426D01*
X91215000Y-80253665D01*
X91215000Y-80536335D01*
X91270147Y-80813574D01*
X91378320Y-81074727D01*
X91535363Y-81309759D01*
X91735241Y-81509637D01*
X91967759Y-81665000D01*
X91735241Y-81820363D01*
X91535363Y-82020241D01*
X91378320Y-82255273D01*
X91270147Y-82516426D01*
X91215000Y-82793665D01*
X91215000Y-83076335D01*
X91270147Y-83353574D01*
X91378320Y-83614727D01*
X91535363Y-83849759D01*
X91735241Y-84049637D01*
X91967759Y-84205000D01*
X91735241Y-84360363D01*
X91535363Y-84560241D01*
X91378320Y-84795273D01*
X91270147Y-85056426D01*
X91215000Y-85333665D01*
X91215000Y-85616335D01*
X91270147Y-85893574D01*
X91378320Y-86154727D01*
X91535363Y-86389759D01*
X91735241Y-86589637D01*
X91967759Y-86745000D01*
X91735241Y-86900363D01*
X91535363Y-87100241D01*
X91378320Y-87335273D01*
X91270147Y-87596426D01*
X91215000Y-87873665D01*
X91215000Y-88156335D01*
X91270147Y-88433574D01*
X91378320Y-88694727D01*
X91535363Y-88929759D01*
X91735241Y-89129637D01*
X91967759Y-89285000D01*
X91735241Y-89440363D01*
X91535363Y-89640241D01*
X91378320Y-89875273D01*
X91270147Y-90136426D01*
X91215000Y-90413665D01*
X91215000Y-90696335D01*
X91270147Y-90973574D01*
X91378320Y-91234727D01*
X91535363Y-91469759D01*
X91735241Y-91669637D01*
X91967759Y-91825000D01*
X91735241Y-91980363D01*
X91535363Y-92180241D01*
X91378320Y-92415273D01*
X91270147Y-92676426D01*
X91215000Y-92953665D01*
X91215000Y-93236335D01*
X91270147Y-93513574D01*
X91378320Y-93774727D01*
X91535363Y-94009759D01*
X91735241Y-94209637D01*
X91967759Y-94365000D01*
X91735241Y-94520363D01*
X91535363Y-94720241D01*
X91378320Y-94955273D01*
X91270147Y-95216426D01*
X91215000Y-95493665D01*
X91215000Y-95776335D01*
X91270147Y-96053574D01*
X91378320Y-96314727D01*
X91535363Y-96549759D01*
X91733961Y-96748357D01*
X91725518Y-96749188D01*
X91605820Y-96785498D01*
X91495506Y-96844463D01*
X91398815Y-96923815D01*
X91319463Y-97020506D01*
X91260498Y-97130820D01*
X91224188Y-97250518D01*
X91211928Y-97375000D01*
X91160000Y-97375000D01*
X91160000Y-76160000D01*
X105590000Y-76160000D01*
X105590001Y-99840000D01*
G37*
%TD.AperFunction*%
%TD*%
M02*
