%TF.GenerationSoftware,KiCad,Pcbnew,(5.1.9)-1*%
%TF.CreationDate,2021-02-03T20:33:18-05:00*%
%TF.ProjectId,NerdConsole_BreadBoard_BridgeMonitor8,4e657264-436f-46e7-936f-6c655f427265,rev?*%
%TF.SameCoordinates,Original*%
%TF.FileFunction,Soldermask,Top*%
%TF.FilePolarity,Negative*%
%FSLAX46Y46*%
G04 Gerber Fmt 4.6, Leading zero omitted, Abs format (unit mm)*
G04 Created by KiCad (PCBNEW (5.1.9)-1) date 2021-02-03 20:33:18*
%MOMM*%
%LPD*%
G01*
G04 APERTURE LIST*
%ADD10O,1.700000X1.700000*%
%ADD11R,1.700000X1.700000*%
%ADD12R,1.600000X1.600000*%
%ADD13O,1.600000X1.600000*%
G04 APERTURE END LIST*
%TO.C,D1*%
G36*
G01*
X100300000Y-96050001D02*
X100300000Y-95149999D01*
G75*
G02*
X100549999Y-94900000I249999J0D01*
G01*
X101200001Y-94900000D01*
G75*
G02*
X101450000Y-95149999I0J-249999D01*
G01*
X101450000Y-96050001D01*
G75*
G02*
X101200001Y-96300000I-249999J0D01*
G01*
X100549999Y-96300000D01*
G75*
G02*
X100300000Y-96050001I0J249999D01*
G01*
G37*
G36*
G01*
X98250000Y-96050001D02*
X98250000Y-95149999D01*
G75*
G02*
X98499999Y-94900000I249999J0D01*
G01*
X99150001Y-94900000D01*
G75*
G02*
X99400000Y-95149999I0J-249999D01*
G01*
X99400000Y-96050001D01*
G75*
G02*
X99150001Y-96300000I-249999J0D01*
G01*
X98499999Y-96300000D01*
G75*
G02*
X98250000Y-96050001I0J249999D01*
G01*
G37*
%TD*%
%TO.C,D2*%
G36*
G01*
X98250000Y-93500001D02*
X98250000Y-92599999D01*
G75*
G02*
X98499999Y-92350000I249999J0D01*
G01*
X99150001Y-92350000D01*
G75*
G02*
X99400000Y-92599999I0J-249999D01*
G01*
X99400000Y-93500001D01*
G75*
G02*
X99150001Y-93750000I-249999J0D01*
G01*
X98499999Y-93750000D01*
G75*
G02*
X98250000Y-93500001I0J249999D01*
G01*
G37*
G36*
G01*
X100300000Y-93500001D02*
X100300000Y-92599999D01*
G75*
G02*
X100549999Y-92350000I249999J0D01*
G01*
X101200001Y-92350000D01*
G75*
G02*
X101450000Y-92599999I0J-249999D01*
G01*
X101450000Y-93500001D01*
G75*
G02*
X101200001Y-93750000I-249999J0D01*
G01*
X100549999Y-93750000D01*
G75*
G02*
X100300000Y-93500001I0J249999D01*
G01*
G37*
%TD*%
%TO.C,D3*%
G36*
G01*
X100300000Y-91000001D02*
X100300000Y-90099999D01*
G75*
G02*
X100549999Y-89850000I249999J0D01*
G01*
X101200001Y-89850000D01*
G75*
G02*
X101450000Y-90099999I0J-249999D01*
G01*
X101450000Y-91000001D01*
G75*
G02*
X101200001Y-91250000I-249999J0D01*
G01*
X100549999Y-91250000D01*
G75*
G02*
X100300000Y-91000001I0J249999D01*
G01*
G37*
G36*
G01*
X98250000Y-91000001D02*
X98250000Y-90099999D01*
G75*
G02*
X98499999Y-89850000I249999J0D01*
G01*
X99150001Y-89850000D01*
G75*
G02*
X99400000Y-90099999I0J-249999D01*
G01*
X99400000Y-91000001D01*
G75*
G02*
X99150001Y-91250000I-249999J0D01*
G01*
X98499999Y-91250000D01*
G75*
G02*
X98250000Y-91000001I0J249999D01*
G01*
G37*
%TD*%
%TO.C,D4*%
G36*
G01*
X98250000Y-88450001D02*
X98250000Y-87549999D01*
G75*
G02*
X98499999Y-87300000I249999J0D01*
G01*
X99150001Y-87300000D01*
G75*
G02*
X99400000Y-87549999I0J-249999D01*
G01*
X99400000Y-88450001D01*
G75*
G02*
X99150001Y-88700000I-249999J0D01*
G01*
X98499999Y-88700000D01*
G75*
G02*
X98250000Y-88450001I0J249999D01*
G01*
G37*
G36*
G01*
X100300000Y-88450001D02*
X100300000Y-87549999D01*
G75*
G02*
X100549999Y-87300000I249999J0D01*
G01*
X101200001Y-87300000D01*
G75*
G02*
X101450000Y-87549999I0J-249999D01*
G01*
X101450000Y-88450001D01*
G75*
G02*
X101200001Y-88700000I-249999J0D01*
G01*
X100549999Y-88700000D01*
G75*
G02*
X100300000Y-88450001I0J249999D01*
G01*
G37*
%TD*%
%TO.C,D5*%
G36*
G01*
X100300000Y-85900001D02*
X100300000Y-84999999D01*
G75*
G02*
X100549999Y-84750000I249999J0D01*
G01*
X101200001Y-84750000D01*
G75*
G02*
X101450000Y-84999999I0J-249999D01*
G01*
X101450000Y-85900001D01*
G75*
G02*
X101200001Y-86150000I-249999J0D01*
G01*
X100549999Y-86150000D01*
G75*
G02*
X100300000Y-85900001I0J249999D01*
G01*
G37*
G36*
G01*
X98250000Y-85900001D02*
X98250000Y-84999999D01*
G75*
G02*
X98499999Y-84750000I249999J0D01*
G01*
X99150001Y-84750000D01*
G75*
G02*
X99400000Y-84999999I0J-249999D01*
G01*
X99400000Y-85900001D01*
G75*
G02*
X99150001Y-86150000I-249999J0D01*
G01*
X98499999Y-86150000D01*
G75*
G02*
X98250000Y-85900001I0J249999D01*
G01*
G37*
%TD*%
%TO.C,D6*%
G36*
G01*
X98250000Y-83350001D02*
X98250000Y-82449999D01*
G75*
G02*
X98499999Y-82200000I249999J0D01*
G01*
X99150001Y-82200000D01*
G75*
G02*
X99400000Y-82449999I0J-249999D01*
G01*
X99400000Y-83350001D01*
G75*
G02*
X99150001Y-83600000I-249999J0D01*
G01*
X98499999Y-83600000D01*
G75*
G02*
X98250000Y-83350001I0J249999D01*
G01*
G37*
G36*
G01*
X100300000Y-83350001D02*
X100300000Y-82449999D01*
G75*
G02*
X100549999Y-82200000I249999J0D01*
G01*
X101200001Y-82200000D01*
G75*
G02*
X101450000Y-82449999I0J-249999D01*
G01*
X101450000Y-83350001D01*
G75*
G02*
X101200001Y-83600000I-249999J0D01*
G01*
X100549999Y-83600000D01*
G75*
G02*
X100300000Y-83350001I0J249999D01*
G01*
G37*
%TD*%
%TO.C,D7*%
G36*
G01*
X100300000Y-80850001D02*
X100300000Y-79949999D01*
G75*
G02*
X100549999Y-79700000I249999J0D01*
G01*
X101200001Y-79700000D01*
G75*
G02*
X101450000Y-79949999I0J-249999D01*
G01*
X101450000Y-80850001D01*
G75*
G02*
X101200001Y-81100000I-249999J0D01*
G01*
X100549999Y-81100000D01*
G75*
G02*
X100300000Y-80850001I0J249999D01*
G01*
G37*
G36*
G01*
X98250000Y-80850001D02*
X98250000Y-79949999D01*
G75*
G02*
X98499999Y-79700000I249999J0D01*
G01*
X99150001Y-79700000D01*
G75*
G02*
X99400000Y-79949999I0J-249999D01*
G01*
X99400000Y-80850001D01*
G75*
G02*
X99150001Y-81100000I-249999J0D01*
G01*
X98499999Y-81100000D01*
G75*
G02*
X98250000Y-80850001I0J249999D01*
G01*
G37*
%TD*%
%TO.C,D8*%
G36*
G01*
X98250000Y-78300001D02*
X98250000Y-77399999D01*
G75*
G02*
X98499999Y-77150000I249999J0D01*
G01*
X99150001Y-77150000D01*
G75*
G02*
X99400000Y-77399999I0J-249999D01*
G01*
X99400000Y-78300001D01*
G75*
G02*
X99150001Y-78550000I-249999J0D01*
G01*
X98499999Y-78550000D01*
G75*
G02*
X98250000Y-78300001I0J249999D01*
G01*
G37*
G36*
G01*
X100300000Y-78300001D02*
X100300000Y-77399999D01*
G75*
G02*
X100549999Y-77150000I249999J0D01*
G01*
X101200001Y-77150000D01*
G75*
G02*
X101450000Y-77399999I0J-249999D01*
G01*
X101450000Y-78300001D01*
G75*
G02*
X101200001Y-78550000I-249999J0D01*
G01*
X100549999Y-78550000D01*
G75*
G02*
X100300000Y-78300001I0J249999D01*
G01*
G37*
%TD*%
D10*
%TO.C,J1*%
X96200000Y-77830000D03*
X96200000Y-80370000D03*
X96200000Y-82910000D03*
X96200000Y-85450000D03*
X96200000Y-87990000D03*
X96200000Y-90530000D03*
X96200000Y-93070000D03*
X96200000Y-95610000D03*
D11*
X96200000Y-98150000D03*
%TD*%
%TO.C,J2*%
X103800000Y-98150000D03*
D10*
X103800000Y-95610000D03*
X103800000Y-93070000D03*
X103800000Y-90530000D03*
X103800000Y-87990000D03*
X103800000Y-85450000D03*
X103800000Y-82910000D03*
X103800000Y-80370000D03*
X103800000Y-77830000D03*
%TD*%
D12*
%TO.C,RN1*%
X92650000Y-98175000D03*
D13*
X92650000Y-95635000D03*
X92650000Y-93095000D03*
X92650000Y-90555000D03*
X92650000Y-88015000D03*
X92650000Y-85475000D03*
X92650000Y-82935000D03*
X92650000Y-80395000D03*
X92650000Y-77855000D03*
%TD*%
M02*
